<svg width="21" height="20" viewBox="0 0 21 20" fill="none" xmlns="http://www.w3.org/2000/svg">
<g filter="url(#filter0_dd_79_427)">
<rect x="2" y="2.10815" width="16" height="15.7838" rx="3.48757" fill="white"/>
<rect x="2" y="2.10815" width="16" height="15.7838" rx="3.48757" fill="url(#paint0_radial_79_427)"/>
<g clip-path="url(#clip0_79_427)">
<g clip-path="url(#clip1_79_427)">
<path d="M16.6519 9.80129C16.5267 7.2156 14.4041 5.20162 11.7805 5.18213C11.0752 5.18213 10.3633 5.18213 9.65797 5.18213C9.57887 5.18213 9.50636 5.19512 9.42725 5.20162C9.42725 5.22761 9.42726 5.2471 9.43385 5.27308C9.51954 5.27958 9.61183 5.28608 9.69752 5.28608C10.3633 5.28608 11.0291 5.29257 11.6948 5.28608C12.4925 5.27958 13.2373 5.46149 13.9097 5.87728C14.3052 6.12415 14.6612 6.41651 14.9446 6.78682C14.8919 6.77382 14.8523 6.74134 14.8128 6.70886C14.0745 6.04619 13.2044 5.6369 12.209 5.57193C11.3718 5.51996 10.5347 5.55244 9.69752 5.54595C9.67115 5.54595 9.65138 5.57193 9.62501 5.58493C9.72389 5.6369 9.80958 5.6434 9.90187 5.64989C10.5149 5.64989 11.128 5.64989 11.741 5.64989C12.8418 5.65639 13.7713 6.07218 14.5359 6.84529C14.5953 6.90376 14.648 6.97522 14.7073 7.04019C14.6282 7.03369 14.5821 6.99471 14.5359 6.95573C13.8636 6.36453 13.0791 5.98772 12.1826 5.93575C11.2005 5.88377 10.2117 5.90976 9.2295 5.90976C9.20313 5.90976 9.18336 5.94224 9.09766 6.00072C9.25587 6.00721 9.34815 6.01371 9.44044 6.01371C10.2117 6.01371 10.9763 6.01371 11.7476 6.01371C12.8352 6.02021 13.7185 6.46198 14.4305 7.24808C14.4568 7.28057 14.47 7.32605 14.4964 7.36503C13.9427 6.88427 13.3296 6.53345 12.6111 6.37103C11.9058 6.20861 11.1939 6.29956 10.482 6.32555C10.5611 6.38402 10.6402 6.39052 10.7193 6.39052C11.1016 6.39052 11.4773 6.38402 11.8596 6.39052C12.8748 6.423 13.6526 6.89077 14.2525 7.67037C13.7976 7.24159 13.2769 6.92975 12.6639 6.76083C12.0508 6.59192 11.4312 6.65688 10.8115 6.66988C11.3982 6.75433 12.0047 6.76083 12.5782 6.89077C13.178 7.0272 13.6329 7.4235 13.9756 7.93024C13.3955 7.37802 12.71 7.04019 11.8992 7.0142C11.2927 6.99471 10.6929 7.00771 10.0864 7.00771C10.0469 7.00771 10.0073 7.03369 9.96779 7.04669C9.96779 7.06618 9.97438 7.09216 9.97438 7.11165C10.0667 7.11165 10.1524 7.11165 10.2446 7.11165C10.805 7.11165 11.3718 7.09216 11.9256 7.12465C12.6704 7.16363 13.2373 7.54693 13.6658 8.13813C13.1187 7.65088 12.4925 7.37152 11.7476 7.37152C11.0159 7.37152 10.2776 7.37152 9.54591 7.37152C9.46681 7.37152 9.3877 7.38452 9.3086 7.39101C9.3086 7.417 9.3086 7.43649 9.3086 7.46248C9.3943 7.46897 9.47999 7.48197 9.56568 7.48197C10.2908 7.48197 11.0159 7.49496 11.741 7.48197C12.2947 7.46897 13.1055 7.83929 13.3824 8.42399C12.9407 8.0082 12.4529 7.77432 11.8794 7.75483C11.3323 7.73534 10.7786 7.74833 10.2315 7.74833C10.2315 7.78082 10.2315 7.8068 10.2315 7.83929C10.3106 7.84578 10.3897 7.85228 10.4688 7.85228C10.9038 7.85228 11.3323 7.84578 11.7674 7.85228C12.7561 7.86527 13.6329 8.56042 13.857 9.49595C14.1866 10.8862 13.1582 12.1401 11.6685 12.1531C10.6138 12.1596 9.55909 12.1531 8.5044 12.1596C8.43848 12.1596 8.37915 12.1726 8.31323 12.1791V12.2635C8.35278 12.27 8.39233 12.2765 8.43189 12.2765C9.51954 12.2765 10.6072 12.2765 11.6948 12.2765C12.1826 12.2765 12.6375 12.1466 13.033 11.8737C13.1582 11.7893 13.2703 11.6918 13.4351 11.5554C12.9869 12.2116 12.354 12.5364 11.6223 12.5364C10.5149 12.5364 9.40748 12.5364 8.30664 12.5364V12.6469C9.44703 12.6469 10.5874 12.6469 11.7212 12.6469C12.3145 12.6469 12.8616 12.4649 13.3362 12.1141C13.389 12.0751 13.4483 12.0362 13.5076 11.9972C13.0396 12.5689 12.4463 12.8937 11.7014 12.9002C10.8643 12.9067 10.0271 12.9002 9.18995 12.9002C9.10425 12.9002 9.01856 12.9132 8.93287 12.9197C8.99878 12.9912 9.05811 13.0107 9.11744 13.0107C10.0271 13.0107 10.9302 13.0172 11.8399 13.0042C12.4595 12.9977 13.0198 12.7898 13.5274 12.426C13.5867 12.387 13.646 12.3415 13.7054 12.3025C13.178 12.9197 12.5122 13.2575 11.6883 13.264C11.0027 13.2705 10.3237 13.264 9.63819 13.264C9.55909 13.264 9.47999 13.277 9.3943 13.29C9.45362 13.355 9.49976 13.3745 9.5525 13.3745C10.3237 13.3745 11.0884 13.3875 11.8596 13.3615C12.1497 13.355 12.4529 13.3095 12.7232 13.2121C13.1319 13.0626 13.5208 12.8548 13.8768 12.6858C13.4483 13.1276 12.9078 13.4784 12.242 13.5629C11.6553 13.6344 11.0554 13.6084 10.4622 13.6214C10.3831 13.6214 10.304 13.6409 10.2183 13.6474L10.2315 13.7123C11.5762 13.7448 12.9407 13.8812 14.1009 12.9522C13.6724 13.4135 13.1714 13.7578 12.5716 13.8617C11.9915 13.9592 11.3916 13.9462 10.7984 13.9852C10.7127 13.9917 10.6336 13.9982 10.5479 14.0112C10.5479 14.0307 10.5545 14.0566 10.5545 14.0761C11.1082 14.0761 11.6685 14.1086 12.2156 14.0696C12.9869 14.0112 13.6724 13.6993 14.2986 13.2575C13.7647 13.7903 13.1385 14.1801 12.387 14.2775C11.7674 14.3555 11.128 14.3295 10.5017 14.3555C10.4028 14.362 10.3106 14.3685 10.2117 14.3685C10.2183 14.3945 10.2183 14.4205 10.2249 14.4464C11.7476 14.5244 13.2571 14.5504 14.5491 13.5109C14.5425 13.5629 14.5293 13.5889 14.5096 13.6019C14.47 13.6409 14.4305 13.6733 14.3909 13.7058C13.5801 14.3815 12.6507 14.7323 11.5894 14.7193C11.2136 14.7128 10.8313 14.7193 10.4556 14.7193C10.4556 14.7453 10.4556 14.7713 10.449 14.7973C10.4951 14.8103 10.5413 14.8298 10.5808 14.8298C11.1345 14.8233 11.6883 14.8492 12.2354 14.7908C14.8523 14.5374 16.7706 12.335 16.6519 9.80129Z" fill="url(#paint1_linear_79_427)"/>
</g>
<path d="M10.3041 6.87899C10.4516 6.87899 10.5711 6.86645 10.5711 6.85099C10.5711 6.83553 10.4516 6.823 10.3041 6.823C10.1566 6.823 10.0371 6.83553 10.0371 6.85099C10.0371 6.86645 10.1566 6.87899 10.3041 6.87899Z" fill="url(#paint2_linear_79_427)"/>
<path d="M9.90625 13.7825C10.0312 13.7825 10.1619 13.7825 10.2869 13.7825C10.2869 13.7993 10.2869 13.8161 10.2869 13.8329C10.1619 13.8329 10.0312 13.8329 9.90625 13.8329C9.90625 13.8105 9.90625 13.7937 9.90625 13.7825Z" fill="url(#paint3_linear_79_427)"/>
<path d="M4.61182 14.1688V5.86011H6.92391V9.01785L9.48595 5.86011H12.0991L9.03717 9.58333L12.315 14.1688H9.65638L7.56584 11.1174L6.92391 11.7725V14.1688H4.61182Z" fill="white"/>
</g>
<rect x="2.08446" y="2.19262" width="15.8311" height="15.6149" rx="3.4031" stroke="url(#paint4_linear_79_427)" stroke-width="0.168928"/>
</g>
<defs>
<filter id="filter0_dd_79_427" x="0.648577" y="0.587804" width="19.3786" height="19.1622" filterUnits="userSpaceOnUse" color-interpolation-filters="sRGB">
<feFlood flood-opacity="0" result="BackgroundImageFix"/>
<feColorMatrix in="SourceAlpha" type="matrix" values="0 0 0 0 0 0 0 0 0 0 0 0 0 0 0 0 0 0 127 0" result="hardAlpha"/>
<feOffset dx="0.337856" dy="0.168928"/>
<feGaussianBlur stdDeviation="0.844639"/>
<feColorMatrix type="matrix" values="0 0 0 0 0.0672917 0 0 0 0 0.117167 0 0 0 0 0.316667 0 0 0 0.28 0"/>
<feBlend mode="normal" in2="BackgroundImageFix" result="effect1_dropShadow_79_427"/>
<feColorMatrix in="SourceAlpha" type="matrix" values="0 0 0 0 0 0 0 0 0 0 0 0 0 0 0 0 0 0 127 0" result="hardAlpha"/>
<feMorphology radius="0.506783" operator="erode" in="SourceAlpha" result="effect2_dropShadow_79_427"/>
<feOffset dx="-0.337856"/>
<feGaussianBlur stdDeviation="0.675711"/>
<feColorMatrix type="matrix" values="0 0 0 0 0.333333 0 0 0 0 0.64 0 0 0 0 1 0 0 0 1 0"/>
<feBlend mode="normal" in2="effect1_dropShadow_79_427" result="effect2_dropShadow_79_427"/>
<feBlend mode="normal" in="SourceGraphic" in2="effect2_dropShadow_79_427" result="shape"/>
</filter>
<radialGradient id="paint0_radial_79_427" cx="0" cy="0" r="1" gradientUnits="userSpaceOnUse" gradientTransform="translate(6.93175 8.96697) rotate(48.9526) scale(9.04995 9.06772)">
<stop stop-color="#1C79CF"/>
<stop offset="0.645833" stop-color="#00497D"/>
</radialGradient>
<linearGradient id="paint1_linear_79_427" x1="13.2524" y1="10.1607" x2="11.1214" y2="10.1607" gradientUnits="userSpaceOnUse">
<stop stop-color="#9CD5FF"/>
<stop offset="1" stop-color="#1A71AF" stop-opacity="0.99"/>
</linearGradient>
<linearGradient id="paint2_linear_79_427" x1="10.3041" y1="6.823" x2="10.3041" y2="6.87899" gradientUnits="userSpaceOnUse">
<stop stop-color="#9BC3E0"/>
<stop offset="1" stop-color="#9BC3E0" stop-opacity="0"/>
</linearGradient>
<linearGradient id="paint3_linear_79_427" x1="10.0966" y1="13.7825" x2="10.0966" y2="13.8329" gradientUnits="userSpaceOnUse">
<stop stop-color="#9BC3E0"/>
<stop offset="1" stop-color="#9BC3E0" stop-opacity="0"/>
</linearGradient>
<linearGradient id="paint4_linear_79_427" x1="10" y1="2.10815" x2="10" y2="17.8919" gradientUnits="userSpaceOnUse">
<stop stop-color="#6DACDE"/>
<stop offset="1" stop-color="#025EA1"/>
</linearGradient>
<clipPath id="clip0_79_427">
<rect x="4.81104" y="6" width="11.027" height="8.21622" rx="0.864865" fill="white"/>
</clipPath>
<clipPath id="clip1_79_427">
<path d="M9.59717 5.84888H12.4614C14.3445 5.84888 15.8712 7.37549 15.8712 9.25865V10.759C15.8712 12.6421 14.3445 14.1687 12.4614 14.1687H9.59717V5.84888Z" fill="white"/>
</clipPath>
</defs>
</svg>
