<svg width="149" height="34" viewBox="0 0 149 34" fill="none" xmlns="http://www.w3.org/2000/svg">
<g clip-path="url(#clip0_79_416)">
<path d="M36.3077 0.605713H39.3635V6.30806L43.4552 0.605713H47.1844L42.8337 6.51171L47.4952 12.4177H43.5588L39.3635 6.76628V12.4686H36.2559L36.3077 0.605713Z" fill="black"/>
<path d="M48.9976 0.605713H54.6431C55.5236 0.605713 56.1969 0.70754 56.6631 0.860282C57.7508 1.16576 58.8384 2.08221 58.8384 3.8642C58.8384 4.93339 58.4759 5.54435 57.9062 5.95166C57.6472 6.15532 57.3882 6.25714 57.1292 6.35897C57.44 6.40989 57.7508 6.51171 57.9579 6.61354C58.7349 6.96994 59.46 7.63182 59.46 9.10832C59.46 10.6866 58.6831 11.8577 57.1292 12.265C56.6113 12.4177 55.8344 12.4686 55.0575 12.4686H48.9976V0.605713ZM53.9698 5.39161C54.4359 5.39161 54.9021 5.3407 55.1611 5.23887C55.5236 5.08613 55.7308 4.6279 55.7308 4.16968C55.7308 3.66054 55.5236 3.20232 55.0575 3.04958C54.7467 2.94775 54.0734 2.94775 53.9698 2.94775H52.1052V5.39161H53.9698ZM54.7985 10.2284C55.1093 10.2284 55.4718 10.1775 55.7308 10.0757C56.1452 9.92294 56.3523 9.4138 56.3523 8.95558C56.3523 8.34461 56.0416 7.98821 55.679 7.83547C55.3682 7.68273 55.0057 7.68273 54.7985 7.68273H52.0534V10.1775H54.7985V10.2284Z" fill="black"/>
<path d="M72.2014 5.23882V12.4686H69.5599V11.043C68.4722 12.3158 67.3327 12.825 65.4681 12.825C62.8784 12.825 61.48 11.1957 61.48 9.2101C61.48 7.58085 62.1533 6.35892 64.1215 5.64613C65.261 5.23882 67.022 4.98425 69.2491 4.62785C69.1455 3.50775 68.4722 2.99861 67.022 2.99861C66.1415 2.99861 65.002 3.35501 64.6394 4.4242L61.8943 3.55866C62.5159 1.62394 64.1215 0.249268 67.022 0.249268C69.1455 0.249268 70.8547 0.809319 71.7352 2.38765C72.2014 3.3041 72.2014 4.16963 72.2014 5.23882ZM69.1973 7.0208C67.1773 7.3772 66.3486 7.52994 65.6753 7.78451C64.7948 8.14091 64.4322 8.54822 64.4322 9.15918C64.4322 9.9738 65.0538 10.432 66.1415 10.432C67.7989 10.432 68.6794 9.36284 68.9383 8.8537C69.1455 8.34456 69.1973 7.63177 69.1973 7.0208Z" fill="black"/>
<path d="M75.5161 0.605713H78.572V5.13704H83.5442V0.605713H86.6001V12.4177H83.5442V7.9373H78.572V12.4686H75.5161V0.605713Z" fill="black"/>
<path d="M93.0223 3.25323H89.0859V0.605713H100.015V3.25323H96.0781V12.4686H93.0223V3.25323Z" fill="black"/>
<path d="M22.0643 0.605713H0V6.76628H22.0643V0.605713Z" fill="url(#paint0_linear_79_416)"/>
<path d="M28.3315 6.76636V28.4556H22.0645V6.76636H28.3315Z" fill="url(#paint1_linear_79_416)"/>
<path d="M28.3314 22.2952H0V28.4557H28.3314V22.2952Z" fill="url(#paint2_linear_79_416)"/>
<path d="M6.26709 0.605713V28.4556H0V0.605713H6.26709Z" fill="url(#paint3_linear_79_416)"/>
<path d="M36.2559 16.5928H46.9772V28.4048H43.9214V19.393H39.2599V28.4557H36.2559V16.5928Z" fill="black"/>
<path d="M62.0496 22.5495C62.0496 26.1135 59.8224 28.8119 56.5076 28.8119C55.3681 28.8119 54.4358 28.5573 53.6071 28.0482V33.7505H50.5513V16.5926H53.2446V17.2545C54.0733 16.6435 55.1092 16.2871 56.3522 16.2871C59.7706 16.2871 62.0496 18.9346 62.0496 22.5495ZM58.8383 22.5495C58.8383 20.5639 57.906 18.9346 55.8861 18.9346C53.9697 18.9346 53.2446 20.3602 53.2446 22.5495C53.2446 24.6879 53.9697 26.1644 55.9897 26.1644C57.9578 26.1135 58.8383 24.5351 58.8383 22.5495Z" fill="black"/>
<path d="M64.2764 22.5495C64.2764 18.8328 66.8143 16.2871 70.3881 16.2871C74.0137 16.2871 76.4998 18.8837 76.4998 22.5495C76.4998 26.2153 74.0137 28.8119 70.3881 28.8119C66.7107 28.761 64.2764 26.2153 64.2764 22.5495ZM73.2368 22.5495C73.2368 20.462 72.2527 19.0874 70.3363 19.0874C68.3681 19.0874 67.4358 20.513 67.4358 22.5495C67.4358 24.6879 68.4199 26.0116 70.3363 26.0116C72.3045 26.0116 73.2368 24.5861 73.2368 22.5495Z" fill="black"/>
<path d="M79.3487 16.5928H88.0501V19.393H82.3527V28.4557H79.2969V16.5928H79.3487Z" fill="black"/>
<path d="M102.034 22.5495C102.034 26.1135 99.8073 28.8119 96.4925 28.8119C95.353 28.8119 94.4207 28.5573 93.592 28.0482V33.7505H90.5361V16.5926H93.2294V17.2545C94.0581 16.6435 95.094 16.2871 96.3371 16.2871C99.8073 16.2871 102.034 18.9346 102.034 22.5495ZM98.8232 22.5495C98.8232 20.5639 97.8909 18.9346 95.8709 18.9346C93.9545 18.9346 93.2294 20.3602 93.2294 22.5495C93.2294 24.6879 93.9545 26.1644 95.9745 26.1644C97.9945 26.1135 98.8232 24.5351 98.8232 22.5495Z" fill="black"/>
<path d="M115.035 21.2259V28.4556H112.393V27.0301C111.306 28.3029 110.166 28.812 108.302 28.812C105.712 28.812 104.262 27.1828 104.262 25.1972C104.262 23.5679 104.935 22.346 106.903 21.6332C108.043 21.2259 109.804 20.9713 112.031 20.6149C111.927 19.4948 111.254 18.9857 109.804 18.9857C108.923 18.9857 107.784 19.3421 107.369 20.4113L104.624 19.5457C105.246 17.611 106.851 16.2363 109.752 16.2363C111.875 16.2363 113.585 16.7964 114.465 18.3747C115.035 19.2912 115.035 20.1567 115.035 21.2259ZM112.031 23.0079C110.011 23.3643 109.182 23.517 108.509 23.7716C107.628 24.128 107.266 24.5353 107.266 25.1462C107.266 25.9609 107.887 26.4191 108.975 26.4191C110.632 26.4191 111.513 25.3499 111.772 24.8408C111.979 24.3316 112.031 23.6188 112.031 23.0079Z" fill="black"/>
<path d="M118.35 16.5928H120.784L124.979 24.2808L129.175 16.5928H131.609V28.4048H128.708V22.5497L125.497 28.4557H124.41L121.198 22.5497V28.4557H118.298V16.5928H118.35Z" fill="black"/>
<path d="M135.183 16.5928H137.617L141.812 24.2808L146.008 16.5928H148.442V28.4048H145.541V22.5497L142.33 28.4557H141.243L138.031 22.5497V28.4557H135.183V16.5928Z" fill="black"/>
</g>
<defs>
<linearGradient id="paint0_linear_79_416" x1="22.0605" y1="3.70346" x2="0" y2="3.70346" gradientUnits="userSpaceOnUse">
<stop stop-color="#009AD8"/>
<stop offset="0.55" stop-color="#1860AB"/>
<stop offset="1" stop-color="#2D2E83"/>
</linearGradient>
<linearGradient id="paint1_linear_79_416" x1="25.1887" y1="6.77832" x2="25.1887" y2="28.4639" gradientUnits="userSpaceOnUse">
<stop offset="0.1514" stop-color="#009AD8"/>
<stop offset="0.3191" stop-color="#2CA8DC"/>
<stop offset="0.5483" stop-color="#63B9E2"/>
<stop offset="0.7465" stop-color="#8AC6E6"/>
<stop offset="0.9036" stop-color="#A2CEE8"/>
<stop offset="1" stop-color="#ABD1E9"/>
</linearGradient>
<linearGradient id="paint2_linear_79_416" x1="0" y1="25.3893" x2="28.3164" y2="25.3893" gradientUnits="userSpaceOnUse">
<stop stop-color="#009AD8"/>
<stop offset="0.1262" stop-color="#069CD9"/>
<stop offset="0.2899" stop-color="#16A1DA"/>
<stop offset="0.4744" stop-color="#31A9DD"/>
<stop offset="0.674" stop-color="#56B5E0"/>
<stop offset="0.8836" stop-color="#85C5E5"/>
<stop offset="1" stop-color="#ABD1E9"/>
</linearGradient>
<linearGradient id="paint3_linear_79_416" x1="3.1279" y1="28.4639" x2="3.1279" y2="0.628725" gradientUnits="userSpaceOnUse">
<stop stop-color="#009AD8"/>
<stop offset="0.2378" stop-color="#0E79BE"/>
<stop offset="0.5732" stop-color="#1E519E"/>
<stop offset="0.8389" stop-color="#29388B"/>
<stop offset="1" stop-color="#2D2E83"/>
</linearGradient>
<clipPath id="clip0_79_416">
<rect width="148.442" height="33.3995" fill="white" transform="translate(0 0.300293)"/>
</clipPath>
</defs>
</svg>
