<svg width="35" height="34" viewBox="0 0 35 34" fill="none" xmlns="http://www.w3.org/2000/svg">
<path d="M1.33105 8.23239C1.33105 7.45367 1.96233 6.82239 2.74105 6.82239H33.0307C33.8094 6.82239 34.4407 7.45367 34.4407 8.23239V16.333C34.4407 19.8953 31.5529 22.783 27.9907 22.783H7.78106C4.21882 22.783 1.33105 19.8953 1.33105 16.333V8.23239Z" stroke="#505B67" stroke-width="1.5"/>
<path d="M3.21387 20.6329V31.5358C3.21387 31.9334 3.53622 32.2558 3.93387 32.2558H31.9858C32.3835 32.2558 32.7058 31.9334 32.7058 31.5358V20.6329" stroke="#505B67" stroke-width="1.5"/>
<path d="M16.1553 23.5314V23.5314C16.1553 24.4957 16.937 25.2774 17.9013 25.2774H18.7354C19.6997 25.2774 20.4815 24.4957 20.4815 23.5314V23.5314" stroke="#505B67" stroke-width="1.5"/>
<path d="M23.9424 6.07239L23.9424 3.86723C23.9424 2.6743 22.9753 1.70723 21.7824 1.70723L14.8542 1.70723C13.6613 1.70723 12.6942 2.6743 12.6942 3.86723L12.6942 6.07239" stroke="#505B67" stroke-width="1.5"/>
</svg>
