<svg width="42" height="46" viewBox="0 0 42 46" fill="none" xmlns="http://www.w3.org/2000/svg">
<path d="M38.1809 33.3627V25.2548C38.5307 25.1413 38.8526 24.9567 39.1261 24.713C39.3996 24.4692 39.6186 24.1717 39.7691 23.8394C39.9195 23.5071 39.9982 23.1473 40 22.7832C40.0017 22.4191 39.9266 22.0587 39.7794 21.7249C39.6321 21.3912 39.416 21.0916 39.1449 20.8453C38.8738 20.5989 38.5537 20.4113 38.205 20.2945C37.8564 20.1776 37.4869 20.134 37.1202 20.1666C36.7535 20.1992 36.3978 20.3071 36.0758 20.4836L30.4316 14.8523C30.6045 14.5327 30.7084 14.1811 30.7366 13.8197C30.7648 13.4584 30.7167 13.0952 30.5954 12.7532C30.4741 12.4111 30.2822 12.0978 30.032 11.8331C29.7817 11.5683 29.4785 11.3579 29.1417 11.2153C28.8048 11.0726 28.4417 11.0007 28.0753 11.0043C27.7088 11.0078 27.3472 11.0867 27.0132 11.2359C26.6792 11.385 26.3803 11.6013 26.1353 11.8708C25.8903 12.1404 25.7047 12.4573 25.5902 12.8016H15.4098C15.2968 12.4597 15.1136 12.1445 14.8717 11.8759C14.6298 11.6072 14.3345 11.3908 14.0042 11.2402C13.6739 11.0896 13.3157 11.008 12.9521 11.0006C12.5885 10.9931 12.2272 11.06 11.8909 11.197C11.5546 11.334 11.2505 11.5382 10.9976 11.7968C10.7448 12.0553 10.5486 12.3627 10.4213 12.6997C10.2941 13.0367 10.2385 13.3961 10.2581 13.7553C10.2777 14.1145 10.372 14.4659 10.5352 14.7874L4.82686 20.4329C4.49858 20.2703 4.13966 20.1771 3.77296 20.1593C3.40626 20.1415 3.03982 20.1994 2.69701 20.3294C2.3542 20.4594 2.04253 20.6586 1.78187 20.9144C1.5212 21.1701 1.31725 21.4767 1.18301 21.8147C1.04878 22.1527 0.987201 22.5146 1.00221 22.8775C1.01722 23.2403 1.10848 23.5961 1.27018 23.9221C1.43189 24.2481 1.66048 24.5372 1.9414 24.771C2.22232 25.0048 2.5494 25.1782 2.9018 25.28V28.7613C2.5404 28.8658 2.20574 29.0455 1.92024 29.2883C1.63474 29.5311 1.40498 29.8315 1.24634 30.1692C1.0877 30.507 1.00385 30.8744 1.0004 31.2468C0.996949 31.6192 1.07397 31.988 1.22632 32.3286C1.37867 32.6692 1.60282 32.9736 1.88378 33.2216C2.16473 33.4696 2.49599 33.6553 2.8554 33.7664C3.2148 33.8774 3.59405 33.9113 3.96775 33.8656C4.34145 33.82 4.70098 33.6959 5.02226 33.5017L6.00305 34.5061C5.80898 34.8274 5.68694 35.1863 5.64517 35.5583C5.60341 35.9303 5.6429 36.3069 5.76097 36.6625C5.87904 37.0182 6.07294 37.3446 6.32957 37.6197C6.58619 37.8948 6.89954 38.1122 7.24845 38.2573C7.59735 38.4023 7.97367 38.4715 8.35195 38.4602C8.73023 38.449 9.10166 38.3575 9.44113 38.192C9.78059 38.0265 10.0802 37.7909 10.3196 37.501C10.559 37.2111 10.7328 36.8738 10.829 36.5118L18.2835 36.5458C18.3811 36.8934 18.5503 37.2173 18.7806 37.4971C19.0109 37.7769 19.2973 38.0065 19.6217 38.1715C19.946 38.3365 20.3014 38.4334 20.6655 38.4559C21.0295 38.4785 21.3943 38.4264 21.737 38.3027L23.4289 40.7089C23.1761 41.0084 22.9942 41.36 22.8967 41.738C22.7992 42.116 22.7884 42.5108 22.8652 42.8935C22.942 43.2761 23.1045 43.6369 23.3406 43.9494C23.5767 44.2619 23.8806 44.5181 24.2298 44.6994C24.5791 44.8806 24.965 44.9822 25.3591 44.9968C25.7533 45.0113 26.1457 44.9384 26.5077 44.7834C26.8697 44.6284 27.192 44.3953 27.451 44.1011C27.71 43.8068 27.8991 43.459 28.0046 43.0831H32.825C32.9392 43.4912 33.152 43.8658 33.445 44.1746C33.7381 44.4835 34.1026 44.7173 34.5071 44.8559C34.9117 44.9946 35.3443 45.0339 35.7677 44.9706C36.1911 44.9073 36.5926 44.7432 36.9376 44.4925C37.2827 44.2418 37.5611 43.9119 37.7487 43.5312C37.9363 43.1505 38.0277 42.7304 38.0149 42.3071C38.002 41.8838 37.8854 41.4699 37.6751 41.101C37.4647 40.7321 37.1669 40.4193 36.8073 40.1894L37.3785 38.4605C38.0049 38.4549 38.609 38.2295 39.0831 37.8243C39.5571 37.4192 39.8702 36.8607 39.9666 36.2484C40.0629 35.6361 39.9363 35.0099 39.6093 34.4814C39.2822 33.9528 38.776 33.5564 38.1809 33.3627ZM25.4573 39.7687C25.1306 39.7686 24.8067 39.8287 24.5023 39.946L22.8251 37.5602C23.0798 37.2711 23.267 36.9301 23.3734 36.5613L34.8171 36.5776C34.8223 36.5954 34.8273 36.6133 34.8328 36.6308L27.4122 40.6252C27.1649 40.3553 26.8631 40.1397 26.5264 39.9922C26.1897 39.8447 25.8255 39.7686 25.4573 39.7687ZM19.2098 33.7824L13.9979 29.7046C14.0411 29.6074 14.0783 29.5078 14.1092 29.4061H18.9591C19.0788 29.7979 19.2895 30.1567 19.5744 30.4537C19.8592 30.7506 20.2103 30.9777 20.5996 31.1166L20.4167 33.2639C19.9765 33.3329 19.5612 33.5112 19.2098 33.7824ZM8.27215 33.2313C7.80516 33.2309 7.34652 33.3537 6.94344 33.5869L5.94266 32.5619C6.17012 32.1685 6.28961 31.7232 6.28925 31.27C6.2891 31.1721 6.28342 31.0743 6.27223 30.977L9.37299 30.0972C9.54201 30.3489 9.75351 30.5701 9.99826 30.7509L8.75821 33.276C8.59793 33.2463 8.43522 33.2314 8.27215 33.2313ZM5.34423 24.7729L9.14264 27.6349C9.00401 27.9575 8.93274 28.3045 8.93312 28.655C8.93312 28.7238 8.93667 28.7918 8.94196 28.8593L5.79609 29.7519C5.418 29.2283 4.85832 28.8606 4.22373 28.7188V25.3225C4.63639 25.2308 5.02071 25.0423 5.34423 24.7729ZM12.8989 16.2338C13.0629 16.2336 13.2265 16.2184 13.3876 16.1883L14.6009 18.7326C14.0545 19.1448 13.6917 19.7511 13.5893 20.4232L5.99644 21.5769C5.94564 21.4792 5.88869 21.3848 5.82591 21.2942L11.406 15.7753C11.8451 16.0743 12.3658 16.2343 12.8989 16.2338ZM18.7944 21.333H22.2057C22.3348 21.9541 22.6873 22.5076 23.1978 22.8911L21.8715 26.0674C21.4434 26.0055 21.0064 26.0489 20.5992 26.1937L18.2178 22.5016C18.5067 22.1665 18.7051 21.7645 18.7944 21.333ZM28.1011 16.2338C28.6099 16.2342 29.1079 16.0885 29.5345 15.8143L35.1156 21.383C35.042 21.4983 34.9777 21.6193 34.9232 21.7447L27.4154 20.4575C27.3225 19.7855 26.9691 19.1756 26.43 18.7564L27.5919 16.1848C27.7597 16.2174 27.9302 16.2338 28.1011 16.2338ZM34.7762 35.2701L23.4051 35.2537C23.3796 35.1447 23.347 35.0374 23.3075 34.9325L29.1157 30.7119C29.5082 31.0173 29.9803 31.2061 30.4771 31.2564C30.9738 31.3066 31.4748 31.2163 31.9217 30.9958L35.1558 34.3966C34.9761 34.6622 34.8474 34.9583 34.7762 35.2701ZM24.0744 28.0985C23.9398 27.4908 23.5908 26.9504 23.09 26.574L24.4163 23.3977C24.5421 23.4158 24.6691 23.4249 24.7963 23.425C25.1615 23.4252 25.5227 23.35 25.8569 23.2044L28.6531 27.0584C28.4133 27.3646 28.2455 27.7198 28.162 28.0983L24.0744 28.0985ZM21.4915 29.9625C21.23 29.9625 20.9744 29.8858 20.757 29.7422C20.5397 29.5985 20.3702 29.3943 20.2702 29.1554C20.1701 28.9165 20.1439 28.6536 20.1949 28.3999C20.2459 28.1463 20.3719 27.9133 20.5567 27.7305C20.7416 27.5476 20.9771 27.4231 21.2336 27.3726C21.49 27.3222 21.7558 27.3481 21.9974 27.447C22.2389 27.546 22.4454 27.7136 22.5906 27.9286C22.7359 28.1436 22.8134 28.3964 22.8134 28.655C22.813 29.0017 22.6736 29.334 22.4258 29.5791C22.1779 29.8242 21.8419 29.9621 21.4915 29.9625ZM18.9085 28.0985H14.16C14.0599 27.6454 13.8397 27.2269 13.5219 26.8859L15.5202 23.336C16.0542 23.4776 16.6196 23.4498 17.1367 23.2564L19.5062 26.9308C19.2099 27.2634 19.0042 27.6653 18.9085 28.0985ZM9.94778 26.5978L6.11302 23.7084C6.21909 23.4358 6.27794 23.1475 6.2871 22.8555L13.7273 21.7253C13.8662 22.0907 14.0858 22.4208 14.3701 22.6915L12.4098 26.1737C11.996 26.0373 11.5544 26.0046 11.1247 26.0787C10.6949 26.1527 10.2906 26.3311 9.94778 26.5978ZM32.0669 28.655C32.0669 28.9136 31.9894 29.1664 31.8442 29.3814C31.6989 29.5964 31.4924 29.764 31.2509 29.863C31.0093 29.9619 30.7435 29.9878 30.4871 29.9374C30.2307 29.8869 29.9951 29.7624 29.8103 29.5796C29.6254 29.3967 29.4995 29.1637 29.4485 28.9101C29.3975 28.6565 29.4236 28.3936 29.5237 28.1547C29.6238 27.9157 29.7932 27.7115 30.0106 27.5679C30.228 27.4242 30.4835 27.3475 30.745 27.3475C31.0955 27.3479 31.4315 27.4858 31.6793 27.7309C31.9271 27.976 32.0665 28.3084 32.0669 28.655ZM32.2712 26.5222C31.9016 26.2624 31.4704 26.1014 31.0195 26.0546C30.5685 26.0078 30.113 26.0769 29.697 26.2552L26.8969 22.3954C27.0474 22.2008 27.1695 21.9862 27.2596 21.758L34.7244 23.0376C34.763 23.4117 34.8832 23.7731 35.0768 24.0967L32.2712 26.5222ZM26.1182 20.81C26.1182 21.0686 26.0407 21.3214 25.8955 21.5364C25.7502 21.7515 25.5437 21.919 25.3022 22.018C25.0606 22.117 24.7948 22.1429 24.5384 22.0924C24.282 22.042 24.0464 21.9174 23.8616 21.7346C23.6767 21.5517 23.5508 21.3187 23.4998 21.0651C23.4488 20.8115 23.4749 20.5486 23.575 20.3097C23.6751 20.0708 23.8445 19.8666 24.0619 19.7229C24.2793 19.5792 24.5349 19.5025 24.7963 19.5025C25.1468 19.5029 25.4828 19.6408 25.7306 19.886C25.9784 20.1311 26.1178 20.4634 26.1182 20.81ZM16.2037 22.1175C15.9423 22.1175 15.6867 22.0408 15.4693 21.8972C15.2519 21.7535 15.0825 21.5493 14.9824 21.3104C14.8824 21.0715 14.8562 20.8086 14.9072 20.555C14.9582 20.3013 15.0841 20.0684 15.269 19.8855C15.4539 19.7026 15.6894 19.5781 15.9458 19.5277C16.2023 19.4772 16.4681 19.5031 16.7096 19.6021C16.9512 19.701 17.1576 19.8686 17.3029 20.0836C17.4481 20.2986 17.5257 20.5514 17.5257 20.81C17.5253 21.1567 17.3859 21.489 17.138 21.7341C16.8902 21.9792 16.5542 22.1171 16.2037 22.1175ZM10.255 28.655C10.255 28.3964 10.3326 28.1436 10.4778 27.9286C10.6231 27.7136 10.8295 27.546 11.0711 27.447C11.3126 27.3481 11.5784 27.3222 11.8349 27.3726C12.0913 27.4231 12.3269 27.5476 12.5117 27.7305C12.6966 27.9133 12.8225 28.1463 12.8735 28.3999C12.9245 28.6536 12.8983 28.9165 12.7983 29.1554C12.6982 29.3943 12.5288 29.5985 12.3114 29.7422C12.094 29.8858 11.8384 29.9625 11.577 29.9625C11.2265 29.9621 10.8905 29.8242 10.6427 29.5791C10.3949 29.334 10.2555 29.0017 10.255 28.655ZM21.9162 31.2359C22.4053 31.1561 22.862 30.9424 23.2345 30.619C23.607 30.2955 23.8804 29.8753 24.0237 29.406H28.2126C28.2401 29.4972 28.2727 29.5868 28.3103 29.6745L22.549 33.8613C22.3079 33.6564 22.0315 33.4962 21.7329 33.3882L21.9162 31.2359ZM36.1409 33.524L32.9207 30.138C33.1861 29.7584 33.3449 29.3159 33.381 28.8558C33.417 28.3957 33.3291 27.9343 33.1261 27.5188L36.0133 25.0231C36.2746 25.1761 36.5607 25.2832 36.8589 25.3395V33.278C36.6088 33.3252 36.3669 33.4078 36.1409 33.524ZM38.6766 22.7713C38.6766 23.0299 38.5991 23.2827 38.4538 23.4977C38.3086 23.7127 38.1021 23.8803 37.8605 23.9793C37.619 24.0782 37.3532 24.1041 37.0968 24.0537C36.8403 24.0032 36.6048 23.8787 36.4199 23.6958C36.235 23.513 36.1091 23.28 36.0581 23.0264C36.0071 22.7727 36.0333 22.5098 36.1334 22.2709C36.2334 22.032 36.4028 21.8278 36.6202 21.6841C36.8376 21.5405 37.0932 21.4638 37.3547 21.4638C37.7051 21.4642 38.0411 21.6021 38.289 21.8472C38.5368 22.0923 38.6762 22.4246 38.6766 22.7713ZM28.1011 12.3113C28.3626 12.3113 28.6182 12.388 28.8356 12.5317C29.053 12.6753 29.2224 12.8795 29.3224 13.1184C29.4225 13.3574 29.4487 13.6203 29.3977 13.8739C29.3467 14.1275 29.2208 14.3605 29.0359 14.5433C28.851 14.7262 28.6155 14.8507 28.359 14.9012C28.1026 14.9516 27.8368 14.9257 27.5953 14.8268C27.3537 14.7278 27.1472 14.5602 27.002 14.3452C26.8567 14.1302 26.7792 13.8774 26.7792 13.6188C26.7796 13.2722 26.919 12.9398 27.1668 12.6947C27.4147 12.4496 27.7507 12.3117 28.1011 12.3113ZM15.4955 14.1091H25.5045C25.619 14.6989 25.9351 15.2318 26.3998 15.6183L25.2204 18.2291C24.593 18.1279 23.9497 18.2538 23.4085 18.5838C22.8673 18.9138 22.4646 19.4256 22.2741 20.0255H18.7259C18.5374 19.4322 18.1412 18.9247 17.6084 18.5943C17.0757 18.264 16.4413 18.1323 15.8191 18.223L14.584 15.6325C15.0576 15.2449 15.3799 14.7062 15.4955 14.1091ZM12.8989 12.3113C13.1604 12.3113 13.4159 12.388 13.6333 12.5317C13.8507 12.6753 14.0202 12.8795 14.1202 13.1184C14.2203 13.3574 14.2465 13.6203 14.1954 13.8739C14.1444 14.1275 14.0185 14.3605 13.8337 14.5433C13.6488 14.7262 13.4132 14.8507 13.1568 14.9012C12.9004 14.9516 12.6346 14.9257 12.393 14.8268C12.1515 14.7278 11.945 14.5602 11.7998 14.3452C11.6545 14.1302 11.577 13.8774 11.577 13.6188C11.5774 13.2722 11.7168 12.9398 11.9646 12.6947C12.2124 12.4496 12.5484 12.3117 12.8989 12.3113ZM2.32345 22.7713C2.32345 22.5127 2.40098 22.2599 2.54624 22.0449C2.69149 21.8299 2.89795 21.6623 3.1395 21.5633C3.38106 21.4644 3.64685 21.4385 3.90328 21.4889C4.15971 21.5394 4.39526 21.6639 4.58013 21.8467C4.76501 22.0296 4.89091 22.2626 4.94192 22.5162C4.99292 22.7698 4.96675 23.0327 4.86669 23.2716C4.76664 23.5106 4.5972 23.7148 4.37981 23.8584C4.16242 24.0021 3.90684 24.0788 3.64539 24.0788C3.29491 24.0784 2.95892 23.9405 2.7111 23.6954C2.46328 23.4503 2.32387 23.1179 2.32345 22.7713ZM3.64539 32.5775C3.38393 32.5775 3.12835 32.5008 2.91096 32.3572C2.69357 32.2135 2.52413 32.0093 2.42408 31.7704C2.32402 31.5315 2.29785 31.2686 2.34885 31.0149C2.39986 30.7613 2.52576 30.5283 2.71064 30.3455C2.89551 30.1626 3.13106 30.0381 3.38749 29.9876C3.64392 29.9372 3.90972 29.9631 4.15127 30.062C4.39282 30.161 4.59928 30.3286 4.74453 30.5436C4.88979 30.7586 4.96732 31.0114 4.96732 31.27C4.9669 31.6167 4.82749 31.949 4.57967 32.1941C4.33185 32.4392 3.99586 32.5771 3.64539 32.5775ZM8.27215 37.1537C8.0107 37.1537 7.75511 37.0771 7.53772 36.9334C7.32033 36.7897 7.1509 36.5855 7.05084 36.3466C6.95079 36.1077 6.92461 35.8448 6.97562 35.5912C7.02662 35.3375 7.15253 35.1046 7.3374 34.9217C7.52228 34.7389 7.75782 34.6143 8.01425 34.5639C8.27068 34.5134 8.53648 34.5393 8.77803 34.6383C9.01958 34.7372 9.22604 34.9048 9.3713 35.1198C9.51655 35.3349 9.59408 35.5877 9.59408 35.8463C9.59367 36.1929 9.45426 36.5252 9.20644 36.7703C8.95862 37.0155 8.62262 37.1533 8.27215 37.1537ZM9.9553 33.8312L11.2249 31.2462C11.3416 31.2618 11.4592 31.2698 11.577 31.27C12.1568 31.2705 12.7206 31.0814 13.1805 30.7321L18.4006 34.8166C18.3416 34.9529 18.2944 35.0939 18.2596 35.2382L10.8351 35.2044C10.6965 34.6659 10.3884 34.185 9.9553 33.8312ZM19.5086 35.8463C19.5086 35.5877 19.5861 35.3349 19.7314 35.1198C19.8766 34.9048 20.0831 34.7372 20.3246 34.6383C20.5662 34.5393 20.832 34.5134 21.0884 34.5639C21.3448 34.6143 21.5804 34.7389 21.7653 34.9217C21.9501 35.1046 22.076 35.3375 22.127 35.5912C22.178 35.8448 22.1519 36.1077 22.0518 36.3466C21.9518 36.5855 21.7823 36.7897 21.5649 36.9334C21.3475 37.0771 21.092 37.1537 20.8305 37.1537C20.48 37.1533 20.144 37.0155 19.8962 36.7703C19.6484 36.5252 19.509 36.1929 19.5086 35.8463ZM25.4573 43.6912C25.1958 43.6912 24.9402 43.6146 24.7228 43.4709C24.5055 43.3272 24.336 43.123 24.236 42.8841C24.1359 42.6452 24.1097 42.3823 24.1607 42.1287C24.2117 41.875 24.3376 41.6421 24.5225 41.4592C24.7074 41.2763 24.9429 41.1518 25.1994 41.1014C25.4558 41.0509 25.7216 41.0768 25.9632 41.1758C26.2047 41.2747 26.4112 41.4423 26.5564 41.6573C26.7017 41.8723 26.7792 42.1251 26.7792 42.3837C26.7788 42.7304 26.6394 43.0627 26.3916 43.3078C26.1437 43.5529 25.8077 43.6908 25.4573 43.6912ZM35.3718 43.6912C35.1103 43.6912 34.8547 43.6146 34.6373 43.4709C34.4199 43.3272 34.2505 43.123 34.1505 42.8841C34.0504 42.6452 34.0242 42.3823 34.0752 42.1287C34.1262 41.875 34.2521 41.6421 34.437 41.4592C34.6219 41.2763 34.8574 41.1518 35.1139 41.1014C35.3703 41.0509 35.6361 41.0768 35.8776 41.1758C36.1192 41.2747 36.3257 41.4423 36.4709 41.6573C36.6162 41.8723 36.6937 42.1251 36.6937 42.3837C36.6933 42.7304 36.5539 43.0627 36.3061 43.3078C36.0582 43.5529 35.7222 43.6908 35.3718 43.6912ZM35.3718 39.7687C34.7777 39.7696 34.2012 39.9679 33.7349 40.3319C33.2687 40.696 32.9397 41.2045 32.8009 41.7758H28.0401L35.5354 37.741C35.7026 37.8985 35.8899 38.0338 36.0926 38.1435L35.5535 39.7756C35.4933 39.7715 35.4329 39.7687 35.3718 39.7687ZM37.3547 37.1537C37.0932 37.1537 36.8376 37.0771 36.6202 36.9334C36.4028 36.7897 36.2334 36.5855 36.1334 36.3466C36.0333 36.1077 36.0071 35.8448 36.0581 35.5912C36.1091 35.3375 36.235 35.1046 36.4199 34.9217C36.6048 34.7389 36.8403 34.6143 37.0968 34.5639C37.3532 34.5134 37.619 34.5393 37.8605 34.6383C38.1021 34.7372 38.3086 34.9048 38.4538 35.1198C38.5991 35.3349 38.6766 35.5877 38.6766 35.8463C38.6762 36.1929 38.5368 36.5252 38.289 36.7703C38.0411 37.0155 37.7051 37.1533 37.3547 37.1537Z" fill="#404447"/>
</svg>
