<svg width="37" height="37" viewBox="0 0 37 37" fill="none" xmlns="http://www.w3.org/2000/svg">
<g clip-path="url(#clip0_103_331)">
<path d="M2.16797 34.9766H30.6906V35.6631C30.6906 35.9235 30.7687 36.178 30.9149 36.3935C31.061 36.609 31.2685 36.7756 31.5105 36.8719C31.7524 36.9682 32.0177 36.9896 32.2719 36.9335C32.5262 36.8773 32.7578 36.7462 32.9366 36.5569C33.8501 35.5897 36.5939 32.691 36.5939 32.691C36.8224 32.4495 36.9497 32.1296 36.9497 31.7971C36.9497 31.4646 36.8224 31.1447 36.5939 30.9032L33.0289 27.1344C34.4233 24.7144 35.1905 21.9841 35.2604 19.192C35.3303 16.3999 34.7009 13.6346 33.4293 11.1479C32.1577 8.66115 30.2844 6.53192 27.9798 4.95401C25.6753 3.37609 23.0127 2.39959 20.2344 2.11339V1.4049C20.2343 1.14453 20.1562 0.890161 20.01 0.674704C19.8638 0.459246 19.6563 0.292617 19.4144 0.196375C19.1725 0.100133 18.9072 0.0787081 18.653 0.134872C18.3988 0.191036 18.1672 0.322205 17.9884 0.511406L16.4338 2.1553C13.5415 2.51136 10.7922 3.61605 8.45759 5.36017C6.12302 7.1043 4.28402 9.42747 3.12237 12.1001C1.96072 14.7727 1.51663 17.7021 1.834 20.5989C2.15137 23.4957 3.21922 26.2596 4.93198 28.6172H2.16797C1.59318 28.6179 1.0421 28.8465 0.635659 29.2529C0.229219 29.6593 0.000612134 30.2104 0 30.7852L0 32.8087C0.000612134 33.3834 0.229219 33.9345 0.635659 34.341C1.0421 34.7474 1.59318 34.976 2.16797 34.9766ZM18.6179 1.10803C18.6775 1.04482 18.7546 1.00093 18.8394 0.982063C18.9241 0.963192 19.0126 0.970203 19.0933 1.00219C19.174 1.03417 19.2433 1.08966 19.2921 1.16146C19.341 1.23326 19.3671 1.31807 19.3672 1.4049V2.50912C19.3668 2.61844 19.4078 2.72386 19.4819 2.80426C19.556 2.88466 19.6577 2.93411 19.7667 2.94271C22.4356 3.15326 25.008 4.03513 27.2447 5.50634C29.4814 6.97755 31.3099 8.99036 32.5602 11.3577C33.8106 13.725 34.4421 16.37 34.3962 19.0468C34.3502 21.7236 33.6283 24.3454 32.2975 26.6684C32.1062 26.6221 31.9069 26.6198 31.7146 26.6616C31.5223 26.7035 31.342 26.7885 31.1873 26.9102C31.0326 27.0319 30.9075 27.1871 30.8215 27.3641C30.7354 27.5411 30.6907 27.7353 30.6906 27.9322V28.6172H23.4054C25.516 27.5635 27.2313 25.8584 28.2977 23.7541C29.364 21.6499 29.7247 19.2583 29.3264 16.9331C28.9281 14.608 27.7919 12.4728 26.086 10.8434C24.38 9.21408 22.195 8.17713 19.854 7.88597C19.7931 7.87895 19.7314 7.88482 19.6729 7.9032C19.6145 7.92159 19.5605 7.95207 19.5146 7.99266C19.4687 8.03326 19.4319 8.08306 19.4065 8.13883C19.3811 8.19461 19.3677 8.2551 19.3672 8.31638V9.57959C19.3671 9.66634 19.341 9.75108 19.2922 9.82284C19.2435 9.8946 19.1743 9.95008 19.0937 9.98211C19.0131 10.0141 18.9247 10.0213 18.84 10.0025C18.7553 9.98379 18.6781 9.94008 18.6185 9.87703L14.752 5.78795C14.6754 5.7081 14.6328 5.60166 14.6332 5.49103C14.6335 5.3804 14.6767 5.2742 14.7537 5.1948L18.6179 1.10803ZM20.8903 28.6172H16.1097C13.875 28.0743 11.892 26.786 10.4876 24.9648C9.08328 23.1437 8.34141 20.8983 8.38434 18.599C8.42726 16.2996 9.25243 14.0835 10.7238 12.316C12.1951 10.5485 14.2248 9.3352 16.4783 8.87601L17.9889 10.4737C18.1679 10.6627 18.3994 10.7937 18.6536 10.8497C18.9078 10.9057 19.173 10.8842 19.4148 10.7879C19.6566 10.6916 19.864 10.525 20.0101 10.3096C20.1562 10.0942 20.2343 9.83988 20.2344 9.57959V8.81906C22.5249 9.21763 24.6083 10.3929 26.134 12.1472C27.6597 13.9016 28.5346 16.1278 28.6116 18.4515C28.6886 20.7752 27.9629 23.0545 26.5567 24.9059C25.1504 26.7573 23.1494 28.068 20.8903 28.6172ZM2.60156 18.7891C2.59846 15.1 3.87999 11.525 6.22604 8.67797C8.57209 5.83097 11.8363 3.88969 15.4579 3.18755L14.1253 4.59615C13.8944 4.83654 13.7653 5.15684 13.765 5.49016C13.7647 5.82348 13.8932 6.14403 14.1236 6.38487L15.7871 8.1441C13.6156 8.69733 11.6651 9.90153 10.1976 11.5951C8.73004 13.2887 7.8156 15.3906 7.57697 17.6188C7.33835 19.847 7.78695 22.0949 8.86258 24.0609C9.93822 26.0268 11.5894 27.6167 13.5946 28.6172H6.02117C3.81204 25.817 2.60774 22.3558 2.60156 18.7891ZM0.867187 30.7852C0.86757 30.4403 1.00474 30.1097 1.2486 29.8658C1.49246 29.622 1.8231 29.4848 2.16797 29.4844H31.1242C31.2392 29.4844 31.3495 29.4388 31.4308 29.3574C31.5121 29.2761 31.5578 29.1658 31.5578 29.0508V27.9307C31.5578 27.8439 31.5839 27.7592 31.6326 27.6874C31.6814 27.6156 31.7505 27.56 31.8312 27.528C31.9118 27.4959 32.0002 27.4888 32.085 27.5075C32.1697 27.5262 32.2469 27.5699 32.3065 27.633L35.964 31.4989C36.0401 31.5794 36.0825 31.686 36.0825 31.7968C36.0825 31.9076 36.0401 32.0142 35.964 32.0947L32.3065 35.9606C32.2469 36.0237 32.1697 36.0674 32.085 36.0861C32.0002 36.1048 31.9118 36.0977 31.8312 36.0656C31.7505 36.0336 31.6814 35.978 31.6326 35.9062C31.5839 35.8344 31.5578 35.7496 31.5578 35.6629V34.543C31.5578 34.428 31.5121 34.3177 31.4308 34.2364C31.3495 34.1551 31.2392 34.1094 31.1242 34.1094H2.16797C1.8231 34.1091 1.49246 33.9719 1.2486 33.728C1.00474 33.4842 0.86757 33.1535 0.867187 32.8087V30.7852Z" fill="#404447"/>
<path d="M21.2515 14.3185C20.2222 15.3132 17.0957 18.2567 17.0957 18.2567L15.7882 16.9495C15.5969 16.7459 15.3667 16.5828 15.1111 16.4699C14.8555 16.3569 14.5799 16.2965 14.3005 16.2921C14.0212 16.2878 13.7438 16.3396 13.4848 16.4445C13.2259 16.5494 12.9906 16.7053 12.7931 16.9028C12.5955 17.1004 12.4396 17.3356 12.3347 17.5946C12.2298 17.8535 12.178 18.1309 12.1824 18.4103C12.1867 18.6897 12.2472 18.9653 12.3601 19.2209C12.473 19.4764 12.6362 19.7067 12.8398 19.898L15.5804 22.6426C15.9633 23.0296 16.4829 23.2505 17.0272 23.2579C17.5715 23.2652 18.0969 23.0584 18.4901 22.6819L24.121 17.347C24.3235 17.1595 24.4868 16.9337 24.6014 16.6826C24.716 16.4316 24.7797 16.1603 24.7887 15.8845C24.7977 15.6086 24.7519 15.3338 24.654 15.0757C24.556 14.8177 24.4078 14.5817 24.218 14.3814C24.0282 14.1811 23.8005 14.0204 23.5482 13.9087C23.2958 13.797 23.0238 13.7364 22.7479 13.7306C22.472 13.7247 22.1977 13.7737 21.9408 13.8746C21.6839 13.9755 21.4496 14.1264 21.2515 14.3185ZM23.5247 16.7177L17.8946 22.0524C17.6649 22.2724 17.3579 22.3933 17.0398 22.389C16.7217 22.3847 16.4181 22.2556 16.1944 22.0295L13.4514 19.286C13.2229 19.0574 13.0946 18.7473 13.0946 18.424C13.0947 18.1008 13.2232 17.7907 13.4519 17.5622C13.6805 17.3337 13.9906 17.2053 14.3139 17.2054C14.6372 17.2055 14.9472 17.334 15.1757 17.5626L16.7814 19.1684C16.8613 19.2482 16.9692 19.2938 17.0822 19.2953C17.1951 19.2968 17.3042 19.2542 17.3862 19.1765C17.3862 19.1765 20.7422 16.0141 21.8478 14.9478C22.0834 14.7307 22.395 14.615 22.7152 14.6259C23.0354 14.6367 23.3385 14.7732 23.5589 15.0058C23.7792 15.2384 23.8991 15.5483 23.8927 15.8687C23.8862 16.189 23.7539 16.4939 23.5244 16.7174L23.5247 16.7177Z" fill="#404447"/>
</g>
<defs>
<clipPath id="clip0_103_331">
<rect width="37" height="37" fill="white"/>
</clipPath>
</defs>
</svg>
