<svg width="39" height="43" viewBox="0 0 39 43" fill="none" xmlns="http://www.w3.org/2000/svg">
<g clip-path="url(#clip0_147_2091)">
<path fill-rule="evenodd" clip-rule="evenodd" d="M5.33654 31.7527C5.33654 31.6211 5.30769 31.4163 5.19231 31.3139C5.00481 31.665 4.60096 31.6503 4.39904 31.548C4.35577 31.6503 4.38462 31.9429 4.51442 32.016C4.75962 32.1476 5.16346 32.1476 5.33654 31.7527ZM4.77404 32.2061C4.39904 33.3762 6.27404 33.0105 5.32212 32.0306C5.17788 32.1184 4.88942 32.2354 4.77404 32.2061ZM3.375 26.3997C3.375 26.2973 3.27404 26.2388 3.15865 26.2241C2.98558 26.4435 2.79808 26.3997 2.72596 26.3704C2.625 26.4435 2.625 26.5313 2.68269 26.6629C2.87019 26.7214 3.15865 26.7946 3.375 26.3997ZM2.75481 26.1364C2.75481 26.2095 2.82692 26.2827 2.89904 26.2827C2.97115 26.2827 3.04327 26.2095 3.04327 26.1364C3.04327 26.0633 2.97115 25.9901 2.89904 25.9901C2.82692 25.9901 2.75481 26.0633 2.75481 26.1364ZM5.10577 31.1823L3.27404 26.6922C3.1875 26.7799 3.07212 26.7946 2.98558 26.7946L4.41346 31.3578C4.6875 31.6065 4.97596 31.4456 5.10577 31.1823ZM4.88942 33.069C4.71635 33.1568 4.75962 33.4786 5.00481 33.5517C5.45192 33.581 5.61058 33.5224 6.04327 33.2153C6.08654 32.9374 6.04327 32.8058 5.76923 32.7765C5.65385 32.9959 5.09135 33.1568 4.88942 33.069ZM21.8942 23.0503C21.8365 23.0503 21.6635 23.0065 21.5337 22.9626L21.6058 23.1235C21.7067 23.1381 21.851 23.1966 21.9231 23.1966L21.8942 23.0503ZM33.1731 31.4748L33.1154 33.069L34.7019 33.2738C34.5144 32.5133 33.8942 31.548 33.1731 31.4748ZM6.59135 38.0272C6.5625 38.2905 6.62019 38.7439 7.00961 38.7439C7.45673 38.817 7.83173 38.5976 8.00481 38.4367C8.17788 38.2758 8.01923 37.881 7.83173 37.6908C7.44231 38.4075 7.09615 38.2173 6.59135 38.0272ZM7.25481 38.9048C7.55769 39.5337 8.22115 39.1388 7.99038 38.6415C7.83173 38.7731 7.44231 38.9048 7.25481 38.9048ZM33.7644 35.5847C33.5192 35.4384 33.3317 35.5262 33.2452 35.9211C33.1442 36.0527 32.9567 36.1405 32.5529 36.2721C32.149 36.3891 31.9615 36.5939 31.774 36.7255C31.774 36.7255 31.8462 36.8425 31.9904 36.784C32.1346 36.7109 32.7115 36.667 32.8702 36.5354C33.0144 36.4184 33.2452 36.2282 33.4183 36.1259C33.6346 36.1844 34.024 35.731 33.7644 35.5847ZM3 25.9024C3.08654 25.8293 3.14423 25.6976 3.14423 25.5806C3.14423 25.3466 2.95673 25.1565 2.72596 25.1565C2.50962 25.1565 2.32212 25.3466 2.32212 25.5806C2.32212 25.8146 2.50962 26.0048 2.69712 25.9901C2.72596 25.8878 2.89904 25.8 3 25.9024ZM15.2308 25.9901C15.375 26.0048 15.6058 25.3905 15.6058 25.3905C15.6058 25.3905 15.6635 25.7707 15.5625 25.9901C15.8077 25.9024 16.0096 25.3612 16.0096 25.3612C16.0096 25.3612 16.0529 25.7415 15.9663 25.9609C16.4712 25.8 16.4423 24.5568 16.7885 24.3228C16.5721 24.5129 17.25 25.7708 16.4856 25.9755C16.5721 26.268 16.4135 27.248 16.1971 27.5112C16.0096 27.7891 16.1971 27.833 16.2115 27.8915C16.2548 27.9207 16.1394 28.2425 16.1394 28.3595C16.5433 28.6813 16.8029 28.3449 16.8029 28.3156C16.8029 28.2864 16.7452 28.0963 16.6875 27.9939C16.5288 27.3211 16.9904 26.6776 17.0625 26.5752C17.1346 26.4582 17.8846 26.1656 17.9712 26.1218C18.0433 26.0779 18.1875 26.268 18.2019 26.3558C18.2163 26.4728 18.0577 26.5313 18.0865 26.6922C18.101 26.8531 18.649 27.1895 18.649 27.1895C18.649 27.1895 18.9808 27.4673 19.0096 27.599C19.0385 27.716 19.125 27.7306 19.1971 27.7452C19.2548 27.7599 19.4135 27.9061 19.4279 27.9939C19.6875 28.2133 19.9183 28.184 19.9327 28.1548C19.9327 28.1548 19.9038 27.8622 19.9038 27.833C19.8606 27.7014 19.601 27.5551 19.3846 27.4527C19.3125 27.3065 18.8942 26.7799 18.7933 26.6629C18.6635 26.5459 18.7356 26.4582 18.8077 26.4143C18.8798 26.3704 19.1683 26.0048 19.2548 25.8585L19.9183 27.4235C19.9471 27.482 19.9471 27.6575 19.9327 27.7306C20.351 28.7105 19.3413 28.1694 19.3413 28.067C19.3413 27.9792 19.2548 27.8476 19.125 27.8476C17.4952 26.7507 17.1058 27.7452 17.2933 28.2279C17.1779 28.2864 16.976 28.3888 16.875 28.3888C16.4712 28.7983 16.1106 28.5204 16.0385 28.418C15.5625 28.4327 15.5625 27.9061 15.6202 27.3211C14.5385 29.2956 16.9471 29.0177 17.3654 28.6959C17.3077 28.7398 17.4087 28.9153 17.4952 28.9299C17.5962 29.0323 17.7837 29.1054 17.9423 29.1054C17.899 29.1493 17.9279 29.2517 18.0144 29.3102L18.1875 29.2371C18.2885 29.2371 18.6635 29.3248 18.6923 29.4418L18.5481 29.5442C18.5337 29.5735 18.5625 29.6905 18.6923 29.7636L18.8798 29.6466C18.9087 29.6758 19.2548 29.749 19.2837 29.866L19.1971 29.983C19.2115 30.0415 19.2692 30.1146 19.399 30.1146L20.2933 29.3248C20.5673 29.5442 20.9712 29.4418 20.9423 29.2225L21.7788 29.9099C21.851 29.9099 21.9663 29.8221 22.0096 29.6905L21.8365 29.5296C21.8077 29.3687 22.0817 29.2078 22.2404 29.2371L22.4567 29.3833C22.5 29.3833 22.5865 29.2663 22.601 29.1347L22.4135 29.0031C22.4423 28.8276 22.5 28.769 22.6298 28.7398L22.8317 28.7983C22.8606 28.7837 22.9038 28.652 22.8894 28.5643L22.7019 28.5204C22.6587 28.4327 22.774 28.2133 22.8462 28.0231C22.8462 28.0231 22.976 28.0378 22.976 27.9939C22.9904 27.95 22.9904 27.833 22.9327 27.7599L22.1394 27.8769C22.1394 27.95 22.2404 28.1986 22.2837 28.2279C22.3125 28.2718 22.4856 28.5789 22.5 28.6959L21.75 28.7105C21.6779 28.6813 21.7067 28.3888 21.7356 28.2718L21.6346 27.9354L20.625 28.0816C20.625 28.0816 20.524 27.5844 20.4663 27.6575C20.4087 27.7306 20.1923 26.7653 19.9471 26.9408L19.7452 26.4289C19.8462 26.385 20.4375 26.502 20.6538 26.4728C20.6106 26.2973 20.3221 26.0779 20.0769 25.9755C19.6298 25.9901 19.7308 25.8 19.7452 25.8C19.7308 25.8 20.149 25.7122 20.3942 25.6391C20.6538 25.7122 21.0288 26.3997 21.1298 26.619C21.0865 27.0724 21.3173 27.1017 21.4327 27.1748C21.5481 27.248 21.7644 28.301 21.7644 28.301C21.7644 28.3156 21.7067 28.5204 21.7644 28.6667H22.3558C22.3558 28.6667 22.2548 28.4034 22.1106 28.2864L21.7644 27.0139C21.8654 26.6629 21.7644 26.4143 21.6202 26.3412C21.476 26.268 21.5625 26.151 21.5192 25.7707C21.7644 25.5221 22.3413 25.3905 22.6731 25.2881C22.6731 25.2881 22.8173 25.4344 22.8317 25.4344C22.8173 25.4344 22.6587 25.9463 22.601 26.2095L22.3702 25.9755L22.0962 26.5605C22.7452 26.9847 23.0625 26.0779 23.1058 25.4197C23.5385 25.1272 23.2933 24.5275 22.7452 24.8201C22.7452 24.8201 22.2548 24.8347 21.9952 24.8493C22.0096 23.9133 21.0144 22.5823 21.476 22.0704C21.2596 22.7724 22.0673 22.7578 21.9519 23.2259C22.6875 23.5622 22.6731 23.0357 22.6875 22.9333C22.7019 22.8456 22.601 22.3483 22.5 22.1874C22.4279 22.0265 22.5577 21.6901 22.399 21.4415L22.6875 21.1782L22.2115 21.0173L22.2837 20.798L22.0673 20.7833C21.5913 19.9204 20.8269 20.3153 20.8269 20.3153C20.8269 20.3153 21 20.3738 21.1442 20.4908C20.9567 20.4616 20.0913 20.8272 20.0913 20.8272C20.0913 20.8272 20.351 20.8711 20.5962 20.9588L19.9038 21.4269L20.0625 21.4854L19.774 21.7925C19.774 21.7925 19.5865 21.7486 19.3702 21.7925C19.1538 21.3684 18.851 20.9296 19.125 20.9003L19.5288 20.9735C20.5385 19.1599 18.5048 19.5548 18.1587 19.9935C17.7981 20.4323 18.0721 20.5054 18.3029 20.4177L18.5048 20.6517C18.274 20.8418 17.5817 20.4616 17.3942 20.4616C17.2067 20.4616 17.2067 20.3153 17.25 20.1544C17.2788 19.9935 17.2067 19.584 16.8894 19.5255L16.7019 19.1599L16.5288 19.2476L16.7019 19.6571C16.5433 19.7303 16.5288 20.0374 16.7308 20.4469C16.7308 20.4469 15.7644 21.0466 15.3606 21.4707L15.649 21.7779L16.3413 21.1344L16.4423 21.1782L15.5048 22.1289L15.9519 22.4361L16.6154 21.8071H16.7452L15.9231 22.6847L16.3702 22.9041L17.1635 21.9241L17.2644 21.9388L16.6154 22.7871L17.25 22.8895L17.524 22.5384L17.899 22.6701L18 22.948L17.6827 22.9918L17.7837 23.6207C17.7837 23.6207 17.3221 23.7524 17.0048 23.9425C15.8365 22.4946 15.3029 25.098 15.2308 25.9901ZM16.5865 28.652C16.8029 28.6082 17.0337 28.4765 17.1635 28.4034L17.2067 28.5497C17.1346 28.5789 16.9038 28.652 16.5865 28.652ZM21.0433 29.1932L21.0865 28.9884L21.8221 29.7636L21.0433 29.1932ZM22.3846 29.2078L21.101 28.7983L21.0288 28.5935L22.3846 29.2078ZM21.0433 28.535L21.0288 28.3888L21.6202 28.4765L21.649 28.5789L21.0433 28.535ZM21.6058 28.0524L21.6202 28.1548L21.0288 28.301L20.9856 28.1401L21.6058 28.0524ZM20.8846 29.1347C20.9423 28.9884 20.7981 28.5789 20.6971 28.2718C20.8269 28.3595 21.0721 29.0323 20.8846 29.1347ZM17.7837 28.1548C17.7837 28.1548 17.7981 28.3742 17.8702 28.535L17.7404 28.5497C17.3654 27.5405 18.1731 27.8769 18.7788 28.2425C17.625 28.0085 17.7837 28.1548 17.7837 28.1548ZM18.375 28.2425V28.3595C18.375 28.3595 18.0865 28.3449 17.9135 28.3595L17.899 28.2133C18.0144 28.2133 18.3462 28.2279 18.375 28.2425ZM17.9567 27.4673L17.9856 27.5697C17.8702 27.5697 17.6538 27.6282 17.625 27.6721L17.5385 27.5697C17.6106 27.5112 17.7548 27.4381 17.9567 27.4673ZM17.4231 28.6959C17.3798 28.6667 17.351 28.4473 17.351 28.3303H17.4375C17.4375 28.4473 17.5096 28.652 17.5096 28.652L17.4231 28.6959ZM17.4663 28.1255L17.3654 28.1548C17.3221 28.0231 17.3798 27.8476 17.4375 27.7891L17.5096 27.8622L17.4663 28.1255ZM17.524 28.8129C17.9712 28.5497 18.8077 28.3156 19.1394 28.3595L19.226 28.4912C19.1394 28.4765 18.3029 28.535 17.524 28.8129ZM18.0288 29.1786L19.4135 28.6374L19.5144 28.769L18.0288 29.1786ZM18.6779 29.5588L19.7308 28.8568L19.8462 28.9592L18.6779 29.5588ZM20.1779 29.2517L19.3558 29.9245L20.0769 29.1493L20.1779 29.2517ZM22.0529 22.0997C22.024 22.1143 21.9808 22.085 21.9519 22.0265C21.9231 21.9534 21.9231 21.9095 21.9519 21.8803C21.9952 21.8803 22.0385 21.9095 22.0673 21.968C22.0962 22.0265 22.0962 22.085 22.0529 22.0997ZM22.399 21.9388C21.9519 21.6755 22.1394 21.5146 22.0817 21.3245C22.3558 21.8071 22.1827 21.6755 22.399 21.9388ZM22.1683 20.8418L22.0529 21.149L21.7644 20.8857L22.1683 20.8418ZM21.5913 25.5221H21.3894L21.2452 25.0833L21.4183 25.0541L21.5337 25.2735L21.8365 24.8347L21.9663 24.9517L21.5913 25.5221ZM21.75 24.1619C21.8221 24.1912 21.9519 24.469 21.8798 24.4983C21.7933 24.5276 21.7356 24.4983 21.5769 24.352C21.4183 24.2058 21.0721 24.0742 20.3365 24.235L20.2933 24.0888C20.625 24.0156 21.0433 23.9425 21.4471 24.0888C21.5192 24.0303 21.7067 24.0449 21.75 24.1619ZM20.1779 21.8218C20.2212 21.7486 20.3942 21.4854 20.5962 21.3684L20.4519 21.3245C20.4952 21.2514 20.7837 21.0612 20.9279 21.0173L20.7981 20.9881C20.9423 20.8565 21.3173 20.7541 21.5625 20.798V20.9003C20.7692 20.9735 20.5096 21.5731 20.2356 22.3483L20.1635 22.2605C20.149 22.1582 20.1923 21.9973 20.3077 21.8656L20.1779 21.8218ZM20.1058 22.3483C20.4087 22.4946 21.0288 22.8602 21.3173 22.8602L21.3894 23.0211C21.1875 23.0357 20.4231 22.6701 20.0337 22.4507L20.1058 22.3483ZM19.9904 22.4946C20.5817 22.9041 21.3173 23.299 21.5192 23.3136L21.5625 23.4599C21.4038 23.4599 20.6106 23.0503 19.976 22.6262L19.9904 22.4946ZM19.4856 22.2313C19.5721 22.319 19.7452 22.3337 19.8173 22.2605C19.8894 22.202 19.976 22.3044 19.9615 22.3483C19.9471 22.4214 19.9471 22.6701 19.8173 22.6408C19.7019 22.6408 19.4279 22.8163 19.4423 22.7578C19.4712 22.7139 19.4712 22.2167 19.4856 22.2313ZM19.5288 22.9626L19.6298 22.9041C19.6587 23.1527 19.8317 23.6939 20.1202 24.1619C20.4087 24.6446 20.2788 25.0833 19.8462 25.1418L19.7885 24.9517C20.0192 24.8932 20.3365 24.8639 19.9615 24.1765C19.9615 24.4544 19.9327 24.6592 19.7019 24.6153L19.6442 24.4398C19.8462 24.4252 19.9471 24.1765 19.601 23.5476C19.5144 23.533 19.5144 23.5476 19.4712 23.5476L19.4135 23.2697C19.5433 23.4306 19.6731 23.5622 19.5288 22.9626ZM19.2692 23.182C19.3125 23.3136 19.6154 24.4544 19.5865 24.7469C19.7163 24.8493 19.7885 25.4051 19.8029 25.6976L19.6442 25.7269C19.6587 25.2296 19.5433 24.9224 19.399 24.7762C19.5865 24.5129 19.3125 23.8401 19.1106 23.3429C18.5625 23.1966 18.851 23.1527 19.0962 23.1527C18.6058 22.8748 18.75 22.8456 19.0385 22.9918C19.3269 23.1527 19.024 22.6847 19.024 22.6847C19.024 22.6993 19.2548 22.7139 19.3413 22.6116C19.2692 22.7724 19.2115 22.831 19.2115 22.831C19.2115 22.831 19.2692 23.065 19.2692 23.182ZM19.0673 20.7102C19.024 20.681 18.9952 20.6371 19.0096 20.6371C19.0096 20.6224 19.0673 20.6224 19.1106 20.6371C19.1683 20.6663 19.1827 20.7102 19.1683 20.7248C19.1538 20.7541 19.1106 20.7395 19.0673 20.7102ZM19.5577 20.2276C19.6442 20.3007 19.4712 20.6956 19.3558 20.7687C19.3125 20.7833 19.226 20.7833 19.2837 20.6956C19.3125 20.6078 19.5144 20.4177 19.4856 20.3299C19.4423 20.2422 19.226 20.0813 19.1538 20.1252C19.0529 20.1544 18.9231 20.5054 18.8654 20.5786C18.8077 20.6371 18.75 20.5639 18.7356 20.5639C18.9375 20.0959 19.0385 19.701 19.5577 20.2276ZM19.1106 21.3684C19.0385 21.2221 18.7644 20.9881 18.6346 20.8418C18.851 20.9296 19.024 20.9881 19.1106 21.3684ZM18.4904 20.9296C18.8221 21.7779 18.7212 22.6554 18.4471 22.8602L18.4183 22.6993C18.6779 22.6408 18.6346 21.383 18.4904 20.9296ZM18.4615 21.7048L18.3462 21.734C18.2452 21.4415 18.1731 21.5585 17.8413 21.5731L17.8125 21.4561C18.2308 21.3976 18.375 21.3391 18.4615 21.7048ZM18.0577 20.7395L18.1875 20.8126C18.0288 20.798 17.7981 20.9296 17.6394 21.0027L17.6106 20.8857C17.726 20.7833 17.9856 20.7248 18.0577 20.7395ZM16.774 20.6371L16.8462 20.7102C16.8462 21.2075 16.8173 21.5293 17.4375 21.4269L17.4663 21.5585C16.6875 21.5878 16.7163 21.2514 16.774 20.6371ZM17.1635 20.3738L17.3942 20.6078L19.6875 26.3119L19.2837 25.6976L17.1635 20.3738ZM18.0577 23.7378C18.2163 24.6884 18.3029 24.8347 18.7644 24.7177L18.8221 24.8639C18.8221 24.8639 18.4183 24.8786 18.2885 24.8347C18.1731 24.7908 18.2019 25.0833 18.2308 25.1565C18.2452 25.2442 18.6779 25.2296 18.9519 25.1711L18.9952 25.2881C18.9375 25.332 18.4183 25.3466 18.3173 25.332C18.2308 25.3173 18.274 25.4782 18.3029 25.566C18.3462 25.6391 18.6923 25.7122 19.125 25.7122L19.1683 25.8293C19.0529 25.8731 18.5913 25.8 18.4183 25.7269C18.2452 25.6684 18.1731 25.7269 18.0721 25.9755L17.9856 25.9024C18.3173 25.4636 18.0721 24.5861 17.8846 23.7085L18.0577 23.7378ZM39 15.8837C38.3365 15.5765 37.8173 15.5327 36.6346 15.7959C37.1538 15.4156 38.2067 14.1139 38.4087 13.2949C37.226 13.2071 36.4615 13.6167 35.8125 13.8653C37.8462 12.2565 37.9327 11.2765 37.7163 9.85782C36.6779 10.9255 33.4471 13.5143 33.4615 13.5143C33.4471 13.5143 35.0913 11.7884 36.274 10.3551C37.4712 8.90714 36.9375 7.50306 36.1875 6.46463C36.0433 7.19592 34.0962 10.2381 32.524 11.6129L32.4231 11.335C32.3654 11.7153 31.2981 13.2071 30.649 13.7483L30.5337 13.485C30.2019 14.0116 28.2548 15.7082 27.4327 16.5565C26.625 17.4194 26.9279 18.2531 27.4183 18.7065C27.9231 19.1599 28.1394 19.6425 27.5625 20.4323C27.0144 21.2514 25.4712 21.1344 24.7788 20.2129C26.2212 19.6279 26.0769 18.7211 25.7308 18.0044C24.8654 19.2769 24.3317 18.7357 23.5962 18.0483C24.3894 18.0337 24.8365 17.6241 25.1394 17.0391C23.6683 17.2293 23.2067 16.6442 22.9904 15.7228C22.7596 14.816 23.6827 13.7629 24.7644 13.0316C24.7933 13.0316 25.0385 13.1779 25.2115 13.1486C25.399 13.1486 25.6154 12.8561 25.8606 12.7391C26.9423 12.5636 27.4904 13.0316 27.375 14.1724C27.7644 13.9677 27.8221 13.3242 27.6923 12.9146C27.5481 12.5197 27.2019 12.4612 27.2452 12.4027C27.3029 12.3442 27.7356 12.6367 28.125 13.0024C28.5 13.3827 29.3654 13.3827 29.726 13.2218C30.0865 13.0463 30.2885 12.4905 30.3894 11.9639C30.1298 12.432 29.4663 12.666 29.0625 12.6367C28.6875 12.5929 27.9231 12.0224 27.2452 11.8762C27.8077 11.3789 28.5865 11.7299 29.0913 12.1248C30.1298 10.7061 29.351 10.0918 28.8173 9.82857C28.2837 9.55068 28.1394 9.77007 28.0096 9.69694C27.8942 9.63844 27.7356 9.41905 27.4615 9.33129V9.17041C28.5288 9.15578 29.0769 8.68775 29.5673 8.27823C30.0721 7.86871 29.899 6.78639 29.7115 6.24524C29.5385 5.68946 29.899 5.61633 30.0865 5.71871C30.2596 5.82109 31.226 6.17211 31.226 6.17211C31.226 6.17211 31.3125 6.24524 31.4135 6.58163C31.5 6.91803 31.4567 7.10816 31.3125 7.31293C31.1683 7.51769 30.7788 7.98571 30.75 8.57075C30.7212 9.18503 31.1538 9.5068 31.1971 9.91633C31.2548 10.3551 30.75 10.5891 30.75 10.5891C30.75 10.5891 30.9231 10.7354 31.1971 10.7061C31.4856 10.6915 32.0192 10.3259 32.1923 9.87245C32.351 9.43367 31.8173 8.86327 31.8173 8.86327C31.8173 8.86327 32.1635 9.06803 32.4375 9.08265C32.7115 9.12653 32.6827 8.98027 32.9279 9.0534C33.1587 9.12653 33.1875 9.47755 33.1875 9.47755C33.1875 9.47755 33.4038 9.31667 33.4904 9.03878C33.5625 8.76088 33.649 8.1466 32.9135 8.10272C32.1635 8.04422 32.3221 7.78095 32.7115 7.2983C33.1298 6.80102 33.1442 5.9966 32.3365 5.80646C31.5433 5.63095 31.1683 5.22143 30.8798 4.72415C30.5769 4.19762 29.8125 4.13912 28.8173 4.44626C27.851 4.7534 28.3413 6.08435 28.6442 6.8449C28.9615 7.59082 28.9471 7.83946 28.7596 8.21973C28.5577 8.58537 27.7933 8.80476 27.3173 8.80476V8.46837C27.7067 7.85408 27.9231 6.94728 27.7788 6.58163C27.649 6.21599 27.0144 6.02585 26.6394 6.04048C26.25 6.0551 26.25 6.0551 26.25 6.0551C26.5096 5.90884 26.5529 5.5432 26.2788 5.38231V5.0898H26.524V4.57789H26.2933V4.31463H25.7308V4.56327H25.5288V5.0898H25.7596V5.38231C25.5144 5.5432 25.5577 5.89422 25.7885 6.0551C25.7885 6.0551 25.7885 6.0551 25.4135 6.04048C25.0385 6.04048 24.3894 6.21599 24.2596 6.58163C24.1298 6.94728 24.3317 7.85408 24.7067 8.46837L24.6779 8.90714C23.3221 8.6585 22.9471 8.48299 21.4471 6.91803L21.4615 6.64014C22.3558 4.54864 22.4423 4.62177 22.4712 4.09524C22.4856 3.56871 22.4712 2.39864 20.4808 2.22313C20.4808 2.45714 20.1779 2.70578 19.9615 2.12075C20.2788 1.87211 20.3077 1.3017 19.976 1.22857L19.9038 0.848299L20.2644 0.979932V0.292517L19.8894 0.42415L20.0337 0H19.2692L19.3846 0.409524L19.024 0.263265V0.95068L19.3702 0.848299L19.2692 1.18469C18.9519 1.28707 18.9375 1.85748 19.2692 2.07687C19.0529 2.67653 18.75 2.41327 18.75 2.17925C16.774 2.32551 16.7019 3.46633 16.7019 3.99286C16.7308 4.51939 16.8029 4.46088 17.6538 6.56701V6.85952C16.125 8.36599 15.8221 8.52687 14.4663 8.74626V8.30748C14.8413 7.70782 15.0721 6.80102 14.9567 6.43537C14.8413 6.08435 14.1923 5.86497 13.8173 5.86497C13.4423 5.86497 13.4423 5.86497 13.4423 5.86497C13.6587 5.71871 13.7163 5.41156 13.4567 5.19218V4.88503H13.7163V4.3585H13.4856V4.10986H12.9663V4.3585H12.6923V4.88503H12.9231V5.17755C12.6202 5.38231 12.649 5.71871 12.9231 5.86497C12.9231 5.86497 12.8942 5.86497 12.5625 5.83571C12.1731 5.80646 11.524 5.98197 11.3942 6.33299C11.25 6.71326 11.4375 7.62007 11.8125 8.24898L11.7981 8.57075C11.3077 8.57075 10.5577 8.32211 10.3702 7.95646C10.1827 7.59082 10.1827 7.34218 10.5144 6.58163C10.8462 5.83571 11.3798 4.51939 10.399 4.19762C9.43269 3.87585 8.65385 3.9051 8.33654 4.41701C8.03365 4.92891 7.65865 5.29456 6.83654 5.47007C6.04327 5.63095 6.02885 6.43537 6.41827 6.94728C6.82212 7.44456 6.96635 7.6932 6.21635 7.73707C5.46635 7.76633 5.52404 8.38061 5.61058 8.6585C5.68269 8.95102 5.89904 9.11191 5.89904 9.11191C5.89904 9.11191 5.92788 8.76088 6.1875 8.68776C6.43269 8.61463 6.40385 8.76088 6.67788 8.74626C6.95192 8.73163 7.28365 8.5415 7.28365 8.5415C7.28365 8.5415 6.72115 9.08265 6.89423 9.53605C7.03846 9.98946 7.57212 10.3551 7.86058 10.3697C8.14904 10.4136 8.30769 10.282 8.30769 10.282C8.30769 10.282 7.81731 10.0333 7.86058 9.60918C7.93269 9.19966 8.37981 8.89252 8.36538 8.27823C8.33654 7.67857 7.97596 7.22517 7.83173 7.00578C7.70192 6.78639 7.64423 6.61088 7.75962 6.27449C7.86058 5.92347 7.96154 5.86497 7.96154 5.86497C7.96154 5.86497 8.92788 5.5432 9.10096 5.44082C9.27404 5.35306 9.64904 5.41156 9.46154 5.96735C9.25961 6.52313 9.07211 7.57619 9.54808 8.02959C10.0385 8.43912 10.5577 8.90714 11.6106 8.96565V9.14116C11.3365 9.21429 11.1923 9.43367 11.0625 9.47755C10.9471 9.55068 10.8029 9.33129 10.2692 9.57993C9.72115 9.8432 8.94231 10.399 9.92308 11.7884C10.4567 11.4082 11.2212 11.0864 11.7692 11.5837C11.1058 11.7153 10.3269 12.2711 9.92308 12.315C9.53365 12.3442 8.87019 12.081 8.63942 11.6129C8.72596 12.081 8.92789 12.6806 9.27404 12.8707C9.63462 13.0463 10.4856 13.0755 10.875 12.6952C11.2644 12.3296 11.6971 12.081 11.7548 12.1102C11.7981 12.1687 11.4519 12.2272 11.3221 12.6221C11.1635 13.0024 11.2212 13.6752 11.5962 13.8653C11.5385 12.7245 12.101 12.2565 13.1827 12.4612C13.4135 12.5782 13.6442 12.8854 13.8173 12.9C13.9904 12.9146 14.2356 12.7976 14.2644 12.7976C15.3173 13.5582 16.1394 14.6259 15.8798 15.5473C15.649 16.4687 15.2596 17.0245 13.7885 16.8051C14.0625 17.4048 14.4952 17.8143 15.274 17.8582C14.524 18.5163 13.9615 19.0429 13.1538 17.7412C12.7933 18.4578 12.6346 19.3646 14.0481 19.9935C13.3269 20.8857 11.7837 20.9442 11.2644 20.1252C10.7163 19.3207 10.9327 18.8527 11.4375 18.4139C11.9279 17.9752 12.2596 17.1415 11.4808 16.2493C10.6875 15.3718 8.78365 13.6459 8.45192 13.1048L8.36538 13.368C7.74519 12.7684 6.67788 11.2619 6.64904 10.8816L6.51923 11.1595C4.99038 9.82857 3.14423 6.74252 3 6.01122C2.23558 7.03503 1.65865 8.40986 2.8125 9.88707C3.96635 11.2473 5.55288 13.0316 5.55288 13.0316C5.56731 13.0463 2.4375 10.3844 1.41346 9.36054C1.16827 10.6769 1.22596 11.6568 3.20192 13.3241C2.56731 13.0463 1.80288 12.6221 0.620192 12.666C0.822115 13.4997 1.81731 14.8306 2.33654 15.2255C1.18269 14.933 0.663462 14.9476 0 15.2548C0.288462 15.8544 1.25481 16.9514 1.94712 17.2731C1.13942 17.3609 0.158654 17.8143 0.0288462 17.9459C0.375 18.4871 0.951923 18.9697 1.70192 19.2476C0.836538 19.6571 0.591346 19.935 0.461538 20.1398C0.850962 20.7395 1.32692 21.149 1.99038 21.2806C1.88942 21.3684 1.78846 21.4707 1.6875 21.5731C1.81731 21.7486 2.29327 21.968 2.32212 22.085C2.35096 22.1874 2.52404 21.968 2.56731 21.8218C2.55288 21.9095 3.07212 22.1289 2.88462 22.3922C2.97115 22.948 3.375 22.319 3.51923 22.0265C4.5 23.0211 3.59135 24.1912 3.60577 24.235C3.60577 24.2789 3.85096 24.4837 3.9375 24.6592C4.45673 24.3813 5.68269 23.5622 5.68269 23.5622C5.68269 23.5622 4.37019 24.5422 4.06731 24.9517C3.77885 25.4051 3.9375 26.1803 3.99519 26.2388C4.05288 26.3558 4.90385 26.5752 5.19231 26.2827C5.50962 25.9755 6.96635 24.1912 6.95192 24.2497C6.95192 24.3082 6.15865 25.3905 5.88462 25.9901C5.625 26.5898 6 27.482 6.12981 27.5697C6.31731 27.6575 7.3125 27.5697 7.47115 27.2626C7.61538 26.9554 8.65385 24.8786 8.65385 24.8786C8.66827 24.8786 7.91827 26.4582 7.875 26.9847C7.83173 27.5112 8.35096 28.2425 8.50961 28.2571C8.66827 28.301 9.57692 28.0524 9.67788 27.6721C9.79327 27.3065 10.2837 25.2881 10.2692 25.2881C10.2692 25.2881 10.024 26.6776 10.0962 27.0871C10.125 27.5551 10.774 27.8769 10.9038 28.0378C11.0192 28.301 11.1202 28.2133 11.2644 28.0378C11.3942 27.8915 12.1154 27.7745 12.0721 26.9408C12.0433 26.1071 12.0721 25.4782 12.0721 25.4782C12.0721 25.4782 12.5625 25.5075 12.8077 25.2735C13.0385 25.0541 13.1827 24.981 13.1827 24.981C13.1827 24.981 13.3846 25.4344 13.6731 25.449C13.976 25.4782 14.2212 25.566 14.2212 25.566L14.2644 28.2718C13.601 28.7837 13.0673 29.1054 12.1731 28.8568L12.3606 29.0762C11.0192 29.1786 10.1683 29.6758 10.3413 31.3578C10.5144 32.9959 9.67788 32.5279 9.66346 32.5133C9.67788 32.5133 10.0817 33.6395 11.3365 32.7619C11.524 33.2446 11.351 33.9027 11.25 34.0929C11.5962 33.9466 11.8846 33.6833 12 33.5371C12.0865 33.4054 12.101 33.7857 12.0433 33.9612C12 34.1367 12.4327 33.4932 12.476 33.3469C12.5337 33.1861 13.024 33.6833 12.5192 34.1075C12 34.5463 10.3413 35.0874 9.63462 35.1898C8.74039 35.3361 7.84615 35.4677 7.84615 34.5755C7.84615 33.7126 6.85096 33.6248 6.44712 34.0636C6.20192 33.8296 6.01442 33.4201 6.01442 33.4201C6.01442 33.4932 5.30769 33.7418 5.27885 33.698C5.25 33.7565 5.48077 34.4 5.35096 34.5463C5.22115 34.7218 4.57211 35.0289 4.62981 35.3214C4.58654 35.7748 5.0625 35.9211 5.13461 35.9357C4.99038 36.3599 5.4375 36.784 5.72596 36.6816C5.69712 37.4861 5.50962 37.2667 6.40385 37.7493C6.5625 37.8371 6.79327 37.7932 6.87981 37.881C6.96635 37.9687 7.54327 38.3929 7.77404 37.1058C8.12019 36.784 8.91346 36.2429 9.75 36.082C10.6875 35.9211 14.0913 35.1459 14.8558 35.0874C14.899 34.517 14.6394 33.9612 14.6394 33.9612C14.6394 33.9612 15.5192 33.7711 15.851 33.0837C15.3029 33.2007 14.7548 33.1129 14.726 32.4694C14.6971 31.8258 15.1731 31.2701 15.8654 31.3578C16.6731 31.431 17.4952 32.1037 17.4375 32.8643C17.4087 33.6102 16.8606 33.932 16.4567 34.1952C16.0817 34.4878 16.1106 35.0728 16.0962 35.0728C16.1106 35.0728 16.0673 34.868 16.3702 34.751C16.6731 34.6194 17.25 34.6048 17.25 34.5901C17.25 34.6048 17.25 34.7656 16.9471 34.9704C16.6442 35.2044 15.5481 35.6578 15.101 35.8772C14.5529 36.0966 13.7308 36.8425 13.4279 36.8133C13.125 36.8279 12.851 36.7401 12.8221 36.4915C12.8077 36.2575 12.9519 35.9357 12.9519 35.9357C12.9519 35.9357 12.274 36.0673 12.0433 36.4476C11.8125 36.8425 11.6971 37.6616 12.1875 37.9541C11.7404 38.4806 11.5817 39.4752 11.8125 40.0163C12.0433 40.5575 12 41.0401 12 41.0255C12 41.0255 12.4904 40.8646 12.5192 40.5136C12.5481 40.1918 12.9087 39.7384 12.8942 39.7384C12.9087 39.7384 12.8942 40.6891 13.4567 41.084C14.0048 41.4789 14.5817 41.7129 15.4038 40.9378C16.1971 41.8592 16.7019 42.4296 18.0433 41.9616C18.2308 42.2687 18.7788 42.8391 19.0817 42.9269C19.3846 42.8537 19.9615 42.4003 20.1779 42.0932C21.5048 42.5905 22.0096 42.0493 22.8317 41.1279C23.726 41.9177 24.3029 41.6837 24.8654 41.3034C25.4135 40.9378 25.4423 39.9871 25.4423 39.9871C25.4423 39.9871 25.774 40.4259 25.8173 40.7622C25.8462 41.1133 26.3365 41.3034 26.3365 41.2888C26.3365 41.2888 26.2933 40.8207 26.5529 40.2796C26.8125 39.7531 26.6683 38.7439 26.2356 38.2027C26.726 37.9395 26.625 37.0912 26.3942 36.6963C26.1779 36.316 25.5 36.1697 25.5 36.1697C25.5 36.1697 25.6442 36.4769 25.6154 36.7255C25.5865 36.9888 25.3125 37.0619 25.0096 37.0327C24.7067 37.0327 23.899 36.2721 23.3654 36.0381C22.8462 35.8041 21.7644 35.3507 21.4471 35.1167C21.1442 34.8827 21.1587 34.7071 21.1587 34.7071C21.1587 34.7071 21.7212 34.7656 22.0385 34.8827C22.3413 35.0289 22.2837 35.2044 22.2981 35.2044C22.2837 35.2044 22.3413 34.634 21.9519 34.3415C21.5625 34.049 21.0433 33.698 21.0144 32.9667C20.9712 32.2207 21.8221 31.548 22.6154 31.5041C23.3942 31.4602 23.8558 32.0014 23.7981 32.6449C23.7548 33.2738 23.1346 33.3616 22.601 33.2446C22.8894 33.932 23.8558 34.1514 23.8558 34.1514C23.8558 34.1514 23.5817 34.6925 23.625 35.2483C24.3894 35.3507 27.7788 36.1551 28.875 36.4184C29.3077 36.667 30.3029 37.2959 30.7356 37.3105C31.1538 37.3398 31.5433 37.0327 31.8462 36.9449C32.149 36.8718 32.4808 36.9156 32.726 36.8133C32.9567 36.7401 33.2019 36.3891 33.6923 36.2575C34.1538 36.1112 34.1538 35.7163 34.0962 35.4969C34.2981 35.3507 34.7019 34.7218 34.7885 34.6048C34.8462 34.5024 34.8606 34.6048 35.1058 34.5755C35.3654 34.5463 35.5096 33.5371 35.25 33.3908C34.9615 33.2446 35.1635 33.2738 35.0048 33.1568C34.8462 32.3963 34.2692 31.2262 33.1154 30.9776L32.9135 30.6119L33.4615 30.8313V29.6027L32.9135 29.8806L33.1442 29.3248H31.8894L32.0481 29.8806L31.4712 29.6027V30.8313L32.0769 30.6119L31.875 31.0068C30.7212 31.2554 30.101 32.1915 29.9279 32.952C29.9279 33.0105 29.7837 33.0252 29.625 33.1568C29.4663 33.3031 29.4663 34.3415 29.625 34.4C29.7692 34.4731 30.0144 34.4293 30.0577 34.517C30.101 34.6194 30.2596 34.9558 30.2596 34.9558C30.2596 34.9558 29.6538 35.5116 28.8894 35.4823C28.1394 35.4823 26.4808 34.8095 25.9904 34.3415C25.4712 33.9027 25.9904 33.4347 26.0481 33.581C26.0913 33.7272 26.4952 34.4 26.4808 34.2245C26.4375 34.0344 26.4375 33.6687 26.5385 33.8003C26.625 33.932 26.9135 34.2245 27.2596 34.3854C27.1442 34.2099 26.9856 33.5371 27.1875 33.0398C28.4279 33.9466 28.875 32.835 28.875 32.8204C28.875 32.835 28.0096 33.2884 28.2404 31.6503C28.4567 29.9976 27.6202 29.4418 26.2788 29.3248L26.4663 29.1201C25.5865 29.3541 25.0385 29.0031 24.4038 28.4912L24.4904 25.7707C24.4904 25.7707 24.7644 25.6976 25.0529 25.683C25.3558 25.6537 25.5577 25.2296 25.5577 25.2296C25.5577 25.2296 25.7019 25.3027 25.9327 25.5367C26.1635 25.7561 26.6538 25.7561 26.6538 25.7561C26.6538 25.7561 26.6683 26.3997 26.625 27.2187C26.5673 28.0524 27.2885 28.1986 27.4183 28.3449C27.5625 28.5058 27.6635 28.5935 27.7788 28.3449C27.8798 28.1109 28.5433 27.833 28.6298 27.4235C28.7019 26.9993 28.4856 25.6099 28.4856 25.6099C28.4856 25.6099 28.9183 27.6429 29.0192 28.0085C29.1202 28.3741 30.0144 28.6374 30.1731 28.6082C30.3173 28.5935 30.8654 27.8915 30.8365 27.3503C30.8077 26.8238 30.101 25.215 30.1154 25.215C30.101 25.215 31.0817 27.3211 31.226 27.6429C31.3702 27.9354 32.3654 28.067 32.5529 27.9793C32.6971 27.9061 33.0865 27.0139 32.8413 26.3997C32.5817 25.8 31.8317 24.7031 31.8173 24.6446C31.8173 24.5861 33.2163 26.3997 33.5192 26.7214C33.8221 27.0286 34.6587 26.8092 34.7452 26.7214C34.8029 26.6483 34.976 25.8878 34.7019 25.4344C34.399 24.9956 33.1154 23.9864 33.1154 23.9864C33.1154 23.9864 33.7067 24.352 34.5865 24.9956C35.4087 25.6391 35.6971 25.3759 36.375 25.2296C36.4615 24.9663 36.375 24.235 35.9712 23.6061C37.0385 23.65 37.3125 23.416 37.7308 23.1088C37.7019 22.8895 37.3702 22.1728 36.8942 21.7779C37.5577 21.6463 38.0337 21.266 38.4375 20.681C38.3221 20.4616 38.0769 20.1837 37.2404 19.7595C37.9904 19.4963 38.5673 19.0575 38.9423 18.5017C38.8125 18.3847 37.8462 17.8874 37.024 17.785C37.6731 17.5364 38.6971 16.4687 39 15.8837ZM31.9327 10.0041C31.9038 9.43367 31.1971 9.24354 31.4856 8.6C31.4856 9.15578 32.1779 9.19966 31.9327 10.0041ZM28.9327 6.97653C28.4279 5.74796 28.1683 4.68027 29.0337 4.89966C29.899 5.11905 31.5865 5.82109 32.2356 5.96735C32.8846 6.11361 33 6.74252 32.5817 7.19592C32.1779 7.64932 31.7163 8.0881 33.1875 8.43912C32.9135 8.43912 32.4519 8.49762 32.2212 8.29286C31.9904 8.0881 31.6154 7.73707 32.351 7.00578C33.101 6.28912 31.9183 6.12823 31.6154 6.04048C31.2837 5.96735 30.1442 5.45544 29.5673 5.30918C29.0048 5.16293 28.5577 4.95816 28.976 6.12823C29.3654 7.28367 29.6538 8.11735 28.8894 8.6585L28.3125 8.76088C28.8317 8.5415 29.4375 8.23435 28.9327 6.97653ZM7.16827 9.66769C6.9375 8.86327 7.64423 8.84864 7.65865 8.27823C7.94711 8.92177 7.21154 9.09728 7.16827 9.66769ZM10.2837 8.40986C9.53365 7.82483 9.83654 7.00578 10.2692 5.86497C10.7163 4.72415 10.2692 4.89966 9.69231 5.04592C9.11538 5.19218 7.97596 5.6602 7.62981 5.71871C7.3125 5.79184 6.12981 5.92347 6.83654 6.65476C7.55769 7.40068 7.18269 7.7517 6.92308 7.94184C6.69231 8.1466 6.24519 8.0881 5.97115 8.07347C7.44231 7.76633 7.00962 7.32755 6.60577 6.8449C6.20192 6.37687 6.33173 5.74796 6.98077 5.61633C7.62981 5.48469 9.33173 4.85578 10.1971 4.65102C11.0769 4.44626 10.774 5.49932 10.2548 6.71327C9.72115 7.94184 10.3125 8.29286 10.8606 8.51225L10.2837 8.40986ZM13.1538 18.3408C13.3558 18.4871 13.8173 18.7503 14.1202 18.8088C13.9471 18.9112 13.5577 18.7942 13.3413 18.6772C13.4279 19.233 13.7452 19.4524 14.0913 19.6571C13.3269 19.5694 12.9952 18.7357 13.1538 18.3408ZM13.3702 21.4854C13.4567 21.5 13.6154 22.3629 13.5 22.2752C13.3702 22.1728 13.1538 21.4707 13.3702 21.4854ZM12.2019 21.5293C12.274 21.5585 12 22.4068 11.9423 22.2752C11.8846 22.1435 12 21.4122 12.2019 21.5293ZM11.0481 21.0905C11.0769 21.149 10.5721 21.8656 10.5721 21.7194C10.5721 21.5585 10.9038 20.915 11.0481 21.0905ZM11.1346 16.9806C11.1779 17.083 11.3221 17.1707 11.1346 17.2731C10.9183 17.3901 10.9183 17.1122 10.9183 17.0684C10.9183 17.0245 9.85096 15.635 9.49039 15.3425C9.76442 15.4303 11.0481 16.8636 11.1346 16.9806ZM8.68269 17.6827C8.68269 17.4048 8.50961 16.9514 8.50961 16.9806C8.50961 16.9806 9.11539 16.7466 9.1875 16.7027C9.23077 16.6588 9.41827 16.5857 9.54808 16.5857C8.89904 15.8252 8.56731 14.933 8.49519 13.8799L8.53846 13.8507C8.58173 15.0939 9.46154 16.4541 10.5 17.2878C10.2115 17.0684 9.73558 16.732 9.49039 16.849C9.25962 16.966 8.8125 17.1122 8.82692 17.1122C8.82692 17.0976 8.92788 17.5656 8.95673 17.8143C8.97115 18.0776 9.5625 18.3116 9.95192 18.4139C9.59135 18.3262 9 18.2384 8.85577 18.4725C8.68269 18.6772 8.36538 19.0282 8.36538 19.0282C8.35096 19.0136 8.63942 19.3793 8.8125 19.5986C8.95673 19.8327 9.54808 19.7742 9.85096 19.7156C9.46154 19.8765 8.97115 20.2129 8.97115 20.4762C8.97115 20.7395 8.97115 21.1929 8.94231 21.1929C8.94231 21.1929 9.38942 21.2806 9.66346 21.3537C9.90865 21.4415 10.3269 21.0173 10.5721 20.7541C10.3413 21.032 10.0385 21.4707 10.125 21.6609C10.2115 21.851 10.3413 22.2605 10.3413 22.2605C10.3269 22.2605 10.7452 22.1874 10.9615 22.1874C11.2067 22.1874 11.4087 21.6755 11.5529 21.3976C11.4375 21.7194 11.3221 22.2167 11.4952 22.3776C11.6683 22.5384 11.9423 22.8456 11.9423 22.8456C11.9279 22.8456 12.274 22.6262 12.4904 22.5238C12.6779 22.4068 12.6923 21.8656 12.6779 21.6901C12.7067 21.968 12.8221 22.4946 13.0529 22.5531C13.2548 22.6262 13.6442 22.7871 13.6442 22.8017C13.6442 22.8017 13.8317 22.4361 14.0048 22.2752C14.149 22.085 13.9327 21.6024 13.774 21.3391C13.7885 21.3391 14.149 21.8218 14.1779 22.0412C14.2356 22.2605 14.1923 22.4068 14.0481 22.5384C13.8894 22.6847 13.7019 23.0796 13.7163 23.065C13.7163 23.0503 13.3702 22.8456 13.1683 22.7871C12.9808 22.7286 12.7933 22.6701 12.7356 22.4361C12.6779 22.6408 12.649 22.7286 12.4327 22.7724C12.2308 22.831 11.899 23.1088 11.899 23.0942C11.899 23.0942 11.6827 22.7578 11.524 22.6408C11.3798 22.4946 11.25 22.4068 11.2644 22.1582C11.149 22.3337 11.0337 22.3629 10.8029 22.3629C10.5721 22.3629 10.1971 22.4946 10.1971 22.4946C10.2115 22.4946 10.1106 22.0997 10.0096 21.9095C9.92308 21.7194 9.87981 21.6316 9.98077 21.4561C9.75 21.5878 9.69231 21.5293 9.44711 21.4561C9.21635 21.3684 8.76923 21.3391 8.78365 21.3391C8.79808 21.3391 8.8125 20.798 8.79808 20.4762C8.78365 20.1837 8.85577 20.1252 9.10096 19.8912C8.87019 19.8912 8.71154 19.8473 8.56731 19.5986C8.42308 19.3646 8.07692 19.0429 8.07692 19.0429C8.07692 19.0575 8.39423 18.7065 8.53846 18.4871C8.68269 18.2531 8.76923 18.1653 9.04327 18.2092C8.8125 18.0922 8.69712 17.9605 8.68269 17.6827ZM10.3413 20.2861C10.3558 20.3592 9.53365 20.8565 9.59135 20.681C9.66346 20.5347 10.2837 20.0228 10.3413 20.2861ZM9.23077 19.0282C9.36058 18.9259 10.2404 18.8966 10.1538 19.116C10.1394 19.1891 9.08654 19.1306 9.23077 19.0282ZM9.60577 17.6241C9.75 17.5656 10.5144 17.7412 10.3846 17.9459C10.3269 18.0044 9.47596 17.6827 9.60577 17.6241ZM13.8894 24.4983C13.8606 24.3667 13.5865 23.3575 13.5865 23.3575C13.5721 23.2258 13.7452 23.1527 13.7596 23.299C13.7885 23.4599 14.0337 24.352 14.0481 24.469C14.0913 24.6007 13.9038 24.6153 13.8894 24.4983ZM12.5048 23.1673C12.4904 23.3282 12.4471 24.2497 12.4327 24.3667C12.4327 24.4983 12.2596 24.4544 12.274 24.3374C12.2885 24.2204 12.3173 23.1527 12.3173 23.1527C12.3317 23.0211 12.5192 23.0065 12.5048 23.1673ZM11.3077 23.0065C11.2788 23.1527 11.0481 24.0449 11.0192 24.1619C10.976 24.2789 10.8317 24.2204 10.8606 24.0888C10.9038 23.9718 11.1635 22.948 11.1635 22.948C11.1779 22.8163 11.3654 22.8456 11.3077 23.0065ZM10.0529 22.6408C9.98077 22.7286 9.5625 23.4891 9.49039 23.5915C9.43269 23.6939 9.28846 23.5915 9.34615 23.4891C9.43269 23.3721 9.90865 22.5531 9.90865 22.5531C9.98077 22.4361 10.1394 22.5238 10.0529 22.6408ZM7.94711 18.6918C7.78846 18.6772 6.87981 18.648 6.75 18.6333C6.62019 18.6333 6.64904 18.4725 6.76442 18.4725C6.89423 18.4871 7.94711 18.5163 7.94711 18.5163C8.07692 18.5163 8.10577 18.7065 7.94711 18.6918ZM6.86538 16.9806C6.73558 16.9514 6.82211 16.7905 6.9375 16.8344C7.05288 16.8929 8.0625 17.2 8.0625 17.2C8.17789 17.2439 8.16346 17.434 8.00481 17.3755C7.86058 17.3316 6.98077 17.0391 6.86538 16.9806ZM8.10577 19.7303C8.23558 19.7156 8.29327 19.9058 8.12019 19.9058C7.97596 19.935 7.05288 20.052 6.9375 20.052C6.82211 20.052 6.82211 19.8765 6.9375 19.8765C7.08173 19.8765 8.10577 19.7303 8.10577 19.7303ZM7.38462 21.2952C7.51442 21.266 8.4375 20.798 8.4375 20.798C8.55288 20.7395 8.66827 20.9003 8.50961 20.9442C8.36538 21.0173 7.55769 21.4122 7.41346 21.4561C7.32692 21.5146 7.26923 21.3537 7.38462 21.2952ZM8.17789 22.5531C8.26442 22.4653 9.07212 21.6609 9.07212 21.6609C9.14423 21.5585 9.30288 21.6755 9.20192 21.7779C9.08654 21.8656 8.35096 22.5969 8.29327 22.6701C8.20673 22.7871 8.09135 22.6408 8.17789 22.5531ZM8.37981 16.0007C8.46635 16.0592 8.39423 16.2201 8.27885 16.1469C8.16346 16.0592 7.13942 15.4595 7.02404 15.3718C6.92308 15.3133 7.02404 15.1816 7.13942 15.2548C7.22596 15.3133 8.37981 16.0007 8.37981 16.0007ZM8.17789 14.2895C8.35096 14.465 8.23558 14.6112 8.07692 14.4942C7.91827 14.3772 6.9375 13.3388 6.90865 12.6514C7.09615 13.1486 7.84615 14.0262 8.17789 14.2895ZM2.88462 6.97653C2.97115 7.28367 4.62981 9.79932 5.82692 11.0571C5.20673 10.5745 3.43269 8.79014 3.15865 8.13197C3.12981 9.33129 4.39904 10.984 5.14904 11.9932C4.21154 11.0133 2.22115 8.93639 2.88462 6.97653ZM3.99519 9.78469C4.19712 10.1796 5.49519 11.6714 6.02885 12.0956L5.89904 12.4027C5.27885 11.7446 4.06731 10.2381 3.99519 9.78469ZM4.71635 19.935L4.77404 20.2714C3.87981 20.3153 2.75481 20.3007 2.26442 20.2129C2.68269 20.0959 3.87981 20.0374 4.71635 19.935ZM4.57212 18.8088C3.67788 18.6626 2.37981 18.4578 1.93269 18.2823C2.40865 18.2677 3.77885 18.3847 4.60096 18.4871L4.57212 18.8088ZM4.70192 17.2293C3.85096 16.9806 2.26442 16.3956 1.88942 16.1031C2.27885 16.2201 4.11058 16.7612 4.77404 16.9075L4.70192 17.2293ZM1.70192 10.2381C1.875 10.3844 3.63462 12.0517 5.03365 12.9878C4.37019 12.6952 2.63942 11.6129 2.23558 11.0718C2.49519 12.1687 3.70673 13.2218 4.62981 13.9531C3.53365 13.2803 1.57212 12.0371 1.70192 10.2381ZM5.37981 13.8068L5.30769 14.1286C4.58654 13.602 3.07212 12.4027 2.94231 11.9932C3.1875 12.3296 4.77404 13.4997 5.37981 13.8068ZM5.01923 15.401L4.91827 15.7228C4.125 15.3425 2.72596 14.3333 2.50962 13.9677C2.82692 14.2602 4.37019 15.1963 5.01923 15.401ZM1.16827 13.0901C2.32212 12.9878 3.53365 13.8214 4.41346 14.465C3.64904 14.0701 2.39423 13.5289 1.80288 13.5289C1.97596 14.1286 3.41827 15.2694 3.99519 15.6935C2.92788 15.1963 1.44231 14.1139 1.16827 13.0901ZM0.490385 15.4303C1.60096 15.1524 2.94231 15.8105 3.89423 16.3224C3.07212 16.0592 1.75962 15.6935 1.18269 15.7667C1.42788 16.3517 3.10096 17.1122 3.73558 17.4486C2.61058 17.0976 0.908654 16.3956 0.490385 15.4303ZM0.548077 18.0922C1.52885 17.4779 2.59615 17.785 3.64904 17.9459C2.79808 17.9605 1.74519 17.9167 1.22596 18.1799C1.65865 18.6333 3.17308 19.0282 3.86538 19.1452C2.71154 19.1745 1.24038 18.8673 0.548077 18.0922ZM0.9375 20.1544C1.84615 19.4524 2.8125 19.5401 3.89423 19.6279C3.04327 19.7156 2.01923 19.8912 1.52885 20.2276C1.99038 20.6517 3.17308 20.8418 3.89423 20.7833C2.68269 20.9735 1.70192 20.9881 0.9375 20.1544ZM2.74038 21.7194L2.25 21.6901C2.69712 21.3976 3.27404 21.3099 3.92308 21.149C3.57692 21.3245 3.24519 21.4122 2.74038 21.7194ZM3.08654 21.9827C3.50481 21.7633 4.19711 21.5585 4.99038 21.266L5.10577 21.5585C4.25481 21.851 3.59135 21.9242 3.08654 21.9827ZM4.55769 22.3776L4.11058 22.7724L4.02404 22.5531L4.55769 22.3776ZM3.95192 24.2935L3.85096 24.0595C4.03846 24.0888 4.60096 23.9133 5.22115 23.5769C4.5 24.1765 4.21154 24.352 3.95192 24.2935ZM4.09615 23.5769C4.45673 23.2697 4.78846 23.0065 5.49519 22.5531L5.68269 22.831C4.88942 23.2697 4.55769 23.416 4.09615 23.5769ZM4.22596 26.0779C4.09615 25.1857 4.71635 24.6007 5.56731 23.9571C4.99038 24.6007 4.48558 25.2296 4.64423 25.6537C5.13462 25.8731 5.76923 25.0395 6.33173 24.6007C5.52404 25.566 5.20673 26.3412 4.22596 26.0779ZM4.94712 25.3759C5.19231 24.9663 5.89904 24.2789 6.46154 23.65L6.70673 23.8694C6.07212 24.5129 5.35096 25.098 4.94712 25.3759ZM6.28846 27.365C5.88461 26.5459 6.27404 25.8731 6.86538 24.9663C6.51923 25.7561 6.25962 26.4874 6.54808 26.8384C7.06731 26.8969 7.62981 26.0194 8.00481 25.4344C7.55769 26.5898 7.29808 27.2918 6.28846 27.365ZM7.6875 24.5568L7.99038 24.6884C7.60096 25.5075 7.08173 26.1071 6.77885 26.4874C6.90865 26.0194 7.35577 25.3173 7.6875 24.5568ZM8.58173 27.9793C7.99038 27.3065 8.29327 26.6337 8.65385 25.6099C8.50961 26.4582 8.36538 27.2626 8.74038 27.5259C9.25961 27.4235 9.60577 26.4874 9.80769 25.8146C9.66346 27.0432 9.53365 27.6575 8.58173 27.9793ZM8.85577 27.1017C8.87019 26.6337 9.11539 26.1071 9.21635 25.2588L9.54808 25.3173C9.36058 26.2095 9.02885 26.6337 8.85577 27.1017ZM11.0337 27.9061C10.1827 27.2772 10.4423 26.8969 10.5577 25.8439C10.601 26.6922 10.5577 27.0871 11.0769 27.4235C11.7548 27.0139 11.6683 26.4874 11.7404 25.7854C11.8558 27.0432 12.0288 27.3942 11.0337 27.9061ZM10.9615 25.5221L11.2933 25.4929C11.2933 26.3997 11.2644 26.5605 11.1635 27.0432C11.0913 26.5898 11.0192 26.3704 10.9615 25.5221ZM14.25 25.3173C13.7596 25.3466 13.5 25.215 13.1971 24.6446C12.9519 25.0541 12.7644 25.2296 12.2163 25.332C11.7404 25.0541 11.6683 24.7908 11.5962 24.5861C11.4087 24.9078 11.1779 25.1126 10.5721 25.1272C10.3125 24.8493 9.96635 24.6153 9.9375 24.235C9.57692 24.4544 9.24519 24.5861 8.88461 24.4252C8.68269 24.118 8.625 23.8694 8.61058 23.5184C8.14904 23.6939 7.64423 23.7816 7.41346 23.5915C7.24038 23.1088 7.18269 22.7286 7.24038 22.3922C6.60577 22.3629 6.15865 22.085 6.08654 21.8071C6.11538 21.4707 6.21635 21.0612 6.30288 20.915C5.72596 20.6517 5.58173 20.3592 5.53846 20.2129C5.61058 19.8765 5.72596 19.5109 5.88462 19.3646C5.53846 19.1745 5.17788 18.8673 5.07692 18.4432C5.25 18.0337 5.52404 17.7558 5.75481 17.5656C5.36538 17.0976 5.0625 16.4541 5.17788 16.2201C5.27885 15.9568 5.92788 15.6935 6.1875 15.752C5.58173 15.1816 5.32212 14.4065 5.50962 14.1724C5.69712 13.9092 6.57692 13.9969 6.79327 14.1139C6.38942 13.3973 6.15865 12.783 6.54808 11.6861C6.49038 12.6075 6.28846 13.7629 8.13462 15.2109C7.61538 14.8745 6.44712 13.9384 5.74038 14.348C5.68269 14.9184 6.23077 15.6935 7.42788 16.4395C6.63462 16.0299 6.21635 15.7374 5.40865 16.3224C5.55288 17.2439 5.92788 17.5218 6.92308 17.7558C6.23077 17.6388 5.94231 17.5071 5.32212 18.5163C5.76923 19.233 6.25962 19.35 7.02404 19.2769C6.28846 19.3354 5.98558 19.4378 5.76923 20.1544C6.23077 20.8857 6.64904 20.798 7.34135 20.6371C6.59135 20.8565 6.375 21.0905 6.34615 21.7194C6.96635 22.3483 7.3125 22.1874 7.91827 21.851C7.51442 22.2605 7.3125 22.5384 7.60096 23.416C8.37981 23.5622 8.63942 23.3575 9.12981 22.6262C8.87019 23.2697 8.68269 23.65 9.04327 24.2058C9.82212 24.2497 10.0096 23.9425 10.3269 23.4014C10.1394 24.0156 10.024 24.352 10.6298 24.8786C11.2067 24.8347 11.4952 24.5568 11.7115 23.9133C11.7115 24.7616 11.9567 24.9517 12.2885 25.1126C12.8798 24.9224 13.024 24.5861 13.1538 24.0303C13.4423 24.8347 13.875 25.2296 14.2788 25.1272L14.25 25.3173ZM5.01923 35.7748C4.5 35.4092 4.84615 35.1313 5.17788 34.9558C4.77404 35.3361 4.88942 35.5116 5.01923 35.7748ZM7.74519 36.8571C7.77404 36.9741 7.74519 37.0473 7.65865 37.0912C7.45673 35.9796 7.13942 35.9503 7.06731 35.3946C6.98077 34.8095 6.85096 35.3946 6.85096 35.3946C6.83654 35.3946 6.83654 35.5701 6.9375 35.7163C6.95192 35.731 6.76442 35.6578 6.64904 35.5116C6.62019 35.5116 6.76442 35.7163 6.62019 35.7895C6.62019 35.8041 6.67788 35.9357 6.67788 36.0673C6.51923 36.2429 6.67788 36.316 6.80769 36.316C6.95192 36.316 7.00962 36.199 7.03846 36.0966C7.09615 36.2282 7.06731 36.4184 6.95192 36.6085C6.80769 36.901 7.06731 37.0034 7.13942 36.9742C7.21154 36.9449 7.28365 36.8571 7.28365 36.6963C7.39904 36.8133 7.37019 37.0619 7.29808 37.2082C7.26923 37.369 7.28365 37.4129 7.26923 37.5299C7.25481 37.6469 6.9375 37.9248 6.9375 37.9248C6.9375 37.9248 6.82211 37.881 6.72115 37.7932C7.54327 37.4568 7.06731 37.018 6.69231 37.1789C6.31731 37.369 6.27404 37.3105 6.05769 37.3105C5.84135 37.3398 5.84135 37.018 5.91346 36.8133C5.98558 36.8718 5.98558 37.0473 6.04327 37.0765C6.43269 37.2667 6.82212 36.8864 6.82212 36.7401C6.82212 36.5061 6.10096 36.5354 5.98558 36.5793C5.87019 36.6378 5.52404 36.316 5.39423 36.2575C5.27885 36.2282 5.19231 36.082 5.22115 35.8918C5.4375 35.9357 5.76923 36.316 6.02885 36.3745C6.87981 36.2282 6.375 35.7163 6.28846 35.6871C6.20192 35.6871 5.97115 35.848 5.89904 35.8772C5.8125 35.9357 5.79808 35.6578 5.72596 35.7017C5.63942 35.7602 5.4375 35.6432 5.29327 35.5554C5.14904 35.4823 5.40865 35.2337 5.4375 35.0874C5.48077 34.9704 5.35096 35.0143 5.35096 35.0143C5.33654 35.0143 5.37981 34.7949 5.46635 34.6779C5.59615 35.8187 5.92788 35.5993 6.1875 35.4823C5.72596 34.8973 6.02885 34.6048 6.375 34.3269C6.50481 34.2391 6.80769 34.1514 6.82212 34.1514C6.86538 34.1514 6.79327 34.2684 6.44712 34.5609C6.07212 34.868 6.11538 34.868 6.21635 35.1459C6.30288 35.4531 6.53365 35.4238 6.69231 35.2922C6.85096 35.1605 6.83654 34.9558 6.63462 34.8242C6.76442 34.7949 6.80769 34.5901 6.9375 34.6048C7.02404 34.634 6.86538 34.7803 6.86538 34.7803C6.86538 34.7803 6.9375 34.8827 7.15385 34.8388C7.37019 34.8095 7.24038 35.0289 7.125 35.1459C7.02404 35.2629 7.52885 35.8626 7.61538 35.9796C7.6875 36.1112 8.0625 35.965 8.07692 36.082C8.09135 36.199 7.6875 36.199 7.61538 36.2721C7.55769 36.3599 7.71635 36.7401 7.74519 36.8571ZM7.97596 36.901C8.37981 36.433 9.11539 36.082 9.27404 36.0966C9.11539 36.0966 8.29327 36.6378 7.97596 36.901ZM8.56731 35.5993C8.22115 35.5993 8.01923 35.6139 7.77404 34.9997C7.77404 34.9997 8.0625 35.3361 8.27885 35.4677C8.49519 35.5847 9.31731 35.5116 9.31731 35.5116C9.31731 35.5116 8.89904 35.5993 8.56731 35.5993ZM33.5625 36.2429C33.3029 36.3306 33.1875 36.4184 32.899 36.6378C32.6106 36.8571 32.0913 36.8864 31.8029 36.901C31.2981 37.2667 30.7788 37.2667 30.476 37.2228C30.1587 37.1935 29.149 36.4622 29.1779 36.433C29.1923 36.4476 30.3606 37.0473 30.6779 37.1058C30.9663 37.1497 31.4135 36.9303 31.4856 36.7986C31.5288 36.6524 32.0192 36.3452 32.2356 36.2575C32.8269 35.5701 31.7452 35.1898 31.6875 35.8333C32.1923 35.7895 31.8173 36.1551 31.8173 36.1405C31.8173 36.1551 31.9615 36.2429 31.8894 36.3306C31.8173 36.4184 31.5 36.2575 31.4279 36.3599C31.3558 36.4769 31.5 36.4622 31.3702 36.4915C31.2404 36.5061 31.1538 36.6378 31.1827 36.7255C31.2115 36.8133 31.0096 36.9156 30.9231 36.784C30.8365 36.667 30.2596 36.5207 30.2596 36.4037C30.2596 36.3014 30.9952 36.5354 31.0817 36.3599C31.1827 36.2136 30.1298 36.1697 30.1298 36.0527C30.1298 35.9211 30.5048 35.965 30.5769 35.965C30.649 35.965 30.6779 35.7748 30.6779 35.6286C30.6923 35.6286 30.9519 35.8041 30.9519 35.8041C30.9519 35.8041 30.8221 35.965 30.851 36.0527C30.851 36.1551 31.0529 36.082 31.1827 36.1844C31.2981 36.3014 31.4423 36.2429 31.5288 35.9942C31.399 35.6871 31.6587 35.3946 31.8894 35.2922C31.9327 35.1752 31.9327 35.0289 31.8317 34.9265C32.0337 34.9558 32.1202 35.0728 32.25 35.2922C32.7115 35.5116 32.6106 35.8918 32.5673 36.0088C32.5385 36.1551 32.9135 35.9796 33.0865 35.8772C33.1298 35.6578 33.2308 35.4531 33.4904 35.3361C33.5337 35.1898 33.4615 35.0728 33.3462 34.9558C33.6202 34.9558 33.6779 35.0874 33.8365 35.3214C34.1394 35.8626 33.8221 36.1259 33.5625 36.2429ZM35.0481 34.1806C35.0481 34.3415 34.9183 34.4731 34.7596 34.4731C34.6154 34.4731 34.4712 34.3415 34.4712 34.1806C34.4712 34.0344 34.601 33.8881 34.7596 33.8881C34.9183 33.8881 35.0481 34.0197 35.0481 34.1806ZM33 31.2847C33.8654 31.1677 34.8462 32.5425 34.875 33.4201L32.9135 33.2153L33 31.2847ZM34.2837 34.0929C34.2837 34.2537 34.1394 34.3854 33.9952 34.3854C33.851 34.3854 33.7067 34.2537 33.7067 34.0929C33.7067 33.932 33.851 33.8003 33.9952 33.8003C34.1394 33.8003 34.2837 33.9466 34.2837 34.0929ZM33.5048 34.0051C33.5048 34.166 33.375 34.2976 33.2163 34.2976C33.0577 34.2976 32.9279 34.166 32.9279 34.0051C32.9279 33.8442 33.0721 33.7126 33.2163 33.7126C33.375 33.7126 33.5048 33.8442 33.5048 34.0051ZM31.6442 30.6704V30.0415L32.2788 30.1731L32.1635 29.6758H32.7837L32.6538 30.1878L33.2452 30.0561V30.6119L32.5962 30.5095L32.7404 31.0507H32.0913L32.2788 30.4949L31.6442 30.6704ZM32.4231 32.8204C32.5817 32.8204 32.7115 32.952 32.7115 33.1129C32.7115 33.2738 32.5817 33.4054 32.4231 33.4054C32.2644 33.4054 32.1346 33.2738 32.1346 33.1129C32.1346 32.952 32.2644 32.8204 32.4231 32.8204ZM32.149 32.3963C32.149 32.2354 32.2788 32.1037 32.4375 32.1037C32.6106 32.1037 32.7404 32.2354 32.7404 32.3963C32.7404 32.5425 32.6106 32.6888 32.4375 32.6888C32.2788 32.6741 32.149 32.5425 32.149 32.3963ZM32.4519 33.6687C32.6106 33.6687 32.7404 33.8003 32.7404 33.9612C32.7404 34.1221 32.6106 34.2537 32.4519 34.2537C32.2933 34.2537 32.1635 34.1075 32.1635 33.9612C32.1635 33.8003 32.2933 33.6687 32.4519 33.6687ZM32.4808 31.9282C32.3221 31.9282 32.1923 31.7966 32.1923 31.6357C32.1923 31.4748 32.3221 31.3432 32.4808 31.3432C32.6394 31.3432 32.7692 31.4748 32.7692 31.6357C32.7692 31.7966 32.6394 31.9282 32.4808 31.9282ZM34.4712 34.7656C34.3702 34.9997 34.1394 35.2483 34.0529 35.3361L33.9375 35.1752C34.0817 35.0582 34.1106 34.8827 34.1106 34.8827C33.5337 34.7656 31.6731 34.6925 30.5769 34.7364C30.6635 34.9558 30.9519 35.2922 31.3846 35.5701L31.2981 35.731C30.7788 35.5408 30.4038 34.985 30.2452 34.5755C31.399 34.4878 33.1731 34.5316 34.4712 34.7656ZM30.6346 34.0197C30.6346 33.8588 30.7644 33.7272 30.9231 33.7272C31.0673 33.7272 31.2115 33.8588 31.2115 34.0197C31.2115 34.1806 31.0817 34.3122 30.9231 34.3122C30.7644 34.3122 30.6346 34.1806 30.6346 34.0197ZM31.4135 33.9905C31.4135 33.8296 31.5433 33.698 31.7019 33.698C31.8606 33.698 31.9904 33.8296 31.9904 33.9905C31.9904 34.1367 31.8606 34.283 31.7019 34.283C31.5577 34.2684 31.4135 34.1367 31.4135 33.9905ZM32.0625 31.2993L32.0048 33.1714L30.0288 33.2007C30.1442 32.3231 31.2548 31.0799 32.0625 31.2993ZM30.0865 34.3561C29.9423 34.3561 29.7981 34.2245 29.7981 34.0636C29.7981 33.9027 29.9279 33.7711 30.0865 33.7711C30.2452 33.7711 30.375 33.9027 30.375 34.0636C30.375 34.2245 30.2452 34.3561 30.0865 34.3561ZM30.2308 35.2483L30.3173 35.3214C29.9712 35.6286 29.4808 35.8626 28.8173 35.6871C29.2933 35.6578 29.8558 35.5847 30.2308 35.2483ZM24.6202 17.3755C24.4038 17.6388 23.726 17.8143 23.3654 17.7704C23.3221 18.0044 23.351 18.2677 23.6538 18.6772C23.3365 18.6772 22.9327 18.3847 22.5577 17.7997C22.4712 17.8728 22.5433 18.3993 22.5865 18.6333C22.2837 18.4724 21.4038 17.434 21.3462 16.966C20.9567 17.2146 20.8846 18.2092 20.8413 18.6187C20.4663 18.3554 20.3798 17.4925 20.3365 17.0537C20.1202 17.2 19.7163 17.8435 19.5577 18.2677C19.5144 16.1616 19.8462 14.9476 20.4375 14.5966C20.0913 14.9915 19.8317 16.3078 19.7596 17.3901C19.7596 17.4779 20.0337 16.8051 20.4808 16.1616C20.4375 16.3371 20.524 16.9806 20.6971 17.8143C20.6971 17.6095 20.9423 16.9075 21.3894 16.4102C21.4327 16.9075 21.9663 17.6388 22.226 18.019C22.1971 17.9313 22.1971 17.2585 22.3413 16.966C22.3702 17.3609 22.875 17.8728 23.1635 18.1946C23.0913 18.1214 23.1346 17.7412 23.1058 17.4048C23.3654 17.6095 23.5673 17.551 23.8269 17.4925C23.4952 17.3463 22.8606 16.7612 22.8173 16.2639C23.1346 17.083 24.3173 17.3901 24.6202 17.3755ZM21.9663 18.6772H21.7067C21.6779 18.5748 21.4615 18.2823 21.4615 18.2823C21.4615 18.2823 21.4471 18.5017 21.4471 18.6772H21.1875C21.2163 18.4578 21.2163 17.7119 21.4038 17.551C21.4615 17.785 21.8221 18.5895 21.9663 18.6772ZM20.4808 18.6772H20.2067C20.1923 18.5602 20.1346 18.2238 20.1346 18.2238C20.1346 18.2238 19.9615 18.5017 19.9615 18.6772H19.6875C19.7163 18.4578 20.0048 17.8582 20.1923 17.6973C20.2644 17.9167 20.351 18.5895 20.4808 18.6772ZM24.1875 13.1633C23.1202 13.9969 22.1827 15.9129 22.0817 16.8344C21.7644 15.1963 22.2692 13.9677 22.6731 13.1779C22.1827 13.5143 21.2596 15.1378 20.8846 16.615C20.7981 14.6112 21.274 13.6898 22.0673 12.6221C21.4327 12.8415 20.3221 14.2748 20.0048 14.6259C21.3462 12.0224 21.649 11.7007 22.8894 11.4813L22.6587 11.7007C21.851 11.7446 21.101 12.9878 21.101 12.9878C21.0865 13.0024 21.5625 12.5636 22.5288 12.1395C22.2115 12.5197 21.4904 13.9823 21.2308 14.699C21.3173 14.4065 22.1394 13.2803 23.0481 12.5782C22.875 12.9439 22.3269 14.6112 22.3269 15.1524C22.5721 14.5527 23.0048 13.9384 24.1875 13.1633C24.3173 13.0609 24.4615 12.9731 24.5913 12.9C24.4471 12.9878 24.3173 13.0755 24.1875 13.1633ZM23.2933 10.8231C22.6587 11.6129 21.649 11.6422 20.7548 11.4667C21.3606 11.4082 22.5 10.8231 22.7596 10.6476C22.5721 10.9548 21.9231 11.2912 21.6346 11.4082C22.1971 11.4082 22.8462 11.1156 23.2933 10.8231ZM24.5192 12.1248C24.6058 11.9347 24.8654 11.5983 24.8942 11.5252C24.6058 11.6714 23.6106 12.3735 23.4087 12.5782C23.4519 12.3296 23.7692 11.6422 23.9135 11.5105C23.6106 11.7007 22.976 12.1833 22.8029 12.3588C22.8173 11.9639 23.4519 10.8816 23.7548 10.6476C23.3365 10.6476 22.6731 10.3697 22.6587 10.3551C22.976 10.4429 23.8413 10.4721 24.2596 10.4429C23.8558 10.6915 23.25 11.3643 23.1346 11.8762C23.726 11.3058 24.5481 10.7793 24.9087 10.7061C24.5048 10.9694 23.8125 11.8323 23.7548 12.1395C24.0577 11.9201 25.1827 11.0718 25.6442 11.0133C25.3413 11.3497 24.5913 11.9639 24.5192 12.1248ZM23.9712 9.9602C24.1154 9.97483 26.1346 9.78469 26.7837 9.65306C26.899 9.79932 26.6394 10.2381 26.4375 10.3112C26.2212 9.9602 24.2885 10.0772 23.9712 9.9602ZM27.4904 13.1194C27.2019 12.666 26.7981 12.5344 26.2212 12.4759C26.7981 12.2711 27.2885 12.4759 27.4904 13.1194ZM29.0481 11.5105C29.25 11.0864 29.2788 10.7354 29.1346 10.516C29.0048 10.3112 28.6442 10.0333 28.0962 9.97483C28.5865 9.93095 29.351 10.1503 29.3942 10.7354C29.4231 11.2619 29.0769 11.7884 29.0625 11.7884C29.0337 11.7738 28.1683 11.2034 27.101 11.6714C26.351 11.9932 25.9615 12.2418 25.7885 12.3735C26.0769 12.1395 26.9135 11.4813 27.4327 11.3789C28.0962 11.2473 28.2837 11.2619 29.0481 11.5105ZM28.1971 11.0864C28.4567 10.8816 28.6875 10.8816 28.774 11.2619C28.6442 11.2034 28.4135 11.1595 28.1971 11.0864ZM27.851 9.9602C27.0433 11.2765 25.2548 12.6514 24.9808 12.783C24.7067 12.9293 24.8798 12.7976 24.8798 12.7684C26.4375 11.7007 27.6635 10.0772 27.7067 9.98946C27.7356 9.68231 27.5481 9.69694 27.4038 9.78469C26.5962 11.3643 25.7308 11.7592 24.7067 12.2565C26.5096 11.218 27.2019 9.9017 27.2885 9.66769C27.5337 9.46292 27.8942 9.52143 27.851 9.9602ZM27.1875 7.79558C27.0577 7.79558 26.9712 7.6932 26.9712 7.57619C26.9712 7.44456 27.0721 7.37143 27.1875 7.37143C27.3029 7.37143 27.4038 7.44456 27.4038 7.57619C27.4038 7.70782 27.3029 7.79558 27.1875 7.79558ZM27.1154 8.81939C26.5962 8.96565 25.4712 8.92177 24.9519 8.81939V8.5415L27.101 8.57075L27.1154 8.81939ZM27.4615 6.28912C27.5913 6.28912 27.6779 6.37687 27.6779 6.5085C27.6779 6.62551 27.5769 6.72789 27.4615 6.72789C27.3462 6.72789 27.2452 6.64014 27.2452 6.5085C27.2452 6.37687 27.3462 6.28912 27.4615 6.28912ZM27.3894 6.83027C27.5192 6.83027 27.6058 6.93265 27.6058 7.04966C27.6058 7.16667 27.5192 7.26905 27.3894 7.26905C27.274 7.26905 27.1731 7.16667 27.1731 7.04966C27.1731 6.93265 27.274 6.83027 27.3894 6.83027ZM26.8702 6.3915C26.9856 6.3915 27.0721 6.49388 27.0721 6.61088C27.0721 6.74252 26.9856 6.83027 26.8702 6.83027C26.7404 6.83027 26.6538 6.74252 26.6538 6.61088C26.6394 6.49388 26.7404 6.3915 26.8702 6.3915ZM26.7548 6.9619C26.8702 6.9619 26.9567 7.06429 26.9567 7.18129C26.9567 7.2983 26.8702 7.40068 26.7548 7.40068C26.625 7.40068 26.5385 7.2983 26.5385 7.18129C26.524 7.06429 26.625 6.9619 26.7548 6.9619ZM26.5962 7.82483C26.6683 7.73707 26.7692 7.67857 26.7981 7.6932C26.8125 7.72245 26.7837 7.82483 26.6683 7.91258C26.5962 8.00034 26.4952 8.05884 26.4663 8.04422C26.4375 8.01497 26.4952 7.91259 26.5962 7.82483ZM26.3942 7.82483C26.3221 7.97109 26.25 8.07347 26.2067 8.04422C26.1635 8.02959 26.1779 7.88333 26.25 7.73707C26.3221 7.59082 26.3942 7.48844 26.4519 7.51769C26.4808 7.56156 26.4663 7.67857 26.3942 7.82483ZM26.3654 6.24524L26.5673 6.20136L26.351 7.2983H26.2644L26.3654 6.24524ZM25.6587 4.94354V4.68027H25.8894V4.43163H26.1635V4.68027H26.3942V4.94354H26.1635V5.17755H25.8894V4.94354H25.6587ZM25.774 5.68946C25.774 5.5432 25.9038 5.41156 26.0625 5.41156C26.2067 5.41156 26.3221 5.5432 26.3221 5.68946C26.3221 5.83571 26.2067 5.96735 26.0625 5.96735C25.8894 5.96735 25.774 5.83571 25.774 5.68946ZM26.0048 7.32755C25.9327 7.32755 25.8894 7.28367 25.8894 7.22517C25.8894 7.15204 25.9327 7.12279 26.0048 7.12279C26.0625 7.12279 26.1058 7.16667 26.1058 7.22517C26.1058 7.28367 26.0625 7.32755 26.0048 7.32755ZM26.0625 7.73707C26.0625 7.91259 26.0337 8.05884 25.976 8.05884C25.9183 8.05884 25.8894 7.91259 25.8894 7.73707C25.8894 7.56156 25.9183 7.42993 25.976 7.42993C26.0337 7.41531 26.0625 7.56156 26.0625 7.73707ZM26.0192 6.9619C25.9471 6.9619 25.8894 6.91803 25.8894 6.83027C25.8894 6.75714 25.9471 6.69864 26.0192 6.69864C26.0913 6.69864 26.1635 6.75714 26.1635 6.83027C26.1635 6.91803 26.0913 6.9619 26.0192 6.9619ZM26.0192 6.55238C25.9327 6.55238 25.8606 6.47925 25.8606 6.3915C25.8606 6.30374 25.9327 6.23061 26.0192 6.23061C26.1058 6.23061 26.1779 6.30374 26.1779 6.3915C26.1779 6.47925 26.1058 6.55238 26.0192 6.55238ZM25.976 8.2051C26.4663 8.2051 26.8702 8.26361 26.8702 8.32211C26.8702 8.38061 26.4808 8.43912 25.976 8.43912C25.4567 8.43912 25.0673 8.38061 25.0673 8.32211C25.0673 8.26361 25.4712 8.2051 25.976 8.2051ZM25.4712 8.05884C25.4423 8.07347 25.3413 8.02959 25.2548 7.92721C25.1683 7.82483 25.1106 7.73707 25.125 7.70782C25.1683 7.67857 25.2692 7.73707 25.3413 7.83946C25.4423 7.91258 25.5 8.01497 25.4712 8.05884ZM25.5 7.53231C25.5433 7.51769 25.6298 7.60544 25.6875 7.7517C25.7596 7.89796 25.7885 8.02959 25.7452 8.05884C25.6875 8.07347 25.601 7.98571 25.5433 7.83946C25.4712 7.67857 25.4567 7.56156 25.5 7.53231ZM25.6587 6.24524L25.7596 7.2983H25.6731L25.4567 6.20136L25.6587 6.24524ZM25.0673 6.83027H25.2404V7.00578H25.4135V7.21054H25.2404V7.37143H25.0673V7.21054H24.8942V7.00578H25.0673V6.83027ZM24.5048 6.5085H24.6779V6.33299H24.8654V6.5085H25.0385V6.69864H24.8654V6.87415H24.6779V6.69864H24.5048V6.5085ZM24.6346 7.85408V7.6932H24.4615V7.50306H24.6346V7.31293H24.8221V7.48844H24.9808V7.67857H24.8221V7.83946H24.6346V7.85408ZM27.2596 8.98027C27.3606 8.95102 27.3606 9.02415 27.3606 9.09728H27.3173C26.8413 9.22891 23.5385 9.27279 22.3269 9.21429C22.3413 9.37517 22.8462 9.77007 22.9471 9.85782C22.7596 9.9017 22.4423 10.048 22.3125 10.1357C22.3558 10.1065 22.5577 9.94558 22.7308 9.82857C22.4423 9.62381 22.1683 9.31667 22.125 9.11191C23.8269 9.28741 27.1587 8.9949 27.2596 8.98027ZM22.6731 8.6585H22.6442C22.6154 8.64388 22.601 8.62925 22.5721 8.61463C21.6779 8.24898 20.7404 7.53231 20.25 6.88878C20.3942 6.94728 20.5962 6.97653 20.7692 6.97653C21.0865 7.41531 21.8654 8.19048 22.5865 8.61463C22.601 8.62925 22.6442 8.64388 22.6731 8.6585ZM19.1394 7.22517C19.2692 7.25442 19.3702 7.26905 19.5865 7.28367C19.7308 7.28367 19.8462 7.28367 19.9904 7.25442C20.1346 7.22517 20.2356 7.28367 20.1346 7.34218C20.0481 7.38605 19.8606 7.41531 19.5433 7.40068C19.2404 7.38605 19.0529 7.37143 18.9663 7.32755C18.8654 7.25442 18.9808 7.19592 19.1394 7.22517ZM19.0673 6.9034C19.0673 6.80102 19.2837 6.8449 19.5288 6.85952C19.8029 6.85952 20.0192 6.83027 20.0192 6.91803C20.0192 7.02041 19.8606 7.02041 19.5288 7.00578C19.226 7.00578 19.0673 7.00578 19.0673 6.9034ZM19.5433 6.64014C19.024 6.64014 18.3317 6.69864 17.899 6.77177L17.8413 6.62551C18.0433 6.55238 18.9519 6.45 19.5433 6.45C20.149 6.45 21.0721 6.59626 21.274 6.66939L21.2163 6.81565C20.7837 6.74252 20.0913 6.64014 19.5433 6.64014ZM19.5433 6.14286C20.149 6.14286 21.1442 6.28912 21.3317 6.34762L21.3029 6.49388C20.8558 6.42075 20.0625 6.31837 19.5433 6.31837C19.0385 6.28912 18.2596 6.37687 17.8125 6.43537L17.7837 6.28912C17.9856 6.21599 18.9808 6.11361 19.5433 6.14286ZM18.2885 5.61633C18.3029 5.5432 18.4904 5.5432 18.7067 5.61633C18.9087 5.68946 19.0673 5.79184 19.0385 5.86497C19.024 5.9381 18.8365 5.9381 18.6346 5.87959C18.4327 5.80646 18.2596 5.68946 18.2885 5.61633ZM19.5865 3.17381C19.6442 3.17381 19.7163 3.23231 19.7163 3.30544C19.7163 3.37857 19.6442 3.43707 19.5865 3.43707C19.5144 3.43707 19.4712 3.37857 19.4712 3.30544C19.4567 3.23231 19.5144 3.17381 19.5865 3.17381ZM19.4279 2.85204C19.4279 2.76429 19.5 2.69116 19.5721 2.69116C19.6587 2.69116 19.7163 2.76429 19.7163 2.85204C19.7163 2.9398 19.6442 3.01293 19.5721 3.01293C19.5 2.9983 19.4279 2.9398 19.4279 2.85204ZM19.6731 3.80272C19.6731 3.86122 19.6154 3.91973 19.5577 3.91973C19.5 3.91973 19.4567 3.86122 19.4567 3.80272C19.4567 3.75884 19.5 3.70034 19.5577 3.70034C19.6298 3.68571 19.6731 3.74422 19.6731 3.80272ZM19.5433 4.70952C19.6154 4.70952 19.6875 4.97279 19.6875 5.29456C19.6875 5.61633 19.6154 5.87959 19.5433 5.87959C19.4712 5.87959 19.399 5.61633 19.399 5.29456C19.399 4.97279 19.4712 4.70952 19.5433 4.70952ZM20.7404 4.43163C20.625 4.43163 20.5385 4.32925 20.5385 4.21224C20.5385 4.08061 20.625 3.99286 20.7404 3.99286C20.8702 3.99286 20.9567 4.08061 20.9567 4.21224C20.9712 4.32925 20.8702 4.43163 20.7404 4.43163ZM20.9856 4.51939C21.1154 4.51939 21.2163 4.60714 21.2163 4.73878C21.2163 4.87041 21.1154 4.97279 20.9856 4.97279C20.8702 4.97279 20.7837 4.87041 20.7837 4.73878C20.7837 4.60714 20.8702 4.51939 20.9856 4.51939ZM20.8269 5.6602C20.8413 5.73333 20.6971 5.83571 20.4808 5.87959C20.2644 5.95272 20.0769 5.9381 20.0625 5.85034C20.0481 5.79184 20.2067 5.68946 20.4087 5.63095C20.6106 5.57245 20.7981 5.58707 20.8269 5.6602ZM22.399 8.21973C22.0817 8.07347 21.3317 7.34218 21.1298 7.03503C21.1875 7.00578 21.274 7.02041 21.3029 7.03503C21.5481 7.3568 22.2404 8.0881 22.399 8.21973ZM21.5192 5.48469C21.3894 5.48469 21.3029 5.38231 21.3029 5.26531C21.3029 5.1483 21.4038 5.04592 21.5192 5.04592C21.6346 5.04592 21.7212 5.13367 21.7212 5.26531C21.7212 5.39694 21.6346 5.48469 21.5192 5.48469ZM21.5769 4.79728C21.4471 4.79728 21.375 4.6949 21.375 4.56327C21.375 4.44626 21.4471 4.3585 21.5769 4.3585C21.6923 4.3585 21.7933 4.44626 21.7933 4.56327C21.7933 4.6949 21.7067 4.79728 21.5769 4.79728ZM22.1538 4.12449C22.1538 4.2415 22.0817 4.32925 21.9519 4.32925C21.8365 4.32925 21.7356 4.2415 21.7356 4.12449C21.7356 3.99286 21.8365 3.9051 21.9519 3.9051C22.0673 3.9051 22.1538 4.00748 22.1538 4.12449ZM21.7933 3.17381C21.9231 3.17381 22.0096 3.26156 22.0096 3.3932C22.0096 3.5102 21.9231 3.61259 21.7933 3.61259C21.6779 3.61259 21.5769 3.52483 21.5769 3.3932C21.5769 3.27619 21.6779 3.17381 21.7933 3.17381ZM21.6058 3.96361C21.6058 4.08061 21.5192 4.18299 21.4038 4.18299C21.274 4.18299 21.1875 4.09524 21.1875 3.96361C21.1875 3.83197 21.274 3.74422 21.4038 3.74422C21.5048 3.74422 21.6058 3.83197 21.6058 3.96361ZM21.3173 2.61803C21.4471 2.61803 21.5337 2.72041 21.5337 2.83741C21.5337 2.96905 21.4327 3.0568 21.3173 3.0568C21.2019 3.0568 21.1154 2.96905 21.1154 2.83741C21.1154 2.72041 21.2019 2.61803 21.3173 2.61803ZM21.0577 3.15918C21.1731 3.15918 21.274 3.26156 21.274 3.37857C21.274 3.5102 21.1875 3.59796 21.0577 3.59796C20.9423 3.59796 20.8413 3.5102 20.8413 3.37857C20.8413 3.26156 20.9423 3.15918 21.0577 3.15918ZM20.5673 2.47177L20.8269 2.51565L20.3077 4.53401L20.1779 4.51939L20.5673 2.47177ZM20.1779 4.91429C20.25 4.94354 20.2356 5.17755 20.1635 5.42619C20.0913 5.67483 19.976 5.87959 19.8894 5.86497C19.8317 5.83571 19.8317 5.61633 19.9038 5.35306C19.976 5.10442 20.1058 4.88503 20.1779 4.91429ZM19.1394 0.804422V0.453401L19.5 0.570408L19.4279 0.131633H19.8173L19.7308 0.555782L20.0769 0.482653V0.819048L19.7163 0.687415L19.8029 1.08231H19.4135L19.5 0.687415L19.1394 0.804422ZM19.1827 1.57959C19.1827 1.3602 19.3846 1.15544 19.6154 1.15544C19.8462 1.15544 20.0337 1.3602 20.0337 1.57959C20.0337 1.82823 19.8462 2.01837 19.6154 2.01837C19.3702 2.01837 19.1827 1.82823 19.1827 1.57959ZM19.5865 2.36939H20.0048L19.8317 4.31463H19.7019L19.8606 2.53027L19.5865 2.51565H19.3269L19.4423 4.3L19.3269 4.31463L19.1827 2.36939H19.5865ZM19.2115 5.32381C19.2692 5.58708 19.2837 5.82109 19.1971 5.85034C19.125 5.86497 19.024 5.6602 18.9519 5.39694C18.8942 5.16293 18.8942 4.92891 18.9519 4.88503C19.0385 4.87041 19.1394 5.0898 19.2115 5.32381ZM18.6202 2.44252L18.9663 4.49014L18.851 4.50476L18.3606 2.45714L18.6202 2.44252ZM17.8702 3.40782H18.0433V3.23231H18.2163V3.40782H18.3894V3.59796H18.2163V3.75884H18.0433V3.59796H17.8702V3.40782ZM17.8125 4.25612H17.9856V4.08061H18.1587V4.25612H18.3317V4.43163H18.1731V4.60714H18V4.43163H17.8269V4.25612H17.8125ZM17.149 3.14456H17.3221V2.96905H17.5096V3.14456H17.6683V3.32007H17.5096V3.49558H17.3077V3.32007H17.1346V3.14456H17.149ZM16.9327 4.21224V4.02211H17.1058V3.8466H17.2933V4.02211H17.4663V4.21224H17.2933V4.38775H17.1058V4.21224H16.9327ZM17.6394 5.06054V5.22143H17.4519V5.06054H17.2788V4.85578H17.4519V4.68027H17.6394V4.85578H17.8125V5.06054H17.6394ZM17.8125 6.97653C17.8269 6.97653 17.9279 6.94728 17.9856 6.97653C17.7692 7.26905 17.0192 8.00034 16.6875 8.13197C16.8317 8.01497 17.5529 7.2983 17.8125 6.97653ZM18.4038 6.91803C18.5625 6.88878 18.6923 6.87415 18.8654 6.85952C18.3462 7.51769 17.3221 8.23435 16.4279 8.6C17.149 8.21973 18.1587 7.2983 18.4038 6.91803ZM18.7356 7.47381C19.0385 7.60544 19.1106 7.62007 19.5288 7.64932C19.976 7.64932 20.0625 7.64932 20.3654 7.50306C20.9423 8.05884 22.1683 8.68775 23.2788 8.96565C22.6731 9.03878 21.8654 8.87789 21.4327 8.57075C21.4183 9.02415 22.399 9.79932 22.399 9.79932C22.399 9.79932 22.0385 9.9017 21.8221 9.9017C21.5913 9.9017 21.6923 10.0626 21.8077 10.1503C21.8942 10.2381 22.2837 10.3259 22.5144 10.5306C21.6923 11.2473 20.8269 11.1888 20.0481 11.0425C20.1202 11.4959 21 11.7884 21.3606 11.8616C21.0288 12.2857 20.0913 13.8214 19.4856 15.2109C18.8798 13.7044 18 12.1395 17.6683 11.7299C18.0288 11.6422 18.9087 11.3643 18.9952 10.9255C18.2019 11.0425 17.3365 11.0718 16.5288 10.4282C16.7596 10.2235 17.149 10.165 17.2644 10.0626C17.3654 9.98946 17.4808 9.82857 17.25 9.82857C17.0337 9.81394 16.6731 9.69694 16.6587 9.69694C16.6731 9.69694 17.6683 8.95102 17.6683 8.49762C17.2212 8.80476 16.4135 8.93639 15.851 8.84864C16.8894 8.61463 18.1298 8.01497 18.7356 7.47381ZM15.6202 12.3588C15.4327 12.1833 14.4519 11.452 14.1635 11.2912C14.2212 11.3497 14.4519 11.6861 14.5385 11.9054C14.4663 11.7299 13.7308 11.0864 13.4279 10.7793C13.8894 10.8378 15 11.7007 15.2885 11.9493C15.2452 11.6422 14.5673 10.7793 14.149 10.5745C14.5096 10.6476 15.3317 11.1156 15.8365 11.7007C15.7644 11.1741 15.2308 10.5891 14.8269 10.3259C15.2308 10.3551 16.024 10.3258 16.3269 10.2673C16.3269 10.2673 15.7356 10.5306 15.3173 10.516C15.6202 10.7354 16.1683 11.7738 16.1394 12.1687C15.9808 11.9639 15.4471 11.4959 15.1298 11.2765C15.3029 11.4228 15.6058 12.1102 15.6202 12.3588ZM12.6635 10.1211C12.4904 10.0333 12.2163 9.59456 12.3462 9.4483C12.9952 9.60918 14.9856 9.85782 15.1442 9.8432C14.8269 9.94558 12.8942 9.77007 12.6635 10.1211ZM15.7933 10.7207C16.1683 10.9109 16.8029 11.2034 17.3798 11.2473C17.0769 11.1156 16.4423 10.7646 16.2692 10.5452C16.5288 10.7354 17.6538 11.2619 18.2596 11.3058C17.351 11.4959 16.3269 11.4228 15.7933 10.7207ZM14.3798 7.67857C14.25 7.67857 14.1635 7.57619 14.1635 7.45918C14.149 7.34218 14.2356 7.2398 14.3654 7.2398C14.4808 7.2398 14.5673 7.31293 14.5817 7.44456C14.5817 7.57619 14.4808 7.67857 14.3798 7.67857ZM13.1827 8.02959C13.6875 8.02959 14.0769 8.10272 14.0769 8.17585C14.0769 8.24898 13.6587 8.27823 13.1683 8.27823C12.6779 8.26361 12.274 8.19048 12.274 8.13197C12.274 8.05884 12.6923 8.01497 13.1827 8.02959ZM12.3317 7.50306C12.3606 7.47381 12.4615 7.53231 12.5481 7.63469C12.6202 7.72245 12.6923 7.82483 12.6635 7.85408C12.6346 7.88333 12.5337 7.82483 12.4471 7.72245C12.3606 7.63469 12.3173 7.53231 12.3317 7.50306ZM13.1538 7.15204C13.0962 7.15204 13.0529 7.09354 13.0529 7.03503C13.0529 6.97653 13.1106 6.94728 13.1538 6.94728C13.226 6.94728 13.2692 6.99116 13.2692 7.06429C13.2692 7.10816 13.226 7.15204 13.1538 7.15204ZM13.2692 7.56156C13.2548 7.73707 13.226 7.88333 13.1538 7.88333C13.1106 7.88333 13.0817 7.73707 13.0817 7.56156C13.0817 7.38605 13.1394 7.25442 13.1827 7.25442C13.226 7.25442 13.2692 7.38605 13.2692 7.56156ZM13.1394 6.78639C13.0817 6.78639 13.0096 6.72789 13.0096 6.65476C13.0096 6.58163 13.0817 6.5085 13.1538 6.52313C13.226 6.52313 13.2837 6.58163 13.2837 6.65476C13.2692 6.72789 13.226 6.78639 13.1394 6.78639ZM13.1538 6.37687C13.0817 6.37687 12.9952 6.28912 12.9952 6.20136C12.9952 6.11361 13.0673 6.02585 13.1538 6.04048C13.2548 6.04048 13.3125 6.11361 13.3125 6.20136C13.3125 6.30374 13.2404 6.37687 13.1538 6.37687ZM13.6298 7.66395C13.5433 7.8102 13.4567 7.89796 13.4135 7.88333C13.3702 7.86871 13.3846 7.73707 13.4567 7.57619C13.5288 7.42993 13.6154 7.34218 13.6731 7.3568C13.6875 7.38605 13.6731 7.51769 13.6298 7.66395ZM13.7885 7.67857C13.875 7.57619 13.976 7.51769 14.0048 7.54694C14.0192 7.57619 13.9904 7.67857 13.875 7.76633C13.7885 7.85408 13.6875 7.89796 13.6587 7.86871C13.6442 7.85408 13.6875 7.7517 13.7885 7.67857ZM14.2212 8.39524V8.67313C13.6731 8.76088 12.5481 8.77551 12.0433 8.61463L12.0577 8.36599L14.2212 8.39524ZM14.5529 7.13741C14.4375 7.15204 14.3365 7.06429 14.3365 6.93265C14.3365 6.81565 14.4087 6.71327 14.5385 6.71327C14.6538 6.71327 14.7548 6.80102 14.7548 6.91803C14.7692 7.03503 14.6683 7.12279 14.5529 7.13741ZM14.4808 6.17211C14.5817 6.17211 14.6971 6.25986 14.6971 6.37687C14.6971 6.5085 14.6106 6.59626 14.4952 6.61088C14.3654 6.62551 14.2788 6.53776 14.2644 6.40612C14.2644 6.28912 14.351 6.18673 14.4808 6.17211ZM13.976 6.28912C14.0913 6.28912 14.1923 6.37687 14.2067 6.49388C14.2067 6.61088 14.1058 6.71327 13.9904 6.71327C13.875 6.72789 13.7885 6.64014 13.774 6.5085C13.774 6.3915 13.8606 6.28912 13.976 6.28912ZM13.8894 6.85952C14.0048 6.85952 14.1058 6.93265 14.1058 7.07891C14.1202 7.18129 14.0192 7.2983 13.9183 7.2983C13.7885 7.31293 13.7019 7.22517 13.6875 7.09354C13.6875 6.9619 13.774 6.87415 13.8894 6.85952ZM13.5288 6.06973L13.7019 6.02585L13.4712 7.12279H13.399L13.5288 6.06973ZM12.8077 4.76803V4.49014H13.0529V4.25612H13.3125V4.49014H13.5577V4.76803H13.3125V5.00204H13.0529V4.76803H12.8077ZM12.8798 5.49932C12.8798 5.33844 13.0096 5.2068 13.1538 5.22143C13.2981 5.22143 13.4423 5.35306 13.4279 5.49932C13.4279 5.64558 13.2981 5.77721 13.1394 5.77721C12.9808 5.77721 12.8654 5.6602 12.8798 5.49932ZM12.9375 7.86871C12.8942 7.88333 12.8077 7.79558 12.75 7.64932C12.6779 7.50306 12.6779 7.37143 12.7067 7.34218C12.75 7.32755 12.8365 7.44456 12.8798 7.59082C12.9519 7.72245 12.9808 7.85408 12.9375 7.86871ZM12.8221 6.0551L12.8942 7.13741L12.8077 7.12279L12.6202 6.02585L12.8221 6.0551ZM12.2163 6.81565H12.4038V6.99116L12.5769 6.97653V7.16667H12.4183L12.4327 7.34218L12.2452 7.3568V7.18129H12.0721L12.0577 6.99116H12.2308V6.81565H12.2163ZM11.7837 6.31837H11.9712L11.9856 6.49388L12.1442 6.47925L12.1587 6.66939L11.9856 6.68401L12 6.8449H11.8125L11.7981 6.66939L11.625 6.68401V6.49388H11.7981L11.7837 6.31837ZM11.6394 7.67857L11.625 7.48844L11.7981 7.47381V7.2983L11.9856 7.28367V7.47381L12.1587 7.45918V7.66395H12V7.83946L11.8269 7.85408V7.67857H11.6394ZM11.8846 8.76088C12 8.80476 15.2885 9.18503 16.9183 9.0534C16.8606 9.24354 16.5865 9.55068 16.2837 9.75544C16.4279 9.8432 16.5865 9.97483 16.6731 10.0333C16.7019 10.048 16.7163 10.0626 16.7308 10.0772C16.7308 10.0772 16.7019 10.0626 16.6731 10.0333C16.5288 9.94558 16.2548 9.81395 16.0817 9.77007C16.1971 9.69694 16.7019 9.31667 16.7308 9.14116C15.6202 9.17041 12.3029 9.03878 11.8269 8.89252H11.7837C11.7692 8.80476 11.7692 8.73163 11.8846 8.76088ZM11.5385 12.7976C11.7548 12.1833 12.274 11.9786 12.851 12.198C12.2596 12.2272 11.8413 12.3296 11.5385 12.7976ZM13.2548 12.1248C13.1106 12.0078 12.7356 11.7299 11.9423 11.3789C10.9038 10.867 10.024 11.4228 9.99519 11.452C9.99519 11.4374 9.64904 10.9109 9.69231 10.4721C9.75 9.9017 10.5 9.71156 11.0048 9.75544C10.4712 9.78469 10.1106 10.0626 9.96635 10.2673C9.82211 10.4867 9.83654 10.75 10.0385 11.1741C10.8173 10.9401 10.9904 10.9401 11.6106 11.0864C12.1587 11.1888 13.0096 11.9054 13.2548 12.1248C13.2981 12.1687 13.3269 12.1833 13.3269 12.1833C13.3269 12.1833 13.2981 12.1541 13.2548 12.1248ZM10.875 10.7793C10.6587 10.8231 10.4279 10.8524 10.3125 10.9255C10.399 10.5745 10.6298 10.5891 10.875 10.7793ZM11.7115 9.56531C11.5673 9.47755 11.3798 9.4483 11.3942 9.75544C11.4375 9.85782 12.6346 11.4082 14.149 12.5051C14.149 12.549 14.3221 12.6806 14.0481 12.5344C13.7885 12.3881 12.0288 10.984 11.2644 9.72619C11.2356 9.30204 11.5817 9.25816 11.8125 9.4483C11.9135 9.66769 12.5481 10.9109 14.3365 11.9932C13.3269 11.4813 12.4904 11.0718 11.7115 9.56531ZM14.9135 12.9878C14.7692 12.8854 14.625 12.783 14.4663 12.666C14.6106 12.7391 14.7548 12.8561 14.9135 12.9878C15.9519 13.7629 16.3413 14.3772 16.5577 14.9476C16.5865 14.4065 16.0673 12.7245 15.8942 12.3442C16.7163 13.0463 17.4663 14.0847 17.625 14.465C17.3654 13.6898 16.7308 12.3003 16.4279 11.9347C17.3942 12.3881 17.8269 12.8269 17.8269 12.8269C17.8269 12.8269 17.1346 11.5544 16.3269 11.4813L16.0962 11.2619C17.351 11.5398 17.625 11.8762 18.9087 14.4942C18.6058 14.1286 17.5529 12.6806 16.9183 12.4466C17.6683 13.5435 18.1298 14.465 17.9856 16.4687C17.6538 14.9915 16.774 13.3534 16.2837 13.0024C16.6587 13.7922 17.1346 15.05 16.774 16.6588C16.6875 15.7374 15.8942 13.8653 14.9135 12.9878ZM15.5481 17.5656C15.1587 17.6241 14.4952 17.4194 14.2933 17.1269C14.5962 17.1415 15.7067 16.8636 16.0385 16.0738C15.9808 16.5857 15.4183 17.1707 15.0721 17.2878C15.3317 17.3463 15.5337 17.4048 15.7212 17.2293C15.6923 17.5656 15.7212 17.9313 15.6346 18.0044C15.9375 17.6973 16.4423 17.2 16.5144 16.8051C16.6442 17.083 16.6154 17.785 16.5865 17.8728C16.875 17.5071 17.4087 16.7612 17.4952 16.2786C17.9279 16.7759 18.1442 17.4779 18.1442 17.6827C18.3173 16.8636 18.4327 16.2201 18.4038 16.0446C18.8365 16.7027 19.0817 17.3901 19.0962 17.2878C19.0529 16.2054 18.8365 14.8891 18.4904 14.4796C19.0817 14.8452 19.3702 16.0592 19.2837 18.1653C19.1394 17.7265 18.7644 17.083 18.5337 16.9367C18.5048 17.3463 18.375 18.2238 18.0144 18.4725C17.9856 18.0483 17.9279 17.0537 17.5385 16.7905C17.4808 17.2731 16.5865 18.2823 16.2692 18.4286C16.3413 18.1946 16.4135 17.6827 16.3269 17.6095C15.9375 18.1946 15.6202 18.4432 15.3029 18.4432C15.5192 18.0483 15.5769 17.8143 15.5481 17.5656ZM19.0962 18.5602L18.8221 18.5456C18.8221 18.3701 18.6779 18.0922 18.6779 18.0922C18.6779 18.0922 18.5913 18.4286 18.5913 18.5456H18.3173C18.4615 18.4725 18.5625 17.7997 18.649 17.5656C18.8077 17.7412 19.0673 18.3408 19.0962 18.5602ZM17.351 18.1214C17.351 18.1214 17.1202 18.3993 17.1058 18.5017H16.8462C16.976 18.4286 17.351 17.6241 17.4375 17.4048C17.625 17.5656 17.6106 18.3116 17.625 18.5163H17.351C17.3654 18.3408 17.351 18.1214 17.351 18.1214ZM14.4952 18.882H24.1731L24.1875 27.5697C24.101 28.6813 24.2019 30.1293 21.7356 30.1585C19.2692 30.1878 19.3125 31.0507 19.2404 32.2646C19.1683 30.9483 19.2404 30.1731 16.7596 30.0707C14.3798 29.983 14.5385 28.4327 14.4808 27.3357L14.4952 18.882ZM20.9567 37.4714C22.1394 39.1095 22.024 39.6653 21.4615 41.0694C21.9663 39.5629 21.4038 38.4952 20.9567 37.4714ZM19.9471 34.6633C20.8413 36.5354 22.1971 37.5153 22.4856 38.2759H22.226C21.4327 37.1204 19.9904 35.5993 19.9471 34.6633ZM19.3413 34.9119C19.4856 34.634 19.8606 33.3469 19.9183 32.8204L20.1923 32.7912C20.1779 33.0105 19.7019 34.5316 19.3413 34.9119ZM19.5 32.9228C19.774 32.484 20.3365 31.3724 20.4952 30.4803L20.7692 30.4656C20.726 30.6558 20.1202 32.1915 19.5 32.9228ZM16.774 40.9085C16.2548 39.4752 16.1394 38.9048 17.3798 37.3105C16.8894 38.3344 16.2837 39.3728 16.774 40.9085ZM16.0817 38.0857H15.8221C16.1106 37.3252 17.524 36.3891 18.4471 34.517C18.375 35.4677 16.8894 36.9449 16.0817 38.0857ZM18.2452 32.6449L18.5048 32.7034C18.5481 33.2299 18.9087 34.517 19.0385 34.8095C18.6923 34.4 18.2452 32.8789 18.2452 32.6449ZM17.7404 30.3048L18.0144 30.3194C18.1587 31.2408 18.6779 32.367 18.9375 32.7912C18.3317 32.0599 17.7692 30.4949 17.7404 30.3048ZM19.0673 35.1605L19.3125 35.1459C19.3413 36.7548 19.1538 40.7476 19.1394 40.733C19.1106 40.7037 18.9952 36.7694 19.0673 35.1605ZM19.1106 33.2884L19.3269 33.3177C19.2981 33.6687 19.226 34.0929 19.2115 34.0782C19.1971 34.0782 19.1394 33.6395 19.1106 33.2884ZM13.875 28.8714C13.601 29.0177 12.7788 29.1932 12.5625 29.632C13.2692 29.3395 13.6731 29.2517 13.9471 29.4126C13.5144 29.749 13.4423 29.8367 13.4712 29.9391C13.9327 29.8221 14.3365 29.866 14.5529 30.0415C13.7885 30.217 13.1538 30.3048 12.851 30.4949C12.8798 30.1878 12.9231 29.9537 13.0962 29.7636C12.3173 29.9976 11.8558 30.334 11.6394 30.568C11.8846 29.9099 12.0865 29.2371 13.875 28.8714ZM11.3221 31.5041C11.5529 31.2408 11.6394 31.0799 11.9279 30.9776C11.9279 31.2116 11.9279 31.431 12.0433 31.6503C12.1587 31.431 12.476 31.0361 12.5048 31.0068C12.3173 31.3724 12.101 32.0306 12.0721 32.2207C11.9135 32.0014 11.7981 31.7088 11.726 31.431C11.5962 31.4748 11.25 31.8259 11.1058 32.0014C11.0625 31.6942 11.0337 30.8459 11.2788 30.3194C11.2644 30.6997 11.25 31.3578 11.3221 31.5041ZM14.149 34.9119C13.8894 34.9412 13.125 34.9997 12.9663 34.9558C13.2115 34.8827 13.8606 34.7364 13.976 34.6925C13.9471 34.5463 13.9471 34.2684 14.0625 34.2684C14.2212 34.4293 14.3365 34.8095 14.149 34.9119ZM15.1731 33.4347C14.4231 33.5517 14.2788 33.4493 14.0625 32.7327C14.0192 32.8789 14.0625 33.5078 13.774 33.9027C13.5577 33.6687 13.4423 33.2007 13.3413 32.6741C13.2837 32.8497 13.2692 33.4493 13.1106 33.9612C12.9952 33.5663 12.7644 33.2153 12.4615 32.6888C12.3029 33.0105 12.0577 33.2446 11.6827 33.5078C11.7837 33.2884 11.6971 32.6156 11.5385 32.25C11.1635 32.601 10.875 32.8058 10.2837 32.7765C11.2067 32.601 9.67789 29.7782 11.7404 29.5003C10.1683 30.0269 11.1058 31.9867 10.8173 32.3816C10.9904 32.3963 11.351 32.1915 11.6538 31.7966C11.7548 32.0306 11.8702 32.4401 11.9567 32.9959C12.0577 32.952 12.2308 32.7473 12.3894 32.3963C12.5337 32.4694 12.8654 32.7619 13.024 33.1861C13.024 32.8058 13.1971 32.2793 13.3846 32.0891C13.4567 32.3231 13.5433 32.6888 13.7596 32.952C13.875 32.8497 13.9038 32.5425 13.9615 32.0452C14.0048 32.133 14.0769 32.3524 14.3077 32.6303C14.3077 32.3378 14.4375 31.9282 14.899 31.4602C14.3365 32.2354 14.4087 32.9959 15.1731 33.4347ZM12.6058 31.9136C12.5769 31.1092 13.2404 30.4949 14.8558 30.1878C13.9038 30.6997 13.2981 30.919 13.125 31.3578C13.875 31.0361 15.5481 30.8167 16.1538 31.0799C15.274 30.9337 13.2981 31.2993 12.6058 31.9136ZM14.4231 30.7289C15.375 30.3925 15.7644 30.0561 16.9471 31.2554C16.4567 30.919 15.8077 30.4364 14.4231 30.7289ZM16.8462 30.3048L17.1202 30.3194C17.3365 30.9776 17.8558 31.7527 18.101 32.3085C17.4087 31.6211 17.0337 30.7728 16.8462 30.3048ZM16.7596 34.4146C16.976 34.3561 17.7837 33.3762 17.625 32.5864C17.7692 32.9813 17.6683 33.7857 17.5817 33.8442C17.7692 33.7272 18.101 33.3177 18.101 33.2884C17.9856 33.7565 17.7115 34.4585 16.7596 34.4146ZM14.4519 41.2742C13.8462 41.201 13.2981 40.9963 12.9519 39.4752C12.6635 39.6507 12.2885 40.2211 12.2308 40.4112C12.0144 39.8993 11.4952 38.7878 12.6635 38.0272C12.0288 37.5153 11.8846 36.9303 12.5192 36.5207C12.6346 36.9595 13.1827 37.5446 14.0625 36.901C14.9712 36.2867 15.5337 35.8918 15.851 35.8918C15.274 36.2721 14.2356 37.2082 13.6154 37.3544C13.0096 37.5153 12.649 37.3105 12.4615 37.2374C12.6058 37.6908 12.851 37.9541 13.1538 38.0711C12.5769 38.4806 12.1154 38.9633 12.4183 39.4459C12.7356 39.0656 13.1394 38.9633 13.2981 39.051C13.5144 40.2065 14.0192 41.2156 14.6971 40.8061C15.2885 40.382 15.3173 40.3527 15.3894 40.3527C14.8846 40.2357 13.9904 40.2065 14.4231 38.7439C14.9712 38.9925 15.3029 38.8901 15.5481 38.6415C15.1442 38.2466 14.9423 37.5299 15.1442 37.252C15.4615 36.9595 17.9423 34.7656 18.0288 34.5755C17.625 35.3214 15.8942 36.7255 15.4904 37.252C15.0865 37.7786 15.7788 38.6415 16.125 38.5245C15.6635 39.0949 15.2452 39.4167 14.6394 39.2119C14.3365 40.1772 16.5577 39.6946 16.2692 40.9816C15.0144 40.3088 15 41.3473 14.4519 41.2742ZM12.9952 38.6269C13.2837 38.4367 15.1587 36.7109 15.7067 36.3599C13.9471 37.9395 13.9327 39.2265 13.875 39.8116C13.6442 39.5629 13.6587 38.9633 13.8462 38.4221C13.7019 38.3344 13.4856 38.4367 12.9952 38.6269ZM15.6635 39.8408L15.3894 39.7969L15.3606 39.3728L15.6346 39.2704C15.649 39.4459 15.5913 39.5629 15.6635 39.8408ZM15.6923 40.9816L15.9808 40.9524C16.5433 41.5228 17.2788 41.8884 17.7837 41.435C17.2067 41.0986 16.7308 40.499 17.0769 39.5337C17.3942 38.5684 18.6346 35.219 18.6779 35.1605C18.4904 36.3599 17.5673 38.7 17.3654 39.4752C17.1346 40.2796 17.4375 41.4204 18.5625 41.0109C18.1587 41.7276 17.0913 42.766 15.6923 40.9816ZM18.1587 40.8207L17.7981 40.7476C17.7115 40.4405 17.9279 39.5337 18.0433 39.2558C18.0433 39.6214 18.0433 40.5575 18.1587 40.8207ZM19.1106 42.7221C18.7644 42.532 18.3029 41.9031 18.3173 41.9031L18.4904 41.6105C18.6058 41.8592 18.8942 42.1663 19.0962 42.3126C19.3125 42.1371 19.5865 41.8446 19.7019 41.6105L19.8894 41.9031C19.9183 41.9031 19.4423 42.5173 19.1106 42.7221ZM19.6442 41.0694C20.7837 41.4935 21.101 40.4258 20.899 39.6507C20.6971 38.8316 19.8462 36.4915 19.6875 35.2922C19.7163 35.3361 20.8558 38.7439 21.1731 39.7092C21.476 40.6891 21 41.2741 20.4231 41.5813C20.9135 42.0639 21.6635 41.7276 22.226 41.1425L22.5144 41.1864C21.0865 42.9269 20.0481 41.8153 19.6442 41.0694ZM20.0625 40.9524C20.1779 40.7037 20.2067 39.7531 20.2067 39.3874C20.351 39.6653 20.524 40.5575 20.4231 40.8793L20.0625 40.9524ZM23.1635 37.4714C23.4519 37.7493 23.1346 38.466 22.7163 38.8316C22.9471 39.1095 23.3654 39.1973 23.9135 38.9779C24.3317 40.4405 23.4231 40.4405 22.8317 40.5575C22.9038 40.5575 22.9471 40.5867 23.5962 41.0109C24.274 41.4497 24.8221 40.4405 25.0385 39.285C25.2115 39.1973 25.5865 39.3143 25.9183 39.7092C26.2212 39.2265 25.774 38.7585 25.2115 38.3344C25.5144 38.2466 25.8029 37.9687 25.9327 37.5299C25.7596 37.6031 25.4135 37.7786 24.7933 37.6031C24.1731 37.4568 23.0769 36.4915 22.5 36.0966C22.8173 36.0966 23.4663 36.4915 24.3462 37.1497C25.226 37.8224 25.774 37.2374 25.9038 36.8133C26.5096 37.252 26.3798 37.8224 25.7163 38.3051C26.8558 39.1095 26.3221 40.2065 26.1058 40.7184C26.0481 40.5136 25.6587 39.9432 25.4135 39.7677C25.024 41.2595 24.4471 41.4643 23.8558 41.5228C23.2788 41.5813 23.25 40.5575 21.9663 41.1571C21.7067 39.8847 23.9856 40.4112 23.7115 39.4459C23.0337 39.6507 22.601 39.2997 22.1538 38.7146C22.4856 38.8463 23.2212 37.998 22.8173 37.4568C22.4279 36.9303 20.726 35.4823 20.3365 34.7071C20.4231 34.8973 22.8462 37.1643 23.1635 37.4714ZM24.4615 40.0602C24.4183 39.4752 24.4471 38.1735 22.6442 36.55C23.1923 36.9156 25.0962 38.7 25.3846 38.8755C24.9087 38.6854 24.6779 38.5684 24.5337 38.6561C24.6923 39.2119 24.6923 39.8554 24.4615 40.0602ZM22.6154 39.4752L22.8894 39.5629L22.8462 40.0017L22.5721 40.031C22.6731 39.7677 22.6154 39.6507 22.6154 39.4752ZM21.649 34.5755C20.6971 34.6048 20.4231 33.9027 20.3221 33.4201C20.3221 33.4347 20.6394 33.8735 20.8269 33.9905C20.7404 33.932 20.6683 33.1422 20.7981 32.7473C20.6394 33.5078 21.4183 34.5316 21.649 34.5755ZM20.3221 32.4548C20.6106 31.899 21.1298 31.1384 21.3606 30.4949L21.6346 30.4803C21.4471 30.9483 21.0577 31.782 20.3221 32.4548ZM24.1442 30.9776C22.6731 30.6558 22.024 31.1092 21.5192 31.4456C22.7308 30.2609 23.1202 30.6119 24.1442 30.9776ZM22.3125 31.2847C22.9183 31.0214 24.6635 31.2847 25.4135 31.6357C25.2692 31.1823 24.6635 30.9483 23.726 30.4218C25.3269 30.7582 25.976 31.3871 25.9327 32.2061C25.2692 31.5626 23.2212 31.1531 22.3125 31.2847ZM24.3173 35.1605C24.1442 35.0435 24.2596 34.6633 24.4038 34.517C24.5337 34.5463 24.5192 34.7949 24.4904 34.9412C24.6058 34.985 25.2404 35.1313 25.5 35.2337C25.3413 35.2775 24.5625 35.219 24.3173 35.1605ZM28.2692 33.1276C27.6779 33.1568 27.3894 32.9228 27.0144 32.5718C26.8702 32.9228 26.7548 33.6102 26.8413 33.815C26.4808 33.5517 26.25 33.3177 26.0913 32.9813C25.774 33.5078 25.5433 33.8442 25.4279 34.2537C25.2548 33.7272 25.2548 33.1276 25.2115 32.952C25.0817 33.4786 24.9663 33.932 24.75 34.166C24.4615 33.7711 24.5192 33.1422 24.4615 32.9959C24.2452 33.7272 24.101 33.8003 23.351 33.6687C24.1154 33.2446 24.2163 32.484 23.726 31.6942C24.1587 32.1915 24.274 32.5864 24.274 32.8789C24.4904 32.6303 24.5769 32.4109 24.6346 32.3378C24.6635 32.8204 24.6923 33.1422 24.8077 33.2446C25.0385 32.9667 25.1106 32.601 25.1971 32.3816C25.3702 32.5864 25.5433 33.1129 25.5288 33.3908C25.7019 33.0544 26.0481 32.7912 26.1923 32.718C26.3365 33.0544 26.4952 33.2738 26.625 33.3177C26.7115 32.7473 26.8413 32.3524 26.9423 32.1184C27.2308 32.5133 27.5913 32.7327 27.7644 32.718C27.476 32.3231 28.5 30.3925 26.9135 29.8221C28.9471 30.1439 27.3462 32.9228 28.2692 33.1276ZM27.274 30.6265C27.5192 31.1677 27.4615 32.0014 27.4183 32.3231C27.274 32.1476 26.9279 31.7673 26.8125 31.7235C26.726 32.0014 26.5962 32.2793 26.4375 32.5133C26.4087 32.3231 26.2212 31.665 26.0481 31.2847C26.0625 31.3139 26.3798 31.7235 26.4952 31.9282C26.5962 31.7088 26.6394 31.5187 26.625 31.2554C26.9135 31.4017 27 31.548 27.2308 31.7966C27.2885 31.6796 27.3173 31.0068 27.274 30.6265ZM25.1106 30.1878C25.125 30.1 25.0673 29.9976 24.6346 29.6612C24.9375 29.515 25.3125 29.5881 26.0337 29.9099C25.8173 29.4711 24.9952 29.2517 24.7356 29.1201C26.5096 29.5296 26.6827 30.2024 26.9135 30.8605C26.7115 30.6265 26.2644 30.2755 25.5 30.0269C25.6731 30.217 25.7019 30.4656 25.7308 30.7582C25.4135 30.568 24.7933 30.451 24.0288 30.2609C24.2596 30.1 24.649 30.0561 25.1106 30.1878ZM38.4808 16.0299C38.0337 16.9952 36.3173 17.668 35.1779 17.9752C35.8413 17.668 37.5144 16.9221 37.774 16.3517C37.1971 16.2639 35.8702 16.5857 35.0337 16.849C36.0288 16.3371 37.3702 15.7228 38.4808 16.0299ZM36.1298 22.7286C35.625 22.6408 34.5433 22.3629 33.6923 22.0412L33.8221 21.734C34.601 22.0558 35.726 22.4799 36.1298 22.7286ZM33.9375 15.8983C34.601 15.6935 36.1731 14.8014 36.4904 14.5235C36.274 14.9037 34.8462 15.8544 34.0385 16.2347L33.9375 15.8983ZM34.1394 20.4323C34.976 20.5493 36.1442 20.6517 36.6058 20.798C36.1154 20.8565 34.976 20.8565 34.0817 20.7687L34.1394 20.4323ZM34.1394 17.4048C34.8029 17.2878 36.6779 16.7905 37.0673 16.6735C36.6779 16.9514 35.0769 17.4925 34.2115 17.7265L34.1394 17.4048ZM34.2837 18.9697C35.1346 18.8966 36.5048 18.8235 36.9663 18.8527C36.5048 18.999 35.1923 19.1745 34.3125 19.3061L34.2837 18.9697ZM37.8606 13.6752C37.5577 14.699 36.0577 15.7228 34.976 16.1908C35.5673 15.7959 37.0385 14.699 37.226 14.0993C36.6346 14.0993 35.3798 14.6112 34.5865 14.9769C35.4663 14.3333 36.7212 13.5582 37.8606 13.6752ZM37.399 10.7207C37.4856 12.6075 35.4808 13.8068 34.3846 14.4503C35.3221 13.7483 36.5337 12.7245 36.8365 11.6422C36.4183 12.1687 34.6587 13.1925 33.9808 13.4704C35.4231 12.5636 37.226 10.9548 37.399 10.7207ZM36.1154 12.5197C35.9712 12.9293 34.4279 14.0847 33.6923 14.6112L33.6346 14.2895C34.2404 13.9969 35.8558 12.8854 36.1154 12.5197ZM36.3173 7.44456C36.9375 9.40442 34.875 11.5252 33.8942 12.4759C34.6875 11.4959 36 9.77007 36 8.57075C35.7115 9.22891 33.8798 11.0571 33.2596 11.5252C34.4856 10.2088 36.2019 7.7517 36.3173 7.44456ZM35.1202 10.2088C35.0337 10.6476 33.7788 12.2126 33.1442 12.8561L33.0144 12.549C33.5769 12.1248 34.9327 10.6037 35.1202 10.2088ZM30.8077 14.699C31.1538 14.4357 31.9183 13.5728 32.1346 13.0755C32.0769 13.7483 31.0817 14.7575 30.9231 14.8745C30.75 14.9915 30.649 14.8599 30.8077 14.699ZM30.5769 16.3956C30.5769 16.3956 31.7452 15.7228 31.8317 15.6789C31.9471 15.6058 32.0481 15.7228 31.9471 15.8105C31.8317 15.8837 30.7788 16.4687 30.6779 16.5418C30.5625 16.615 30.476 16.4541 30.5769 16.3956ZM30.3029 21.3391C30.1587 21.2952 30.274 21.1197 30.3894 21.1929C30.3894 21.1929 31.3125 21.6755 31.4279 21.7194C31.5433 21.7779 31.4856 21.9388 31.3702 21.8803C31.2548 21.8364 30.4471 21.4122 30.3029 21.3391ZM30.5048 23.0796C30.4327 23.0065 29.726 22.2605 29.6106 22.1582C29.524 22.0558 29.6683 21.9388 29.7548 22.0412C29.7548 22.0412 30.5337 22.8602 30.6346 22.948C30.6923 23.0503 30.5769 23.1673 30.5048 23.0796ZM30.7212 20.3153C30.5625 20.3007 30.6202 20.1105 30.7356 20.1398C30.7356 20.1398 31.774 20.3007 31.9038 20.3153C32.0192 20.3299 32.0192 20.5054 31.9038 20.4908C31.774 20.4762 30.8798 20.3299 30.7212 20.3153ZM30.9375 18.9258C30.9375 18.9258 31.9904 18.9258 32.1058 18.9258C32.2356 18.9258 32.2644 19.0867 32.149 19.0867C32.0192 19.1014 31.0962 19.1014 30.9375 19.116C30.7788 19.116 30.8077 18.9258 30.9375 18.9258ZM30.9087 17.785C30.7644 17.8435 30.7356 17.6534 30.8654 17.6241C30.8654 17.6241 31.8606 17.317 31.976 17.2731C32.0913 17.2293 32.1635 17.3901 32.0481 17.4194C31.9327 17.4779 31.0529 17.7412 30.9087 17.785ZM27.7933 17.5949C27.5913 17.4779 27.7356 17.4048 27.8077 17.3024C27.8798 17.2 29.2067 15.7959 29.4663 15.7228C29.1058 16.0007 28.0096 17.3609 28.0096 17.4048C28.0096 17.4486 27.9952 17.7119 27.7933 17.5949ZM27.7788 21.4122C27.9231 21.2367 28.2548 21.9095 28.2404 22.0558C28.226 22.1874 27.7212 21.4707 27.7788 21.4122ZM26.6106 21.8218C26.7981 21.7048 26.899 22.4507 26.8413 22.5823C26.7981 22.6993 26.5385 21.8656 26.6106 21.8218ZM25.4279 21.734C25.6442 21.7194 25.399 22.4214 25.2837 22.5092C25.1683 22.6116 25.3413 21.734 25.4279 21.734ZM24.75 19.0721C25.0673 19.0136 25.5288 18.7503 25.7163 18.6187C25.9038 19.0136 25.5433 19.8473 24.75 19.9204C25.0962 19.7156 25.4423 19.5109 25.5288 18.9405C25.2981 19.0429 24.9231 19.1599 24.75 19.0721ZM24.6058 22.2752C24.6635 22.0558 25.024 21.5878 25.0385 21.5731C24.8798 21.8364 24.6635 22.319 24.7933 22.5092C24.9375 22.6993 25.125 23.065 25.125 23.0503C25.125 23.0503 25.5144 22.8895 25.7308 22.831C25.9471 22.7724 26.0913 22.2459 26.1202 21.8803C26.1058 22.1582 26.0913 22.6993 26.3077 22.831C26.5096 22.9187 26.8413 23.182 26.8413 23.1527C26.8269 23.1527 27.1154 22.8602 27.274 22.7139C27.4615 22.5677 27.3606 22.0412 27.2596 21.7048C27.3894 21.9973 27.6058 22.5092 27.8221 22.5092C28.0529 22.5238 28.4856 22.6262 28.4567 22.6262C28.4567 22.6262 28.5865 22.2167 28.6731 22.0265C28.774 21.8218 28.4856 21.383 28.2692 21.1197C28.4856 21.3684 28.9038 21.8071 29.1635 21.7194C29.4231 21.6463 29.8846 21.5731 29.8702 21.5731C29.8702 21.5878 29.8558 21.1344 29.8702 20.8565C29.899 20.5932 29.4087 20.2568 29.0048 20.0667C29.3221 20.1398 29.9135 20.2129 30.0721 19.9935C30.2308 19.7595 30.5337 19.4085 30.5192 19.4231C30.5192 19.4231 30.2308 19.0721 30.0577 18.8673C29.9135 18.648 29.3221 18.7065 28.976 18.7942C29.351 18.6772 29.9423 18.4871 29.9567 18.2384C29.9856 17.9752 30.1154 17.5071 30.1154 17.5071C30.1154 17.5218 29.6827 17.3609 29.4519 17.2146C29.2212 17.0976 28.7163 17.4194 28.4279 17.6388C29.4952 16.8197 30.3894 15.4741 30.4615 14.231L30.4904 14.2895C30.4038 15.3425 30.0433 16.2347 29.3798 16.9367C29.4952 16.966 29.6827 17.0245 29.7548 17.083C29.7981 17.1122 30.4038 17.3755 30.4038 17.3755C30.4038 17.3609 30.2308 17.8143 30.2163 18.0776C30.2019 18.3701 30.0865 18.4724 29.8413 18.6041C30.1154 18.5602 30.1875 18.6626 30.3462 18.9112C30.4904 19.1306 30.7933 19.4963 30.7933 19.4816C30.7933 19.467 30.4471 19.7888 30.274 20.0228C30.1298 20.2568 29.9712 20.3007 29.7404 20.3007C29.9712 20.5201 30.0433 20.5932 30.0144 20.9003C30.0144 21.2075 30.0144 21.734 30.0144 21.734C30.0288 21.734 29.5817 21.7486 29.351 21.8218C29.1202 21.8949 29.0481 21.9534 28.8029 21.7925C28.9038 21.9973 28.8606 22.085 28.774 22.2752C28.6875 22.4507 28.5721 22.8456 28.5721 22.8456C28.601 22.8456 28.1971 22.6847 27.9663 22.6847C27.75 22.6847 27.6202 22.6554 27.5048 22.4799C27.5337 22.7432 27.3894 22.8017 27.2452 22.948C27.101 23.0796 26.8413 23.416 26.8558 23.416C26.8558 23.416 26.5385 23.1235 26.3365 23.065C26.1202 23.0065 26.0769 22.9187 26.0481 22.7139C25.976 22.948 25.7885 23.0065 25.601 23.065C25.399 23.1088 25.0529 23.299 25.0529 23.3136C25.0529 23.3136 24.8798 22.9041 24.7356 22.7724C24.6058 22.6408 24.5481 22.4946 24.6058 22.2752ZM28.5288 18.2823C28.399 18.0922 29.1635 17.9313 29.2933 17.9898C29.4375 18.0483 28.5577 18.3554 28.5288 18.2823ZM29.6538 19.3939C29.7837 19.4963 28.7452 19.5401 28.7163 19.4524C28.6442 19.2476 29.5096 19.3061 29.6538 19.3939ZM29.2356 21.0612C29.2933 21.2367 28.4856 20.7248 28.5 20.6517C28.5577 20.3738 29.1923 20.8857 29.2356 21.0612ZM29.2644 23.9571C29.2067 23.8694 28.8029 23.0942 28.7452 22.9918C28.6587 22.8895 28.8173 22.7871 28.875 22.8895C28.875 22.8895 29.3365 23.7378 29.4231 23.8694C29.4663 23.9571 29.3221 24.0595 29.2644 23.9571ZM27.75 24.4837C27.7067 24.3667 27.5048 23.4452 27.4615 23.3136C27.4038 23.1527 27.6058 23.1381 27.6202 23.2551C27.6202 23.2551 27.851 24.3082 27.8942 24.4252C27.9375 24.5422 27.7788 24.6153 27.75 24.4837ZM26.4519 24.6153C26.4663 24.7616 26.2933 24.7908 26.2933 24.6446C26.2933 24.5276 26.2933 23.5915 26.2644 23.4452C26.2644 23.2844 26.4375 23.3136 26.4375 23.4452C26.4375 23.4452 26.4519 24.5129 26.4519 24.6153ZM25.1538 23.5915C25.1538 23.5915 24.8654 24.6153 24.8365 24.7469C24.8221 24.8639 24.6346 24.8347 24.6779 24.7323C24.6779 24.6153 24.9519 23.7085 24.9952 23.5476C25.0096 23.3867 25.1971 23.4745 25.1538 23.5915ZM27.6058 28.2425C26.625 27.7014 26.8125 27.365 26.9567 26.1071C27.0144 26.8238 26.9135 27.3211 27.5913 27.7599C28.1394 27.4381 28.0817 27.0432 28.1538 26.1803C28.2404 27.248 28.4712 27.6282 27.6058 28.2425ZM27.4038 25.8146L27.7356 25.8731C27.6779 26.7068 27.5913 26.9262 27.5048 27.3796C27.4183 26.8969 27.3894 26.7361 27.4038 25.8146ZM30.0577 28.3741C29.1058 28.0378 29.0048 27.4235 28.875 26.1949C29.0769 26.8677 29.3942 27.8184 29.9279 27.9207C30.3029 27.6429 30.1587 26.8677 30.0577 25.9901C30.3894 27.0432 30.6779 27.716 30.0577 28.3741ZM29.1779 25.683L29.5096 25.6537C29.5962 26.4874 29.8269 27.0139 29.8125 27.482C29.6538 27.0139 29.3221 26.5752 29.1779 25.683ZM32.3654 27.8184C31.3702 27.7306 31.125 27.0139 30.6923 25.8439C31.0673 26.4582 31.601 27.3211 32.1202 27.2918C32.4231 26.9408 32.1779 26.2095 31.8462 25.4051C32.4231 26.3265 32.7837 27.0139 32.3654 27.8184ZM31.9038 26.9262C31.6298 26.5313 31.125 25.917 30.7356 25.098L31.0529 24.9663C31.3558 25.7561 31.7885 26.4582 31.9038 26.9262ZM34.4567 26.6044C33.476 26.8238 33.1875 26.034 32.4087 25.0687C32.9279 25.5221 33.5481 26.3704 34.0529 26.1656C34.226 25.7415 33.7067 25.098 33.1731 24.4252C34.024 25.1126 34.601 25.6976 34.4567 26.6044ZM33.7644 25.8731C33.3606 25.5806 32.6538 24.9663 32.0481 24.2935L32.3077 24.0888C32.8413 24.7323 33.5192 25.4636 33.7644 25.8731ZM32.726 22.2605C32.6394 22.5384 32.1923 22.8163 31.5433 22.8163C31.601 23.1527 31.5433 23.5184 31.3413 24.0156C31.1106 24.1912 30.6058 24.1034 30.1442 23.9133C30.1298 24.235 30.0577 24.4837 29.8558 24.8054C29.4952 24.9517 29.1635 24.8054 28.7885 24.5714C28.7596 24.9663 28.4135 25.1857 28.1538 25.449C27.5337 25.4197 27.3317 25.215 27.1298 24.8786C27.0577 25.0833 26.9712 25.3466 26.4952 25.6099C25.9471 25.4929 25.7596 25.3173 25.5288 24.9078C25.2115 25.4636 24.9375 25.6099 24.4615 25.5367V25.3759C24.8942 25.4929 25.3125 25.1126 25.6154 24.3228C25.7163 24.8786 25.8606 25.215 26.4663 25.4051C26.7981 25.2735 27.0433 25.0833 27.0577 24.235C27.2596 24.8932 27.5481 25.1711 28.1106 25.2442C28.7452 24.7323 28.6298 24.3813 28.4567 23.7378C28.774 24.3082 28.9471 24.6153 29.7115 24.5861C30.101 24.0303 29.9279 23.65 29.6827 23.0357C30.1442 23.7524 30.4038 23.9571 31.1683 23.8109C31.5 22.948 31.2981 22.6554 30.8942 22.2459C31.5 22.6116 31.8317 22.7724 32.4808 22.1582C32.4663 21.5146 32.25 21.2806 31.5 21.032C32.1779 21.2367 32.6106 21.3099 33.0865 20.6224C32.899 19.8912 32.5962 19.7595 31.8606 19.7303C32.625 19.7888 33.1154 19.6864 33.5625 18.9844C32.9856 17.9313 32.6827 18.0776 32.0048 18.1653C33 17.9459 33.375 17.6827 33.5337 16.7905C32.7692 16.1762 32.3221 16.4395 31.5288 16.849C32.7404 16.1323 33.3173 15.3718 33.2452 14.8014C32.5673 14.3772 31.3558 15.2548 30.8221 15.6204C32.7115 14.2163 32.5385 13.0609 32.5096 12.1248C32.8846 13.251 32.6106 13.8507 32.1923 14.5527C32.4087 14.4503 33.3029 14.3772 33.476 14.6259C33.6635 14.8745 33.3894 15.6497 32.7692 16.2054C33.0288 16.1469 33.6635 16.4395 33.7788 16.7027C33.8798 16.9514 33.5625 17.5656 33.1731 18.0337C33.3894 18.2238 33.649 18.5017 33.8221 18.9258C33.7067 19.35 33.3317 19.6571 32.9856 19.818C33.1298 19.9935 33.2452 20.3446 33.3173 20.681C33.2452 20.8272 33.101 21.1197 32.524 21.383C32.6106 21.5146 32.726 21.9241 32.726 22.2605ZM33.2885 23.0211C33.9808 23.4891 34.8173 24.0888 35.1635 24.3959C34.7019 24.2204 33.8798 23.7524 33.101 23.2844L33.2885 23.0211ZM36.0577 24.9517C35.1346 25.3759 34.4712 24.8493 33.5337 24.0449C34.1394 24.3959 35.0913 24.9224 35.5385 24.6153C35.625 24.1619 34.9471 23.5915 34.2692 23.065C35.2356 23.5769 36.0288 24.0595 36.0577 24.9517ZM37.2115 23.065C36.2019 23.5769 35.4808 23.2551 34.4423 22.6701C35.1202 22.8748 36.1154 23.0942 36.6779 22.8456C36.3029 22.3922 35.6683 22.0119 34.9038 21.6463C35.9423 21.9388 36.7067 22.0265 37.2115 23.065ZM37.9038 20.7541C37.125 21.5585 36.1298 21.5293 34.9471 21.2952C35.6394 21.2806 36.8654 21.2075 37.3269 20.798C36.851 20.4762 35.8413 20.2422 34.9615 20.1252C36.0577 20.0667 37.024 20.0228 37.9038 20.7541ZM38.3654 18.6772C37.6442 19.4524 36.1731 19.7303 35.0048 19.6571C35.6971 19.5694 37.226 19.2184 37.6731 18.765C37.1538 18.4725 36.101 18.4871 35.25 18.4725C36.3173 18.3262 37.3846 18.0629 38.3654 18.6772ZM30.2308 33.069L31.8317 33.0252L31.8894 31.4748C31.1683 31.4748 30.476 32.3231 30.2308 33.069ZM3.04327 25.1418C3.34615 25.1418 3.72115 25.1126 3.66346 24.8054C3.60577 24.4983 3.375 24.469 3.375 24.3228C3.64904 23.7524 3.89423 23.3575 3.41827 22.4799C3.31731 22.6993 2.88462 23.3867 2.74038 22.7139C2.92788 22.4653 2.53846 22.4361 2.55288 22.319C2.58173 22.4361 2.22115 22.4653 2.39423 22.7139L2.22115 22.6993C2.26442 22.2605 1.875 22.319 1.78846 22.1874C1.77404 22.3776 1.41346 22.5238 1.67308 22.8748L1.52885 22.9626C1.54327 22.6701 1.22596 22.831 1.16827 22.7139C1.25481 22.8163 0.9375 23.0357 1.24038 23.1527C1.44231 23.7963 0.721154 23.4452 0.519231 23.299C0.548077 24.2935 0.966346 24.4983 1.5 24.8493C1.57212 24.981 1.37019 25.1272 1.48558 25.4197C1.58654 25.7122 1.93269 25.5514 2.17788 25.3759C2.22115 25.2588 2.36538 25.098 2.55288 25.0541C2.75481 25.0102 2.95673 25.0541 3.04327 25.1418ZM2.95673 24.3813C3.10096 24.3667 3.1875 24.4252 3.30288 24.3959C3.46154 24.7908 2.69712 25.2442 2.87019 24.5861C2.91346 24.5276 2.92788 24.4252 2.95673 24.3813ZM2.65385 23.2405C2.66827 23.1381 2.8125 23.065 2.89904 23.0796C2.95673 23.2259 2.82692 23.8255 2.63942 23.6354C2.61058 23.533 2.63942 23.2697 2.65385 23.2405ZM1.99038 22.8895C2.16346 22.8163 2.72596 22.6116 2.13462 23.3867C1.24038 23.0503 1.80288 22.948 1.99038 22.8895ZM1.3125 23.533C1.38462 23.4745 1.54327 23.4891 1.61538 23.5622C1.62981 23.5622 1.77404 23.7963 1.78846 23.8986C1.71635 24.1473 1.3125 23.6793 1.3125 23.533ZM1.62981 24.8054C1.73077 24.8054 1.80288 24.6884 1.91827 24.6592C1.94712 24.6884 2.01923 24.7908 2.07692 24.8054C2.53846 25.3173 1.62981 25.2296 1.62981 24.8054ZM1.875 23.9718L2.59615 23.767C2.75481 24.1912 2.84135 24.469 2.49519 24.7616C2.01923 24.7177 1.94712 24.4252 1.875 23.9718ZM2.56731 23.8401L1.96154 24.0156C2.01923 24.3959 2.09135 24.6299 2.48077 24.6738C2.76923 24.4252 2.69712 24.1912 2.56731 23.8401ZM22.024 23.3282L21.9375 23.2697C21.9375 23.299 21.7788 23.3429 21.7067 23.3429L21.75 23.4891C21.8654 23.4745 21.9663 23.4014 22.024 23.3282Z" fill="#505B67"/>
</g>
<defs>
<clipPath id="clip0_147_2091">
<rect width="39" height="43" fill="white"/>
</clipPath>
</defs>
</svg>
