<svg width="49" height="52" viewBox="0 0 49 52" fill="none" xmlns="http://www.w3.org/2000/svg">
<g clip-path="url(#clip0_83_160)">
<path fill-rule="evenodd" clip-rule="evenodd" d="M6.59051 38.3986C6.59051 38.2395 6.55501 37.9918 6.41299 37.868C6.18222 38.2925 5.68518 38.2748 5.43666 38.151C5.38341 38.2748 5.41891 38.6286 5.57867 38.717C5.88045 38.8762 6.37749 38.8762 6.59051 38.3986ZM5.8982 38.9469C5.43666 40.3619 7.74435 39.9197 6.57276 38.7347C6.39524 38.8408 6.04021 38.9823 5.8982 38.9469ZM4.17631 31.9252C4.17631 31.8014 4.05205 31.7306 3.91003 31.7129C3.69702 31.9782 3.46625 31.9252 3.37749 31.8898C3.25323 31.9782 3.25323 32.0844 3.32424 32.2435C3.55501 32.3143 3.91003 32.4027 4.17631 31.9252ZM3.41299 31.6068C3.41299 31.6952 3.50175 31.7837 3.59051 31.7837C3.67927 31.7837 3.76802 31.6952 3.76802 31.6068C3.76802 31.5184 3.67927 31.4299 3.59051 31.4299C3.50175 31.4299 3.41299 31.5184 3.41299 31.6068ZM6.30648 37.7088L4.05205 32.2789C3.94554 32.385 3.80353 32.4027 3.69702 32.4027L5.45441 37.9211C5.79169 38.2218 6.14672 38.0272 6.30648 37.7088ZM6.04021 39.9905C5.82719 40.0966 5.88045 40.4857 6.18222 40.5742C6.73252 40.6095 6.92779 40.5388 7.46033 40.1673C7.51359 39.8313 7.46033 39.6721 7.12305 39.6367C6.98104 39.902 6.28873 40.0966 6.04021 39.9905ZM26.9692 27.8748C26.8982 27.8748 26.6852 27.8218 26.5254 27.7687L26.6142 27.9633C26.7384 27.981 26.916 28.0517 27.0047 28.0517L26.9692 27.8748ZM40.8509 38.0626L40.7799 39.9905L42.7325 40.2381C42.5018 39.3184 41.7384 38.151 40.8509 38.0626ZM8.13489 45.9864C8.09938 46.3048 8.17039 46.8531 8.64968 46.8531C9.19998 46.9415 9.66151 46.6762 9.87453 46.4816C10.0875 46.2871 9.89228 45.8095 9.66151 45.5796C9.18222 46.4463 8.75619 46.2163 8.13489 45.9864ZM8.95146 47.0476C9.32424 47.8082 10.1408 47.3306 9.85678 46.7293C9.66151 46.8884 9.18222 47.0476 8.95146 47.0476ZM41.5787 43.0327C41.2769 42.8558 41.0461 42.9619 40.9396 43.4395C40.8154 43.5986 40.5846 43.7048 40.0875 43.8639C39.5905 44.0054 39.3597 44.2531 39.129 44.4122C39.129 44.4122 39.2177 44.5537 39.3952 44.483C39.5728 44.3946 40.2828 44.3415 40.4781 44.1823C40.6556 44.0408 40.9396 43.8109 41.1526 43.6871C41.4189 43.7578 41.8982 43.2095 41.5787 43.0327ZM3.71477 31.3238C3.82128 31.2354 3.89228 31.0762 3.89228 30.9347C3.89228 30.6517 3.66151 30.4218 3.37749 30.4218C3.11122 30.4218 2.88045 30.6517 2.88045 30.9347C2.88045 31.2177 3.11122 31.4476 3.34199 31.4299C3.37749 31.3061 3.59051 31.2 3.71477 31.3238ZM18.768 31.4299C18.9455 31.4476 19.2296 30.7048 19.2296 30.7048C19.2296 30.7048 19.3006 31.1646 19.1763 31.4299C19.4781 31.3238 19.7266 30.6694 19.7266 30.6694C19.7266 30.6694 19.7799 31.1293 19.6733 31.3946C20.2946 31.2 20.2591 29.6966 20.6852 29.4136C20.4189 29.6435 21.2532 31.1646 20.3124 31.4122C20.4189 31.766 20.2236 32.951 19.9574 33.2694C19.7266 33.6054 19.9574 33.6585 19.9751 33.7293C20.0284 33.7646 19.8864 34.1537 19.8864 34.2952C20.3834 34.6844 20.7029 34.2776 20.7029 34.2422C20.7029 34.2068 20.6319 33.9769 20.5609 33.8531C20.3657 33.0395 20.9337 32.2612 21.0225 32.1374C21.1112 31.9959 22.0343 31.6422 22.1408 31.5891C22.2296 31.5361 22.4071 31.766 22.4248 31.8721C22.4426 32.0136 22.2473 32.0844 22.2828 32.2789C22.3006 32.4735 22.9751 32.8803 22.9751 32.8803C22.9751 32.8803 23.3834 33.2163 23.4189 33.3755C23.4544 33.517 23.5609 33.5347 23.6497 33.5524C23.7207 33.5701 23.916 33.7469 23.9337 33.8531C24.2532 34.1184 24.5373 34.083 24.555 34.0476C24.555 34.0476 24.5195 33.6939 24.5195 33.6585C24.4662 33.4993 24.1467 33.3224 23.8804 33.1986C23.7917 33.0218 23.2769 32.385 23.1526 32.2435C22.9929 32.102 23.0816 31.9959 23.1704 31.9429C23.2591 31.8898 23.6142 31.4476 23.7207 31.2707L24.5373 33.1633C24.5728 33.234 24.5728 33.4463 24.555 33.5347C25.0698 34.7197 23.8272 34.0653 23.8272 33.9415C23.8272 33.8354 23.7207 33.6762 23.5609 33.6762C21.555 32.3497 21.0757 33.5524 21.3065 34.1361C21.1645 34.2068 20.916 34.3306 20.7917 34.3306C20.2947 34.8259 19.8509 34.4898 19.7621 34.366C19.1763 34.3837 19.1763 33.7469 19.2473 33.0395C17.916 35.4272 20.8804 35.0912 21.3952 34.702C21.3242 34.7551 21.4485 34.9673 21.555 34.985C21.6793 35.1088 21.91 35.1973 22.1053 35.1973C22.052 35.2503 22.0875 35.3741 22.1941 35.4449L22.4071 35.3565C22.5313 35.3565 22.9929 35.4626 23.0284 35.6041L22.8509 35.7279C22.8331 35.7633 22.8686 35.9048 23.0284 35.9932L23.2591 35.8517C23.2946 35.8871 23.7207 35.9755 23.7562 36.117L23.6497 36.2585C23.6674 36.3293 23.7384 36.4177 23.8982 36.4177L24.9988 35.4626C25.3361 35.7279 25.8331 35.6041 25.7976 35.3388L26.8272 36.1701C26.916 36.1701 27.058 36.0639 27.1112 35.9048L26.8982 35.7102C26.8627 35.5156 27.2 35.3211 27.3952 35.3565L27.6615 35.5333C27.7148 35.5333 27.8213 35.3918 27.839 35.2327L27.6083 35.0735C27.6438 34.8612 27.7148 34.7905 27.8745 34.7551L28.1231 34.8258C28.1586 34.8082 28.2118 34.649 28.1941 34.5429L27.9633 34.4898C27.91 34.3837 28.052 34.1184 28.1408 33.8884C28.1408 33.8884 28.3006 33.9061 28.3006 33.8531C28.3183 33.8 28.3183 33.6585 28.2473 33.5701L27.271 33.7116C27.271 33.8 27.3952 34.1007 27.4485 34.1361C27.484 34.1891 27.697 34.5605 27.7148 34.702L26.7917 34.7197C26.7029 34.6844 26.7384 34.3306 26.7739 34.1891L26.6497 33.7823L25.4071 33.9592C25.4071 33.9592 25.2828 33.3578 25.2118 33.4463C25.1408 33.5347 24.8745 32.3673 24.5728 32.5796L24.3242 31.9605C24.4485 31.9075 25.1763 32.049 25.4426 32.0136C25.3893 31.8014 25.0343 31.5361 24.7325 31.4122C24.1822 31.4299 24.3065 31.2 24.3242 31.2C24.3065 31.2 24.8213 31.0939 25.1231 31.0054C25.4426 31.0939 25.9041 31.9252 26.0284 32.1905C25.9751 32.7388 26.2591 32.7742 26.4012 32.8626C26.5432 32.951 26.8094 34.2245 26.8094 34.2245C26.8094 34.2422 26.7384 34.4898 26.8094 34.6667H27.5373C27.5373 34.6667 27.413 34.3483 27.2355 34.2068L26.8094 32.668C26.9337 32.2435 26.8094 31.9429 26.6319 31.8544C26.4544 31.766 26.5609 31.6245 26.5077 31.1646C26.8094 30.8639 27.5195 30.7048 27.9278 30.581C27.9278 30.581 28.1053 30.7578 28.1231 30.7578C28.1053 30.7578 27.91 31.3769 27.839 31.6952L27.555 31.4122L27.2177 32.1197C28.0165 32.6327 28.4071 31.5361 28.4603 30.7401C28.9929 30.3864 28.6911 29.6612 28.0165 30.015C28.0165 30.015 27.413 30.0327 27.0935 30.0503C27.1112 28.9184 25.8864 27.3088 26.4544 26.6898C26.1881 27.5388 27.1822 27.5211 27.0402 28.0871C27.9455 28.4939 27.9278 27.8571 27.9455 27.7333C27.9633 27.6272 27.839 27.0259 27.7148 26.8313C27.626 26.6367 27.7858 26.2299 27.5905 25.9293L27.9455 25.6109L27.3597 25.4163L27.4485 25.151L27.1822 25.1333C26.5964 24.0898 25.6556 24.5673 25.6556 24.5673C25.6556 24.5673 25.8686 24.6381 26.0461 24.7796C25.8154 24.7442 24.7503 25.1864 24.7503 25.1864C24.7503 25.1864 25.0698 25.2395 25.3716 25.3456L24.5195 25.9116L24.7148 25.9823L24.3597 26.3537C24.3597 26.3537 24.129 26.3007 23.8627 26.3537C23.5964 25.8408 23.2236 25.3102 23.5609 25.2748L24.058 25.3633C25.3006 23.1701 22.7976 23.6476 22.3716 24.1782C21.9278 24.7088 22.2651 24.7973 22.5491 24.6912L22.7976 24.9741C22.5136 25.2041 21.6615 24.7442 21.4307 24.7442C21.2 24.7442 21.2 24.5673 21.2532 24.3728C21.2887 24.1782 21.2 23.683 20.8094 23.6122L20.5787 23.1701L20.3657 23.2762L20.5787 23.7714C20.3834 23.8599 20.3657 24.2313 20.6142 24.7265C20.6142 24.7265 19.4248 25.4517 18.9278 25.9646L19.2828 26.3361L20.1349 25.5578L20.2591 25.6109L19.1053 26.7605L19.6556 27.132L20.4722 26.3714H20.6319L19.6201 27.4327L20.1704 27.698L21.1467 26.5129L21.271 26.5306L20.4722 27.5565L21.2532 27.6803L21.5905 27.2558L22.052 27.415L22.1763 27.751L21.7858 27.8041L21.91 28.5646C21.91 28.5646 21.342 28.7238 20.9515 28.9537C19.5136 27.2027 18.8568 30.351 18.768 31.4299ZM20.4367 34.649C20.7029 34.5959 20.987 34.4367 21.1467 34.3483L21.2 34.5252C21.1112 34.5605 20.8272 34.649 20.4367 34.649ZM25.9219 35.3034L25.9751 35.0558L26.8804 35.9932L25.9219 35.3034ZM27.5728 35.3211L25.9929 34.8258L25.9041 34.5782L27.5728 35.3211ZM25.9219 34.5075L25.9041 34.3306L26.6319 34.4367L26.6674 34.5605L25.9219 34.5075ZM26.6142 33.9238L26.6319 34.0476L25.9041 34.2245L25.8509 34.0299L26.6142 33.9238ZM25.7266 35.2327C25.7976 35.0558 25.6201 34.5605 25.4958 34.1891C25.6556 34.2952 25.9574 35.1088 25.7266 35.2327ZM21.91 34.0476C21.91 34.0476 21.9278 34.3129 22.0165 34.5075L21.8568 34.5252C21.3952 33.3048 22.3893 33.7116 23.1349 34.1537C21.7148 33.8708 21.91 34.0476 21.91 34.0476ZM22.6378 34.1537V34.2952C22.6378 34.2952 22.2828 34.2775 22.0698 34.2952L22.052 34.1184C22.1941 34.1184 22.6023 34.1361 22.6378 34.1537ZM22.1231 33.2163L22.1586 33.3401C22.0165 33.3401 21.7503 33.4109 21.7148 33.4639L21.6083 33.3401C21.697 33.2694 21.8745 33.181 22.1231 33.2163ZM21.4662 34.702C21.413 34.6667 21.3775 34.4014 21.3775 34.2599H21.484C21.484 34.4014 21.5728 34.649 21.5728 34.649L21.4662 34.702ZM21.5195 34.0122L21.3952 34.0476C21.342 33.8884 21.413 33.6762 21.484 33.6054L21.5728 33.6939L21.5195 34.0122ZM21.5905 34.8435C22.1408 34.5252 23.1704 34.2422 23.5787 34.2952L23.6852 34.4544C23.5787 34.4367 22.5491 34.5075 21.5905 34.8435ZM22.2118 35.2857L23.916 34.6313L24.0402 34.7905L22.2118 35.2857ZM23.0106 35.7456L24.3065 34.8966L24.4485 35.0204L23.0106 35.7456ZM24.8568 35.3741L23.8449 36.1878L24.7325 35.2503L24.8568 35.3741ZM27.1645 26.7252C27.129 26.7429 27.0757 26.7075 27.0402 26.6367C27.0047 26.5483 27.0047 26.4952 27.0402 26.4599C27.0935 26.4599 27.1467 26.4952 27.1822 26.566C27.2177 26.6367 27.2177 26.7075 27.1645 26.7252ZM27.5905 26.5306C27.0402 26.2122 27.271 26.0177 27.2 25.7878C27.5373 26.3714 27.3242 26.2122 27.5905 26.5306ZM27.3065 25.2041L27.1645 25.5755L26.8094 25.2571L27.3065 25.2041ZM26.5964 30.8639H26.3479L26.1704 30.3333L26.3834 30.298L26.5254 30.5633L26.8982 30.0327L27.058 30.1742L26.5964 30.8639ZM26.7917 29.219C26.8804 29.2544 27.0402 29.5905 26.9515 29.6259C26.8449 29.6612 26.7739 29.6259 26.5787 29.449C26.3834 29.2721 25.9574 29.1129 25.052 29.3075L24.9988 29.1306C25.4071 29.0422 25.9219 28.9537 26.4189 29.1306C26.5077 29.0599 26.7384 29.0776 26.7917 29.219ZM24.8568 26.3891C24.91 26.3007 25.1231 25.9823 25.3716 25.8408L25.1941 25.7878C25.2473 25.6993 25.6023 25.4694 25.7799 25.4163L25.6201 25.381C25.7976 25.2218 26.2591 25.098 26.5609 25.151V25.2748C25.5846 25.3633 25.2651 26.0884 24.9278 27.0259L24.839 26.9197C24.8213 26.7959 24.8745 26.6014 25.0165 26.4422L24.8568 26.3891ZM24.768 27.0259C25.1408 27.2027 25.9041 27.6449 26.2591 27.6449L26.3479 27.8395C26.0994 27.8571 25.1586 27.415 24.6793 27.1497L24.768 27.0259ZM24.626 27.2027C25.3538 27.698 26.2591 28.1755 26.5077 28.1932L26.5609 28.3701C26.3657 28.3701 25.3893 27.8748 24.6083 27.3619L24.626 27.2027ZM24.0047 26.8844C24.1112 26.9905 24.3242 27.0082 24.413 26.9197C24.5017 26.849 24.6083 26.9728 24.5905 27.0259C24.5728 27.1143 24.5728 27.415 24.413 27.3796C24.271 27.3796 23.9337 27.5918 23.9515 27.5211C23.987 27.468 23.987 26.8667 24.0047 26.8844ZM24.058 27.7687L24.1822 27.698C24.2177 27.9986 24.4307 28.6531 24.7858 29.219C25.1408 29.8027 24.981 30.3333 24.4485 30.4041L24.3775 30.1742C24.6615 30.1034 25.052 30.068 24.5905 29.2367C24.5905 29.5728 24.555 29.8204 24.271 29.7673L24.2 29.5551C24.4485 29.5374 24.5728 29.2367 24.1467 28.4762C24.0402 28.4585 24.0402 28.4762 23.987 28.4762L23.916 28.1401C24.0757 28.3347 24.2355 28.4939 24.058 27.7687ZM23.7384 28.034C23.7917 28.1932 24.1645 29.5728 24.129 29.9265C24.2887 30.0503 24.3775 30.7224 24.3952 31.0762L24.2 31.1116C24.2177 30.5102 24.0757 30.1388 23.8982 29.9619C24.129 29.6435 23.7917 28.8299 23.5432 28.2286C22.8686 28.0517 23.2236 27.9986 23.5254 27.9986C22.9219 27.6626 23.0994 27.6272 23.4544 27.8041C23.8094 27.9986 23.4367 27.4327 23.4367 27.4327C23.4367 27.4503 23.7207 27.468 23.8272 27.3442C23.7384 27.5388 23.6674 27.6095 23.6674 27.6095C23.6674 27.6095 23.7384 27.8925 23.7384 28.034ZM23.4899 25.0449C23.4367 25.0095 23.4012 24.9565 23.4189 24.9565C23.4189 24.9388 23.4899 24.9388 23.5432 24.9565C23.6142 24.9918 23.6319 25.0449 23.6142 25.0626C23.5964 25.098 23.5432 25.0803 23.4899 25.0449ZM24.0935 24.4612C24.2 24.5497 23.987 25.0272 23.8449 25.1156C23.7917 25.1333 23.6852 25.1333 23.7562 25.0272C23.7917 24.9211 24.0402 24.6912 24.0047 24.585C23.9515 24.4789 23.6852 24.2844 23.5964 24.3374C23.4722 24.3728 23.3124 24.7973 23.2414 24.8857C23.1704 24.9565 23.0994 24.868 23.0816 24.868C23.3302 24.302 23.4544 23.8245 24.0935 24.4612ZM23.5432 25.8408C23.4544 25.6639 23.1171 25.381 22.9574 25.2041C23.2236 25.3102 23.4367 25.381 23.5432 25.8408ZM22.7799 25.3102C23.1881 26.3361 23.0639 27.3973 22.7266 27.6449L22.6911 27.4503C23.0106 27.3796 22.9574 25.8585 22.7799 25.3102ZM22.7444 26.2476L22.6023 26.283C22.4781 25.9293 22.3893 26.0707 21.981 26.0884L21.9455 25.9469C22.4603 25.8762 22.6378 25.8054 22.7444 26.2476ZM22.2473 25.0803L22.4071 25.1687C22.2118 25.151 21.9278 25.3102 21.7325 25.3986L21.697 25.2571C21.839 25.1333 22.1586 25.0626 22.2473 25.0803ZM20.6674 24.9565L20.7562 25.0449C20.7562 25.6463 20.7207 26.0354 21.484 25.9116L21.5195 26.0707C20.5609 26.1061 20.5964 25.6993 20.6674 24.9565ZM21.1467 24.6381L21.4307 24.9211L24.2532 31.819L23.7562 31.0762L21.1467 24.6381ZM22.2473 28.7061C22.4426 29.8558 22.5491 30.0327 23.1171 29.8912L23.1881 30.068C23.1881 30.068 22.6911 30.0857 22.5313 30.0327C22.3893 29.9796 22.4248 30.3333 22.4603 30.4218C22.4781 30.5279 23.0106 30.5102 23.3479 30.4395L23.4012 30.581C23.3302 30.634 22.6911 30.6517 22.5668 30.634C22.4603 30.6163 22.5136 30.8109 22.5491 30.917C22.6023 31.0054 23.0284 31.0939 23.5609 31.0939L23.6142 31.2354C23.4722 31.2884 22.9041 31.2 22.6911 31.1116C22.4781 31.0408 22.3893 31.1116 22.2651 31.4122L22.1586 31.3238C22.5668 30.7932 22.2651 29.732 22.0343 28.6707L22.2473 28.7061ZM48.0225 19.2082C47.2059 18.8367 46.5668 18.7837 45.1112 19.102C45.7503 18.6422 47.0461 17.068 47.2946 16.0776C45.839 15.9714 44.8982 16.4667 44.0994 16.7673C46.6023 14.8218 46.7089 13.6367 46.4426 11.9211C45.1645 13.2122 41.1881 16.3429 41.2059 16.3429C41.1881 16.3429 43.2118 14.2558 44.6674 12.5224C46.1408 10.7714 45.484 9.07347 44.5609 7.81769C44.3834 8.70204 41.987 12.381 40.052 14.0435L39.9278 13.7075C39.8568 14.1673 38.5432 15.9714 37.7444 16.6259L37.6023 16.3075C37.1941 16.9442 34.7976 18.9959 33.7858 20.0218C32.7917 21.0653 33.1645 22.0735 33.768 22.6218C34.3893 23.1701 34.6556 23.7537 33.9455 24.7088C33.271 25.6993 31.3716 25.5578 30.5195 24.4435C32.2947 23.7361 32.1171 22.6395 31.6911 21.7728C30.626 23.3116 29.9692 22.6571 29.0639 21.8259C30.0402 21.8082 30.5905 21.3129 30.9633 20.6054C29.1526 20.8354 28.5846 20.1279 28.3183 19.0136C28.0343 17.917 29.1704 16.6435 30.5018 15.7592C30.5373 15.7592 30.839 15.9361 31.052 15.9007C31.2828 15.9007 31.5491 15.5469 31.8509 15.4054C33.1822 15.1932 33.8568 15.7592 33.7148 17.1388C34.1941 16.8912 34.2651 16.1129 34.1053 15.6177C33.9278 15.1401 33.5018 15.0694 33.555 14.9986C33.626 14.9279 34.1586 15.2816 34.6378 15.7238C35.0994 16.1837 36.1645 16.1837 36.6083 15.9891C37.052 15.7769 37.3006 15.1048 37.4248 14.468C37.1053 15.034 36.2887 15.317 35.7917 15.2816C35.3302 15.2286 34.3893 14.5388 33.555 14.3619C34.2473 13.7605 35.2059 14.185 35.8272 14.6626C37.1053 12.9469 36.1467 12.2041 35.4899 11.8857C34.8331 11.5497 34.6556 11.815 34.4958 11.7265C34.3538 11.6558 34.1586 11.3905 33.8213 11.2844V11.0898C35.1349 11.0721 35.8094 10.5061 36.413 10.0109C37.0343 9.51565 36.8213 8.2068 36.5905 7.55238C36.3775 6.88027 36.8213 6.79184 37.052 6.91565C37.2651 7.03946 38.4544 7.46395 38.4544 7.46395C38.4544 7.46395 38.5609 7.55238 38.6852 7.95918C38.7917 8.36599 38.7384 8.59592 38.5609 8.84354C38.3834 9.09116 37.9041 9.65714 37.8686 10.3646C37.8331 11.1075 38.3657 11.4966 38.4189 11.9918C38.4899 12.5224 37.8686 12.8054 37.8686 12.8054C37.8686 12.8054 38.0816 12.9823 38.4189 12.9469C38.7739 12.9293 39.4307 12.4871 39.6438 11.9388C39.839 11.4082 39.1822 10.7184 39.1822 10.7184C39.1822 10.7184 39.6083 10.966 39.9455 10.9837C40.2828 11.0367 40.2473 10.8599 40.5491 10.9483C40.8331 11.0367 40.8686 11.4612 40.8686 11.4612C40.8686 11.4612 41.1349 11.2667 41.2414 10.9306C41.3302 10.5946 41.4367 9.8517 40.5313 9.79864C39.6083 9.72789 39.8035 9.40952 40.2828 8.82585C40.7976 8.22449 40.8154 7.2517 39.8213 7.02177C38.8449 6.80952 38.3834 6.31429 38.0284 5.71292C37.6556 5.07619 36.7148 5.00544 35.4899 5.37687C34.3006 5.7483 34.9041 7.35782 35.2769 8.27755C35.6674 9.17959 35.6497 9.48027 35.4189 9.94014C35.1704 10.3823 34.2296 10.6476 33.6438 10.6476V10.2408C34.1231 9.49796 34.3893 8.40136 34.2118 7.95918C34.052 7.51701 33.271 7.28707 32.8094 7.30476C32.3302 7.32245 32.3302 7.32245 32.3302 7.32245C32.6497 7.14558 32.7029 6.7034 32.3657 6.50884V6.1551H32.6674V5.53605H32.3834V5.21769H31.6911V5.51837H31.4426V6.1551H31.7266V6.50884C31.4248 6.7034 31.4781 7.12789 31.7621 7.32245C31.7621 7.32245 31.7621 7.32245 31.3006 7.30476C30.839 7.30476 30.0402 7.51701 29.8804 7.95918C29.7207 8.40136 29.9692 9.49796 30.4307 10.2408L30.3952 10.7714C28.7266 10.4707 28.2651 10.2585 26.4189 8.36599L26.4367 8.02993C27.5373 5.50068 27.6438 5.58912 27.6793 4.95238C27.697 4.31565 27.6793 2.90068 25.2296 2.68844C25.2296 2.97143 24.8568 3.27211 24.5905 2.56463C24.981 2.26395 25.0165 1.57415 24.6083 1.48571L24.5195 1.02585L24.9633 1.18503V0.353741L24.5017 0.512925L24.6793 0H23.7384L23.8804 0.495238L23.4367 0.318367V1.14966L23.8627 1.02585L23.7384 1.43265C23.3479 1.55646 23.3302 2.24626 23.7384 2.51156C23.4722 3.23673 23.0994 2.91837 23.0994 2.63537C20.6674 2.81224 20.5787 4.19184 20.5787 4.82857C20.6142 5.46531 20.7029 5.39456 21.7503 7.9415V8.29524C19.8686 10.117 19.4958 10.3116 17.8272 10.5769V10.0463C18.2887 9.32109 18.5728 8.22449 18.4307 7.78231C18.2887 7.35782 17.4899 7.09252 17.0284 7.09252C16.5668 7.09252 16.5668 7.09252 16.5668 7.09252C16.8331 6.91565 16.9041 6.54422 16.5846 6.27891V5.90748H16.9041V5.27075H16.6201V4.97007H15.981V5.27075H15.6438V5.90748H15.9278V6.26122C15.555 6.50884 15.5905 6.91565 15.9278 7.09252C15.9278 7.09252 15.8923 7.09252 15.484 7.05714C15.0047 7.02177 14.2059 7.23401 14.0461 7.6585C13.8686 8.11837 14.0994 9.21497 14.5609 9.97551L14.5432 10.3646C13.9396 10.3646 13.0165 10.0639 12.7858 9.62177C12.555 9.17959 12.555 8.87891 12.9633 7.95918C13.3716 7.05714 14.0284 5.46531 12.8213 5.07619C11.6319 4.68708 10.6733 4.72245 10.2828 5.3415C9.91004 5.96054 9.4485 6.40272 8.43666 6.61497C7.46033 6.80952 7.44258 7.78231 7.92187 8.40136C8.41891 9.00272 8.59643 9.3034 7.67335 9.35646C6.75027 9.39184 6.82128 10.1347 6.92779 10.4707C7.01654 10.8245 7.28282 11.019 7.28282 11.019C7.28282 11.019 7.31832 10.5946 7.63785 10.5061C7.93962 10.4177 7.90412 10.5946 8.2414 10.5769C8.57867 10.5592 8.98696 10.3293 8.98696 10.3293C8.98696 10.3293 8.29465 10.9837 8.50767 11.532C8.68518 12.0803 9.34199 12.5224 9.69702 12.5401C10.052 12.5932 10.2473 12.434 10.2473 12.434C10.2473 12.434 9.64376 12.1333 9.69702 11.6204C9.78577 11.1252 10.3361 10.7537 10.3183 10.0109C10.2828 9.28571 9.83903 8.73742 9.66151 8.47211C9.50175 8.2068 9.43075 7.99456 9.57276 7.58776C9.69702 7.16327 9.82128 7.09252 9.82128 7.09252C9.82128 7.09252 11.0106 6.7034 11.2236 6.57959C11.4367 6.47347 11.8982 6.54422 11.6674 7.21633C11.4189 7.88844 11.1881 9.16191 11.7739 9.7102C12.3775 10.2054 13.0165 10.7714 14.3124 10.8422V11.0544C13.9751 11.1429 13.7976 11.4082 13.6378 11.4612C13.4958 11.5497 13.3183 11.2844 12.6615 11.585C11.987 11.9034 11.0284 12.5755 12.2355 14.2558C12.8923 13.7959 13.8331 13.4068 14.5077 14.0082C13.6911 14.1673 12.7325 14.8395 12.2355 14.8925C11.7562 14.9279 10.9396 14.6095 10.6556 14.0435C10.7621 14.6095 11.0106 15.3347 11.4367 15.5646C11.8804 15.7769 12.9278 15.8122 13.4071 15.3524C13.8864 14.9102 14.4189 14.6095 14.4899 14.6449C14.5432 14.7156 14.1171 14.7864 13.9574 15.2639C13.7621 15.7238 13.8331 16.5374 14.2947 16.7673C14.2236 15.3878 14.916 14.8218 16.2473 15.0694C16.5313 15.2109 16.8154 15.5823 17.0284 15.6C17.2414 15.6177 17.5432 15.4762 17.5787 15.4762C18.8745 16.3959 19.8864 17.6871 19.5668 18.8014C19.2828 19.9156 18.8035 20.5878 16.9929 20.3224C17.3302 21.0476 17.8627 21.5429 18.8213 21.5959C17.8982 22.3918 17.2059 23.0286 16.2118 21.4544C15.768 22.3211 15.5728 23.4177 17.3124 24.1782C16.4248 25.2571 14.5254 25.3279 13.8864 24.3374C13.2118 23.3646 13.4781 22.7986 14.0994 22.268C14.7029 21.7374 15.1112 20.7293 14.1526 19.6503C13.1763 18.5891 10.8331 16.502 10.4248 15.8476L10.3183 16.166C9.55501 15.4408 8.2414 13.619 8.20589 13.1592L8.04613 13.4952C6.16447 11.8857 3.89228 8.15374 3.71477 7.26939C2.77394 8.50748 2.06388 10.1701 3.484 11.9565C4.90412 13.6014 6.85678 15.7592 6.85678 15.7592C6.87453 15.7769 3.02246 12.5578 1.76211 11.3197C1.46033 12.9116 1.53134 14.0966 3.96329 16.1129C3.18222 15.7769 2.2414 15.2639 0.785775 15.317C1.0343 16.3252 2.25915 17.9347 2.8982 18.4122C1.47808 18.0585 0.839029 18.0762 0.0224609 18.4476C0.377491 19.1728 1.56684 20.4993 2.41891 20.8884C1.42483 20.9946 0.217727 21.5429 0.0579639 21.702C0.483999 22.3565 1.19406 22.9401 2.11714 23.2762C1.05205 23.7714 0.750272 24.1075 0.590508 24.3551C1.0698 25.0803 1.6556 25.5755 2.47217 25.7347C2.3479 25.8408 2.22364 25.9646 2.09938 26.0884C2.25915 26.3007 2.84495 26.566 2.88045 26.7075C2.91595 26.8313 3.12897 26.566 3.18222 26.3891C3.16447 26.4952 3.80353 26.7605 3.57276 27.0789C3.67927 27.751 4.17631 26.9905 4.35382 26.6367C5.56092 27.8395 4.44258 29.2544 4.46033 29.3075C4.46033 29.3605 4.76211 29.6082 4.86861 29.8204C5.50767 29.4844 7.01654 28.4939 7.01654 28.4939C7.01654 28.4939 5.40116 29.6789 5.02838 30.1742C4.67335 30.7225 4.86861 31.6599 4.93962 31.7306C5.01063 31.8721 6.05796 32.1374 6.41299 31.7837C6.80353 31.4122 8.59643 29.2544 8.57867 29.3252C8.57867 29.3959 7.60234 30.7048 7.26506 31.4299C6.94554 32.1551 7.40708 33.234 7.56684 33.3401C7.79761 33.4463 9.02246 33.3401 9.21773 32.9687C9.39524 32.5973 10.6733 30.0857 10.6733 30.0857C10.6911 30.0857 9.76802 31.9959 9.71477 32.6327C9.66151 33.2694 10.3006 34.1537 10.4958 34.1714C10.6911 34.2245 11.8094 33.9238 11.9337 33.4639C12.0757 33.0218 12.6793 30.581 12.6615 30.581C12.6615 30.581 12.3597 32.2612 12.4485 32.7565C12.484 33.3224 13.2828 33.7116 13.4426 33.9061C13.5846 34.2245 13.7089 34.1184 13.8864 33.9061C14.0461 33.7293 14.9337 33.5878 14.8804 32.5796C14.8449 31.5714 14.8804 30.8109 14.8804 30.8109C14.8804 30.8109 15.484 30.8463 15.7858 30.5633C16.0698 30.298 16.2473 30.2095 16.2473 30.2095C16.2473 30.2095 16.4958 30.7578 16.8509 30.7755C17.2236 30.8109 17.5254 30.917 17.5254 30.917L17.5787 34.1891C16.7621 34.8082 16.1053 35.1973 15.0047 34.8966L15.2355 35.1619C13.5846 35.2857 12.5373 35.8871 12.7503 37.9211C12.9633 39.902 11.9337 39.3361 11.916 39.3184C11.9337 39.3184 12.4307 40.6803 13.9751 39.619C14.2059 40.2027 13.9929 40.9986 13.8686 41.2286C14.2947 41.0517 14.6497 40.7333 14.7917 40.5565C14.8982 40.3973 14.916 40.8571 14.8449 41.0694C14.7917 41.2816 15.3242 40.5034 15.3775 40.3265C15.4485 40.132 16.052 40.7333 15.4307 41.2463C14.7917 41.7769 12.7503 42.4313 11.8804 42.5551C10.7799 42.732 9.67927 42.8912 9.67927 41.8122C9.67927 40.7687 8.45441 40.6626 7.95737 41.1932C7.6556 40.9102 7.42483 40.415 7.42483 40.415C7.42483 40.5034 6.55501 40.8041 6.5195 40.751C6.484 40.8218 6.76802 41.6 6.60826 41.7769C6.4485 41.9891 5.64968 42.3605 5.72069 42.7143C5.66743 43.2626 6.25323 43.4395 6.34199 43.4571C6.16447 43.9701 6.71477 44.483 7.0698 44.3592C7.0343 45.332 6.80353 45.0667 7.90412 45.6503C8.09938 45.7565 8.38341 45.7034 8.48992 45.8095C8.59643 45.9156 9.30649 46.4286 9.59051 44.8721C10.0165 44.483 10.9929 43.8286 12.0225 43.634C13.1763 43.4395 17.3657 42.502 18.3065 42.4313C18.3597 41.7415 18.0402 41.0694 18.0402 41.0694C18.0402 41.0694 19.1231 40.8395 19.5313 40.0082C18.8568 40.1497 18.1822 40.0435 18.1467 39.2653C18.1112 38.4871 18.697 37.815 19.5491 37.9211C20.5432 38.0095 21.555 38.8231 21.484 39.7429C21.4485 40.6449 20.7739 41.034 20.2769 41.3524C19.8154 41.7061 19.8509 42.4136 19.8331 42.4136C19.8509 42.4136 19.7976 42.166 20.1704 42.0245C20.5432 41.8653 21.2532 41.8476 21.2532 41.8299C21.2532 41.8476 21.2532 42.0422 20.8804 42.2898C20.5077 42.5728 19.1586 43.1211 18.6083 43.3864C17.9337 43.6517 16.9219 44.5537 16.5491 44.5184C16.1763 44.5361 15.839 44.4299 15.8035 44.1293C15.7858 43.8463 15.9633 43.4571 15.9633 43.4571C15.9633 43.4571 15.129 43.6163 14.8449 44.0762C14.5609 44.5537 14.4189 45.5442 15.0225 45.898C14.4722 46.5347 14.2769 47.7374 14.5609 48.3918C14.8449 49.0463 14.7917 49.6299 14.7917 49.6122C14.7917 49.6122 15.3952 49.4177 15.4307 48.9932C15.4662 48.6041 15.91 48.0558 15.8923 48.0558C15.91 48.0558 15.8923 49.2054 16.5846 49.683C17.2591 50.1605 17.9692 50.4435 18.981 49.5061C19.9574 50.6204 20.5787 51.3102 22.2296 50.7442C22.4603 51.1156 23.1349 51.8054 23.5077 51.9116C23.8804 51.8231 24.5905 51.2748 24.8568 50.9034C26.4899 51.5048 27.1112 50.8503 28.1231 49.7361C29.2236 50.6912 29.9337 50.4082 30.626 49.9483C31.3006 49.5061 31.3361 48.3565 31.3361 48.3565C31.3361 48.3565 31.7444 48.8871 31.7976 49.2939C31.8331 49.7184 32.4367 49.9483 32.4367 49.9306C32.4367 49.9306 32.3834 49.3646 32.7029 48.7102C33.0225 48.0735 32.8449 46.8531 32.3124 46.1986C32.916 45.8803 32.7917 44.8544 32.5077 44.3769C32.2414 43.917 31.4071 43.7401 31.4071 43.7401C31.4071 43.7401 31.5846 44.1116 31.5491 44.4122C31.5136 44.7306 31.1763 44.819 30.8035 44.7837C30.4307 44.7837 29.4367 43.8639 28.7799 43.581C28.1408 43.298 26.8094 42.7497 26.4189 42.4667C26.0461 42.1837 26.0639 41.9714 26.0639 41.9714C26.0639 41.9714 26.7562 42.0422 27.1467 42.1837C27.5195 42.3605 27.4485 42.5728 27.4662 42.5728C27.4485 42.5728 27.5195 41.883 27.0402 41.5293C26.5609 41.1755 25.9219 40.751 25.8864 39.8667C25.8331 38.9646 26.8804 38.151 27.8568 38.098C28.8154 38.0449 29.3834 38.6993 29.3124 39.4776C29.2591 40.2381 28.4958 40.3442 27.839 40.2027C28.1941 41.034 29.3834 41.2993 29.3834 41.2993C29.3834 41.2993 29.0461 41.9537 29.0994 42.6259C30.0402 42.7497 34.2118 43.7225 35.5609 44.0408C36.0935 44.3415 37.3183 45.102 37.8509 45.1197C38.3657 45.1551 38.8449 44.7837 39.2177 44.6776C39.5905 44.5891 39.9988 44.6422 40.3006 44.5184C40.5846 44.4299 40.8864 44.0054 41.4899 43.8463C42.058 43.6694 42.058 43.1918 41.987 42.9265C42.2355 42.7497 42.7325 41.9891 42.839 41.8476C42.91 41.7238 42.9278 41.8476 43.2296 41.8122C43.5491 41.7769 43.7266 40.5565 43.4071 40.3796C43.052 40.2027 43.3006 40.2381 43.1053 40.0966C42.91 39.1769 42.2 37.7619 40.7799 37.4612L40.5313 37.019L41.2059 37.2844V35.7986L40.5313 36.1347L40.8154 35.4626H39.271L39.4662 36.1347L38.7562 35.7986V37.2844L39.5018 37.019L39.2532 37.4966C37.8331 37.7973 37.0698 38.9293 36.8568 39.849C36.8568 39.9197 36.6793 39.9374 36.484 40.0966C36.2887 40.2735 36.2887 41.5293 36.484 41.6C36.6615 41.6884 36.9633 41.6354 37.0165 41.7415C37.0698 41.8653 37.2651 42.2721 37.2651 42.2721C37.2651 42.2721 36.5195 42.9442 35.5787 42.9088C34.6556 42.9088 32.6142 42.0952 32.0106 41.5293C31.3716 40.9986 32.0106 40.4327 32.0816 40.6095C32.1349 40.7864 32.6319 41.6 32.6142 41.3878C32.5609 41.1578 32.5609 40.7156 32.6852 40.8748C32.7917 41.034 33.1467 41.3878 33.5728 41.5823C33.4307 41.3701 33.2355 40.5565 33.484 39.9551C35.0106 41.0517 35.5609 39.7075 35.5609 39.6898C35.5609 39.7075 34.4958 40.2558 34.7799 38.2748C35.0461 36.2762 34.0165 35.6041 32.3657 35.4626L32.5964 35.215C31.5136 35.498 30.839 35.0735 30.058 34.4544L30.1645 31.1646C30.1645 31.1646 30.5018 31.0762 30.8568 31.0585C31.2296 31.0231 31.4781 30.5102 31.4781 30.5102C31.4781 30.5102 31.6556 30.5986 31.9396 30.8816C32.2236 31.1469 32.8272 31.1469 32.8272 31.1469C32.8272 31.1469 32.8449 31.9252 32.7917 32.9156C32.7207 33.9238 33.6083 34.1007 33.768 34.2775C33.9455 34.4721 34.0698 34.5782 34.2118 34.2775C34.3361 33.9946 35.1526 33.6585 35.2591 33.1633C35.3479 32.6503 35.0816 30.9701 35.0816 30.9701C35.0816 30.9701 35.6142 33.4286 35.7384 33.8707C35.8627 34.3129 36.9633 34.6313 37.1586 34.5959C37.3361 34.5782 38.0106 33.7293 37.9751 33.0748C37.9396 32.4381 37.0698 30.4925 37.0876 30.4925C37.0698 30.4925 38.2769 33.0395 38.4544 33.4286C38.6319 33.7823 39.8568 33.9415 40.0875 33.8354C40.2651 33.7469 40.7444 32.668 40.4426 31.9252C40.1231 31.2 39.2 29.8735 39.1822 29.8027C39.1822 29.732 40.9041 31.9252 41.2769 32.3143C41.6497 32.6857 42.6793 32.4204 42.7858 32.3143C42.8568 32.2258 43.0698 31.3061 42.7325 30.7578C42.3597 30.2272 40.7799 29.0068 40.7799 29.0068C40.7799 29.0068 41.5077 29.449 42.5905 30.2272C43.6023 31.0054 43.9574 30.6871 44.7917 30.5102C44.8982 30.1918 44.7917 29.3075 44.2946 28.5469C45.6083 28.6 45.9455 28.317 46.4603 27.9456C46.4248 27.6803 46.0165 26.8136 45.4307 26.3361C46.2473 26.1769 46.8331 25.717 47.3302 25.0095C47.1881 24.7442 46.8864 24.4082 45.8568 23.8952C46.7799 23.5769 47.4899 23.0463 47.9515 22.3741C47.7917 22.2327 46.6023 21.6313 45.5905 21.5075C46.3893 21.2068 47.6497 19.9156 48.0225 19.2082ZM39.3242 12.098C39.2887 11.4082 38.4189 11.1782 38.7739 10.4C38.7739 11.0721 39.626 11.1252 39.3242 12.098ZM35.6319 8.43674C35.0106 6.95102 34.6911 5.65986 35.7562 5.92517C36.8213 6.19048 38.8982 7.03946 39.697 7.21633C40.4958 7.3932 40.6378 8.15374 40.1231 8.70204C39.626 9.25034 39.058 9.78095 40.8686 10.2054C40.5313 10.2054 39.9633 10.2762 39.6793 10.0286C39.3952 9.78095 38.9337 9.35646 39.839 8.47211C40.7621 7.60544 39.3065 7.41088 38.9337 7.30476C38.5254 7.21633 37.1231 6.59728 36.413 6.42041C35.7207 6.24354 35.1704 5.99592 35.6852 7.41088C36.1645 8.80816 36.5195 9.81633 35.5787 10.4707L34.8686 10.5946C35.5077 10.3293 36.2532 9.95782 35.6319 8.43674ZM8.84495 11.6912C8.56092 10.7184 9.43074 10.7007 9.4485 10.0109C9.80353 10.7891 8.8982 11.0014 8.84495 11.6912ZM12.6793 10.1701C11.7562 9.46259 12.129 8.47211 12.6615 7.09252C13.2118 5.71292 12.6615 5.92517 11.9515 6.10204C11.2414 6.27891 9.83903 6.8449 9.41299 6.91565C9.02246 7.00408 7.56684 7.16327 8.43666 8.04762C9.32424 8.94966 8.8627 9.37415 8.54317 9.60408C8.25915 9.8517 7.70885 9.78095 7.37157 9.76327C9.18222 9.39184 8.64968 8.86122 8.15264 8.27755C7.6556 7.71156 7.81536 6.95102 8.61418 6.79184C9.41299 6.63265 11.5077 5.87211 12.5728 5.62449C13.6556 5.37687 13.2828 6.65034 12.6438 8.11837C11.987 9.60408 12.7148 10.0286 13.3893 10.2939L12.6793 10.1701ZM16.2118 22.1796C16.4603 22.3565 17.0284 22.6748 17.4012 22.7456C17.1881 22.8694 16.7089 22.7279 16.4426 22.5864C16.5491 23.2585 16.9396 23.5238 17.3657 23.7714C16.4248 23.6653 16.0165 22.6571 16.2118 22.1796ZM16.4781 25.9823C16.5846 26 16.7799 27.0435 16.6378 26.9374C16.4781 26.8136 16.2118 25.9646 16.4781 25.9823ZM15.0402 26.0354C15.129 26.0707 14.7917 27.0966 14.7207 26.9374C14.6497 26.7782 14.7917 25.8939 15.0402 26.0354ZM13.6201 25.5048C13.6556 25.5755 13.0343 26.4422 13.0343 26.2653C13.0343 26.0707 13.4426 25.2925 13.6201 25.5048ZM13.7266 20.5347C13.7799 20.6585 13.9574 20.7646 13.7266 20.8884C13.4603 21.0299 13.4603 20.6939 13.4603 20.6408C13.4603 20.5878 12.1467 18.9075 11.7029 18.5537C12.0402 18.6599 13.6201 20.3932 13.7266 20.5347ZM10.7089 21.3837C10.7089 21.0476 10.4958 20.4993 10.4958 20.5347C10.4958 20.5347 11.2414 20.2517 11.3302 20.1986C11.3834 20.1456 11.6142 20.0571 11.7739 20.0571C10.9751 19.1374 10.5668 18.0585 10.4781 16.785L10.5313 16.7497C10.5846 18.2531 11.6674 19.898 12.9455 20.9061C12.5905 20.6408 12.0047 20.234 11.7029 20.3755C11.4189 20.517 10.8686 20.6939 10.8864 20.6939C10.8864 20.6762 11.0106 21.2422 11.0461 21.5429C11.0639 21.8612 11.7917 22.1442 12.271 22.268C11.8272 22.1619 11.0994 22.0558 10.9219 22.3388C10.7089 22.5864 10.3183 23.0109 10.3183 23.0109C10.3006 22.9932 10.6556 23.4354 10.8686 23.7007C11.0461 23.9837 11.7739 23.9129 12.1467 23.8422C11.6674 24.0367 11.0639 24.4435 11.0639 24.7619C11.0639 25.0803 11.0639 25.6286 11.0284 25.6286C11.0284 25.6286 11.5787 25.7347 11.916 25.8231C12.2177 25.9293 12.7325 25.4163 13.0343 25.098C12.7503 25.434 12.3775 25.9646 12.484 26.1946C12.5905 26.4245 12.7503 26.9197 12.7503 26.9197C12.7325 26.9197 13.2473 26.8313 13.5136 26.8313C13.8154 26.8313 14.0639 26.2122 14.2414 25.8762C14.0994 26.2653 13.9574 26.8667 14.1704 27.0612C14.3834 27.2558 14.7207 27.6272 14.7207 27.6272C14.7029 27.6272 15.129 27.3619 15.3952 27.2381C15.626 27.0966 15.6438 26.4422 15.626 26.2299C15.6615 26.566 15.8035 27.2027 16.0875 27.2735C16.3361 27.3619 16.8154 27.5565 16.8154 27.5741C16.8154 27.5741 17.0461 27.132 17.2591 26.9374C17.4367 26.7075 17.1704 26.1238 16.9751 25.8054C16.9929 25.8054 17.4367 26.3891 17.4722 26.6544C17.5432 26.9197 17.4899 27.0966 17.3124 27.2558C17.1171 27.4327 16.8864 27.9102 16.9041 27.8925C16.9041 27.8748 16.4781 27.6272 16.2296 27.5565C15.9988 27.4857 15.768 27.415 15.697 27.132C15.626 27.3796 15.5905 27.4857 15.3242 27.5388C15.0757 27.6095 14.6674 27.9456 14.6674 27.9279C14.6674 27.9279 14.4012 27.5211 14.2059 27.3796C14.0284 27.2027 13.8686 27.0966 13.8864 26.7959C13.7444 27.0082 13.6023 27.0435 13.3183 27.0435C13.0343 27.0435 12.5728 27.2027 12.5728 27.2027C12.5905 27.2027 12.4662 26.7252 12.342 26.4952C12.2355 26.2653 12.1822 26.1592 12.3065 25.9469C12.0225 26.1061 11.9515 26.0354 11.6497 25.9469C11.3657 25.8408 10.8154 25.8054 10.8331 25.8054C10.8509 25.8054 10.8686 25.151 10.8509 24.7619C10.8331 24.4082 10.9219 24.3374 11.2236 24.0544C10.9396 24.0544 10.7444 24.0014 10.5668 23.7007C10.3893 23.4177 9.96329 23.0286 9.96329 23.0286C9.96329 23.0463 10.3538 22.6218 10.5313 22.3565C10.7089 22.0735 10.8154 21.9673 11.1526 22.0204C10.8686 21.8789 10.7266 21.7197 10.7089 21.3837ZM12.7503 24.532C12.768 24.6204 11.7562 25.2218 11.8272 25.0095C11.916 24.8327 12.6793 24.2136 12.7503 24.532ZM11.3834 23.0109C11.5432 22.8871 12.626 22.8517 12.5195 23.117C12.5018 23.2054 11.2059 23.1347 11.3834 23.0109ZM11.8449 21.3129C12.0225 21.2422 12.9633 21.4544 12.8035 21.702C12.7325 21.7728 11.6852 21.3837 11.8449 21.3129ZM17.1171 29.6259C17.0816 29.4667 16.7444 28.2463 16.7444 28.2463C16.7266 28.0871 16.9396 27.9986 16.9574 28.1755C16.9929 28.3701 17.2947 29.449 17.3124 29.5905C17.3657 29.7497 17.1349 29.7673 17.1171 29.6259ZM15.413 28.0163C15.3952 28.2109 15.342 29.3252 15.3242 29.4667C15.3242 29.6259 15.1112 29.5728 15.129 29.4313C15.1467 29.2898 15.1822 27.9986 15.1822 27.9986C15.2 27.8395 15.4307 27.8218 15.413 28.0163ZM13.9396 27.8218C13.9041 27.9986 13.6201 29.0776 13.5846 29.219C13.5313 29.3605 13.3538 29.2898 13.3893 29.1306C13.4426 28.9891 13.7621 27.751 13.7621 27.751C13.7799 27.5918 14.0106 27.6272 13.9396 27.8218ZM12.3952 27.3796C12.3065 27.4857 11.7917 28.4054 11.7029 28.5293C11.6319 28.6531 11.4544 28.5293 11.5254 28.4054C11.6319 28.2639 12.2177 27.2735 12.2177 27.2735C12.3065 27.132 12.5017 27.2381 12.3952 27.3796ZM9.80353 22.6041C9.60826 22.5864 8.48992 22.551 8.33015 22.5333C8.17039 22.5333 8.20589 22.3388 8.34791 22.3388C8.50767 22.3565 9.80353 22.3918 9.80353 22.3918C9.96329 22.3918 9.99879 22.6218 9.80353 22.6041ZM8.47217 20.5347C8.3124 20.4993 8.41891 20.3048 8.56092 20.3578C8.70293 20.4286 9.94554 20.8 9.94554 20.8C10.0876 20.8531 10.0698 21.083 9.87453 21.0122C9.69702 20.9592 8.61418 20.6054 8.47217 20.5347ZM9.99879 23.8599C10.1586 23.8422 10.2296 24.0721 10.0165 24.0721C9.83903 24.1075 8.70293 24.249 8.56092 24.249C8.41891 24.249 8.41891 24.0367 8.56092 24.0367C8.73844 24.0367 9.99879 23.8599 9.99879 23.8599ZM9.11122 25.7524C9.27098 25.717 10.4071 25.151 10.4071 25.151C10.5491 25.0803 10.6911 25.2748 10.4958 25.3279C10.3183 25.4163 9.32424 25.8939 9.14672 25.9469C9.04021 26.0177 8.96921 25.8231 9.11122 25.7524ZM10.0876 27.2735C10.1941 27.1673 11.1881 26.1946 11.1881 26.1946C11.2769 26.0707 11.4722 26.2122 11.3479 26.3361C11.2059 26.4422 10.3006 27.3265 10.2296 27.415C10.1231 27.5565 9.98104 27.3796 10.0876 27.2735ZM10.3361 19.3497C10.4426 19.4204 10.3538 19.615 10.2118 19.5265C10.0698 19.4204 8.80944 18.6952 8.66743 18.5891C8.54317 18.5184 8.66743 18.3592 8.80944 18.4476C8.91595 18.5184 10.3361 19.3497 10.3361 19.3497ZM10.0876 17.2803C10.3006 17.4925 10.1586 17.6694 9.96329 17.5279C9.76802 17.3864 8.56092 16.1306 8.52542 15.2993C8.75619 15.9007 9.67927 16.9619 10.0876 17.2803ZM3.57276 8.43674C3.67927 8.80816 5.72069 11.8503 7.19406 13.3714C6.43075 12.7878 4.24731 10.6299 3.91003 9.83401C3.87453 11.2844 5.43666 13.283 6.35974 14.5034C5.20589 13.3184 2.75619 10.8068 3.57276 8.43674ZM4.93962 11.8327C5.18814 12.3102 6.78577 14.1143 7.44258 14.6272L7.28282 14.9986C6.5195 14.2027 5.02838 12.381 4.93962 11.8327ZM5.82719 24.1075L5.8982 24.5143C4.79761 24.5673 3.41299 24.5497 2.80944 24.4435C3.32424 24.302 4.79761 24.2313 5.82719 24.1075ZM5.64968 22.7456C4.54909 22.5687 2.95145 22.3211 2.40116 22.1088C2.98696 22.0912 4.67335 22.2327 5.68518 22.3565L5.64968 22.7456ZM5.80944 20.8354C4.76211 20.5347 2.80944 19.8272 2.3479 19.4735C2.82719 19.615 5.08163 20.2694 5.8982 20.4463L5.80944 20.8354ZM2.11714 12.381C2.33015 12.5578 4.49583 14.5742 6.21773 15.7061C5.40116 15.3524 3.27098 14.0435 2.77394 13.3891C3.09347 14.7156 4.58459 15.9891 5.72069 16.8735C4.37157 16.0599 1.95737 14.5565 2.11714 12.381ZM6.64376 16.6966L6.55501 17.0857C5.66743 16.449 3.80353 14.9986 3.64376 14.5034C3.94554 14.9102 5.8982 16.3252 6.64376 16.6966ZM6.19998 18.6245L6.07572 19.0136C5.09938 18.5537 3.37749 17.3333 3.11122 16.8912C3.50175 17.2449 5.40116 18.3769 6.19998 18.6245ZM1.46033 15.8299C2.88045 15.7061 4.37157 16.7143 5.45441 17.4925C4.51359 17.015 2.96921 16.3605 2.2414 16.3605C2.45441 17.0857 4.22956 18.4653 4.93962 18.9782C3.62601 18.3769 1.79761 17.068 1.46033 15.8299ZM0.626011 18.6599C1.99288 18.3238 3.64376 19.1197 4.81536 19.7388C3.80353 19.4204 2.18814 18.9782 1.47808 19.0667C1.77986 19.7742 3.83903 20.6939 4.62009 21.1007C3.23548 20.6762 1.1408 19.8272 0.626011 18.6599ZM0.697017 21.8789C1.90412 21.1361 3.21773 21.5075 4.51359 21.702C3.46625 21.7197 2.17039 21.6667 1.53134 21.985C2.06388 22.5333 3.92779 23.0109 4.77986 23.1524C3.35974 23.1878 1.54909 22.8163 0.697017 21.8789ZM1.17631 24.3728C2.29465 23.5238 3.484 23.6299 4.81536 23.7361C3.76802 23.8422 2.50767 24.0544 1.90412 24.4612C2.47217 24.9741 3.92779 25.2041 4.81536 25.1333C3.32424 25.3633 2.11714 25.381 1.17631 24.3728ZM3.39524 26.2653L2.79169 26.2299C3.34199 25.8762 4.05205 25.7701 4.85086 25.5755C4.42483 25.7878 4.01654 25.8939 3.39524 26.2653ZM3.82128 26.5837C4.33607 26.3184 5.18814 26.0707 6.16447 25.717L6.30648 26.0707C5.25915 26.4245 4.44258 26.5129 3.82128 26.5837ZM5.63193 27.0612L5.08163 27.5388L4.97512 27.2735L5.63193 27.0612ZM4.88637 29.3782L4.76211 29.0952C4.99288 29.1306 5.68518 28.9184 6.4485 28.5116C5.56092 29.2367 5.20589 29.449 4.88637 29.3782ZM5.06388 28.5116C5.50767 28.1401 5.91595 27.8218 6.78577 27.2735L7.01654 27.6095C6.04021 28.1401 5.63193 28.317 5.06388 28.5116ZM5.22364 31.5361C5.06388 30.4571 5.82719 29.7497 6.87453 28.9714C6.16447 29.7497 5.54317 30.5102 5.73844 31.0231C6.34199 31.2884 7.12305 30.2803 7.81536 29.7497C6.82128 30.917 6.43074 31.8544 5.22364 31.5361ZM6.11122 30.6871C6.41299 30.1918 7.28282 29.3605 7.97512 28.6L8.2769 28.8653C7.49583 29.6435 6.60826 30.351 6.11122 30.6871ZM7.76211 33.0925C7.26506 32.102 7.74435 31.2884 8.47217 30.1918C8.04613 31.1469 7.7266 32.0313 8.08163 32.4558C8.72069 32.5265 9.41299 31.4653 9.87453 30.7578C9.32424 32.1551 9.00471 33.0041 7.76211 33.0925ZM9.484 29.6966L9.85678 29.8558C9.37749 30.8463 8.73844 31.5714 8.36566 32.0313C8.52542 31.4653 9.07572 30.6163 9.484 29.6966ZM10.5846 33.8354C9.85678 33.0218 10.2296 32.2082 10.6733 30.9701C10.4958 31.9959 10.3183 32.9687 10.7799 33.2871C11.4189 33.1633 11.8449 32.0313 12.0935 31.2177C11.916 32.7034 11.7562 33.4463 10.5846 33.8354ZM10.9219 32.7742C10.9396 32.2082 11.2414 31.5714 11.3657 30.5456L11.7739 30.6163C11.5432 31.6952 11.1349 32.2082 10.9219 32.7742ZM13.6023 33.7469C12.555 32.9864 12.8745 32.5265 13.0165 31.2531C13.0698 32.2789 13.0165 32.7565 13.6556 33.1633C14.4899 32.668 14.3834 32.0313 14.4722 31.1823C14.6142 32.7034 14.8272 33.1279 13.6023 33.7469ZM13.5136 30.8639L13.9219 30.8286C13.9219 31.9252 13.8864 32.1197 13.7621 32.7034C13.6733 32.1551 13.5846 31.8898 13.5136 30.8639ZM17.5609 30.6163C16.9574 30.6517 16.6378 30.4925 16.2651 29.8027C15.9633 30.298 15.7325 30.5102 15.058 30.634C14.4722 30.298 14.3834 29.9796 14.2947 29.732C14.0639 30.1211 13.7799 30.3687 13.0343 30.3864C12.7148 30.0503 12.2887 29.7673 12.2532 29.3075C11.8094 29.5728 11.4012 29.732 10.9574 29.5374C10.7089 29.166 10.6378 28.8653 10.6201 28.4408C10.052 28.6531 9.43075 28.7592 9.14672 28.5293C8.9337 27.9456 8.8627 27.4857 8.9337 27.0789C8.15264 27.0435 7.60234 26.7075 7.51359 26.3714C7.54909 25.9646 7.67335 25.4694 7.77986 25.2925C7.0698 24.9741 6.89228 24.6204 6.83903 24.4435C6.92779 24.0367 7.0698 23.5946 7.26506 23.4177C6.83903 23.1878 6.39524 22.8163 6.27098 22.3034C6.484 21.8082 6.82128 21.4721 7.1053 21.2422C6.62601 20.6762 6.25323 19.898 6.39524 19.615C6.5195 19.2966 7.31832 18.9782 7.63785 19.049C6.89228 18.3592 6.57276 17.4218 6.80353 17.1388C7.0343 16.8204 8.11714 16.9265 8.38341 17.068C7.88637 16.2014 7.60234 15.4585 8.08163 14.132C8.01063 15.2463 7.76211 16.6435 10.0343 18.3946C9.39524 17.9878 7.95737 16.8558 7.08755 17.351C7.01654 18.0408 7.6911 18.9782 9.16447 19.8803C8.18814 19.385 7.67335 19.0313 6.67927 19.7388C6.85678 20.8531 7.31832 21.1891 8.54317 21.4721C7.6911 21.3306 7.33607 21.1714 6.57276 22.3918C7.12305 23.2585 7.7266 23.4 8.66743 23.3116C7.76211 23.3823 7.38932 23.5061 7.12305 24.3728C7.6911 25.2571 8.20589 25.151 9.05796 24.9565C8.13489 25.2218 7.86861 25.5048 7.83311 26.2653C8.59643 27.0259 9.02246 26.8313 9.76802 26.4245C9.27098 26.9197 9.02246 27.2558 9.37749 28.317C10.3361 28.4939 10.6556 28.2463 11.2591 27.3619C10.9396 28.1401 10.7089 28.6 11.1526 29.2721C12.1112 29.3252 12.342 28.9537 12.7325 28.2993C12.5018 29.0422 12.3597 29.449 13.1053 30.0857C13.8154 30.0327 14.1704 29.6966 14.4367 28.9184C14.4367 29.9442 14.7384 30.1741 15.1467 30.3687C15.8745 30.1388 16.052 29.732 16.2118 29.0599C16.5668 30.0327 17.0994 30.5102 17.5964 30.3864L17.5609 30.6163ZM6.19998 43.2626C5.56092 42.8204 5.98696 42.4844 6.39524 42.2721C5.8982 42.732 6.04021 42.9442 6.19998 43.2626ZM9.55501 44.5714C9.59051 44.7129 9.55501 44.8014 9.4485 44.8544C9.19998 43.5102 8.80944 43.4748 8.72069 42.8027C8.61418 42.0952 8.45441 42.8027 8.45441 42.8027C8.43666 42.8027 8.43666 43.015 8.56092 43.1918C8.57867 43.2095 8.3479 43.1211 8.20589 42.9442C8.17039 42.9442 8.34791 43.1918 8.17039 43.2803C8.17039 43.298 8.2414 43.4571 8.2414 43.6163C8.04613 43.8286 8.2414 43.917 8.40116 43.917C8.57867 43.917 8.64968 43.7755 8.68518 43.6517C8.75619 43.8109 8.72069 44.0408 8.57867 44.2707C8.40116 44.6245 8.72069 44.7483 8.80944 44.7129C8.8982 44.6776 8.98696 44.5714 8.98696 44.3769C9.12897 44.5184 9.09347 44.819 9.00471 44.9959C8.96921 45.1905 8.98696 45.2435 8.96921 45.385C8.95146 45.5265 8.56092 45.8626 8.56092 45.8626C8.56092 45.8626 8.41891 45.8095 8.29465 45.7034C9.30648 45.2966 8.72069 44.766 8.25915 44.9605C7.79761 45.1905 7.74435 45.1197 7.47808 45.1197C7.21181 45.1551 7.21181 44.766 7.30057 44.5184C7.38932 44.5891 7.38933 44.8014 7.46033 44.8367C7.93962 45.0667 8.41891 44.6068 8.41891 44.4299C8.41891 44.1469 7.53134 44.1823 7.38932 44.2354C7.24731 44.3061 6.82128 43.917 6.66151 43.8463C6.5195 43.8109 6.41299 43.634 6.4485 43.4041C6.71477 43.4571 7.12305 43.917 7.44258 43.9878C8.48992 43.8109 7.86861 43.1918 7.76211 43.1565C7.6556 43.1565 7.37157 43.351 7.28282 43.3864C7.17631 43.4571 7.15856 43.1211 7.0698 43.1742C6.96329 43.2449 6.71477 43.1034 6.53725 42.9973C6.35974 42.9088 6.67927 42.6082 6.71477 42.4313C6.76802 42.2898 6.60826 42.3429 6.60826 42.3429C6.59051 42.3429 6.64376 42.0776 6.75027 41.9361C6.91004 43.3156 7.31832 43.0503 7.63785 42.9088C7.0698 42.2014 7.44258 41.8476 7.86861 41.5116C8.02838 41.4054 8.40116 41.2993 8.41891 41.2993C8.47217 41.2993 8.38341 41.4408 7.95737 41.7946C7.49583 42.166 7.54909 42.166 7.67335 42.502C7.77986 42.8735 8.06388 42.8381 8.25915 42.6789C8.45441 42.5197 8.43666 42.2721 8.18814 42.1129C8.3479 42.0776 8.40116 41.8299 8.56092 41.8476C8.66743 41.883 8.47217 42.0599 8.47217 42.0599C8.47217 42.0599 8.56092 42.1837 8.82719 42.1306C9.09347 42.0952 8.9337 42.3605 8.79169 42.502C8.66743 42.6435 9.28873 43.3687 9.39524 43.5102C9.484 43.6694 9.94554 43.4925 9.96329 43.634C9.98104 43.7755 9.484 43.7755 9.39524 43.8639C9.32424 43.9701 9.5195 44.4299 9.55501 44.5714ZM9.83903 44.6245C10.3361 44.0585 11.2414 43.634 11.4367 43.6517C11.2414 43.6517 10.2296 44.3061 9.83903 44.6245ZM10.5668 43.0503C10.1408 43.0503 9.89228 43.068 9.59051 42.3252C9.59051 42.3252 9.94554 42.732 10.2118 42.8912C10.4781 43.0327 11.4899 42.9442 11.4899 42.9442C11.4899 42.9442 10.9751 43.0503 10.5668 43.0503ZM41.3302 43.8286C41.0106 43.9347 40.8686 44.0408 40.5136 44.3061C40.1586 44.5714 39.5195 44.6068 39.1645 44.6245C38.5432 45.0667 37.9041 45.0667 37.5313 45.0136C37.1408 44.9782 35.8982 44.0939 35.9337 44.0585C35.9515 44.0762 37.3893 44.8014 37.7799 44.8721C38.1349 44.9252 38.6852 44.6599 38.7739 44.5007C38.8272 44.3238 39.4307 43.9524 39.697 43.8463C40.4248 43.015 39.0935 42.5551 39.0225 43.3333C39.6438 43.2803 39.1822 43.7225 39.1822 43.7048C39.1822 43.7225 39.3597 43.8286 39.271 43.9347C39.1822 44.0408 38.7917 43.8463 38.7029 43.9701C38.6142 44.1116 38.7917 44.0939 38.6319 44.1293C38.4722 44.1469 38.3657 44.3061 38.4012 44.4122C38.4367 44.5184 38.1881 44.6422 38.0816 44.483C37.9751 44.3415 37.2651 44.1646 37.2651 44.0231C37.2651 43.8993 38.1704 44.1823 38.2769 43.9701C38.4012 43.7932 37.1053 43.7401 37.1053 43.5986C37.1053 43.4395 37.5668 43.4925 37.6556 43.4925C37.7444 43.4925 37.7799 43.2626 37.7799 43.0857C37.7976 43.0857 38.1171 43.298 38.1171 43.298C38.1171 43.298 37.9574 43.4925 37.9929 43.5986C37.9929 43.7225 38.2414 43.634 38.4012 43.7578C38.5432 43.8993 38.7207 43.8286 38.8272 43.5279C38.6674 43.1565 38.987 42.8027 39.271 42.6789C39.3242 42.5374 39.3242 42.3605 39.2 42.2367C39.4485 42.2721 39.555 42.4136 39.7148 42.6789C40.2828 42.9442 40.1586 43.4041 40.1053 43.5456C40.0698 43.7225 40.5313 43.5102 40.7444 43.3864C40.7976 43.1211 40.9219 42.8735 41.2414 42.732C41.2947 42.5551 41.2059 42.4136 41.0639 42.2721C41.4012 42.2721 41.4722 42.4313 41.6674 42.7143C42.0402 43.3687 41.6497 43.6871 41.3302 43.8286ZM43.1586 41.3347C43.1586 41.5293 42.9988 41.6884 42.8035 41.6884C42.626 41.6884 42.4485 41.5293 42.4485 41.3347C42.4485 41.1578 42.6083 40.981 42.8035 40.981C42.9988 40.981 43.1586 41.1401 43.1586 41.3347ZM40.6378 37.8327C41.7029 37.6912 42.91 39.3537 42.9455 40.415L40.5313 40.1673L40.6378 37.8327ZM42.2177 41.2286C42.2177 41.4231 42.0402 41.5823 41.8627 41.5823C41.6852 41.5823 41.5077 41.4231 41.5077 41.2286C41.5077 41.034 41.6852 40.8748 41.8627 40.8748C42.0402 40.8748 42.2177 41.0517 42.2177 41.2286ZM41.2591 41.1224C41.2591 41.317 41.0994 41.4762 40.9041 41.4762C40.7089 41.4762 40.5491 41.317 40.5491 41.1224C40.5491 40.9279 40.7266 40.7687 40.9041 40.7687C41.0994 40.7687 41.2591 40.9279 41.2591 41.1224ZM38.9692 37.0898V36.3293L39.7503 36.4884L39.6083 35.8871H40.3716L40.2118 36.5061L40.9396 36.3469V37.019L40.1408 36.8952L40.3183 37.5497H39.5195L39.7503 36.8776L38.9692 37.0898ZM39.9278 39.6898C40.1231 39.6898 40.2828 39.849 40.2828 40.0435C40.2828 40.2381 40.1231 40.3973 39.9278 40.3973C39.7325 40.3973 39.5728 40.2381 39.5728 40.0435C39.5728 39.849 39.7325 39.6898 39.9278 39.6898ZM39.5905 39.1769C39.5905 38.9823 39.7503 38.8231 39.9455 38.8231C40.1586 38.8231 40.3183 38.9823 40.3183 39.1769C40.3183 39.3537 40.1586 39.5306 39.9455 39.5306C39.7503 39.5129 39.5905 39.3537 39.5905 39.1769ZM39.9633 40.7156C40.1586 40.7156 40.3183 40.8748 40.3183 41.0694C40.3183 41.2639 40.1586 41.4231 39.9633 41.4231C39.768 41.4231 39.6083 41.2463 39.6083 41.0694C39.6083 40.8748 39.768 40.7156 39.9633 40.7156ZM39.9988 38.6109C39.8035 38.6109 39.6438 38.4517 39.6438 38.2571C39.6438 38.0626 39.8035 37.9034 39.9988 37.9034C40.1941 37.9034 40.3538 38.0626 40.3538 38.2571C40.3538 38.4517 40.1941 38.6109 39.9988 38.6109ZM42.4485 42.0422C42.3242 42.3252 42.0402 42.6259 41.9337 42.732L41.7917 42.5374C41.9692 42.3959 42.0047 42.1837 42.0047 42.1837C41.2947 42.0422 39.0047 41.9537 37.6556 42.0068C37.7621 42.2721 38.1171 42.6789 38.6497 43.015L38.5432 43.2095C37.9041 42.9796 37.4426 42.3075 37.2473 41.8122C38.6674 41.7061 40.8509 41.7592 42.4485 42.0422ZM37.7266 41.1401C37.7266 40.9456 37.8864 40.7864 38.0816 40.7864C38.2591 40.7864 38.4367 40.9456 38.4367 41.1401C38.4367 41.3347 38.2769 41.4939 38.0816 41.4939C37.8864 41.4939 37.7266 41.3347 37.7266 41.1401ZM38.6852 41.1048C38.6852 40.9102 38.8449 40.751 39.0402 40.751C39.2355 40.751 39.3952 40.9102 39.3952 41.1048C39.3952 41.2816 39.2355 41.4585 39.0402 41.4585C38.8627 41.4408 38.6852 41.2816 38.6852 41.1048ZM39.484 37.8503L39.413 40.1143L36.981 40.1497C37.1231 39.0884 38.4899 37.585 39.484 37.8503ZM37.052 41.5469C36.8745 41.5469 36.697 41.3878 36.697 41.1932C36.697 40.9986 36.8568 40.8395 37.052 40.8395C37.2473 40.8395 37.4071 40.9986 37.4071 41.1932C37.4071 41.3878 37.2473 41.5469 37.052 41.5469ZM37.2296 42.6259L37.3361 42.7143C36.91 43.0857 36.3065 43.3687 35.4899 43.1565C36.0757 43.1211 36.768 43.0327 37.2296 42.6259ZM30.3242 21.0122C30.058 21.3306 29.2236 21.5429 28.7799 21.4898C28.7266 21.7728 28.7621 22.0912 29.1349 22.5864C28.7444 22.5864 28.2473 22.2327 27.7858 21.5252C27.6793 21.6136 27.768 22.2503 27.8213 22.5333C27.4485 22.3388 26.3657 21.083 26.2947 20.517C25.8154 20.8177 25.7266 22.0204 25.6733 22.5156C25.2118 22.1973 25.1053 21.1537 25.052 20.6231C24.7858 20.8 24.2887 21.5782 24.0935 22.0912C24.0402 19.5442 24.4485 18.0762 25.1763 17.6517C24.7503 18.1293 24.4307 19.7211 24.342 21.0299C24.342 21.1361 24.6793 20.3224 25.2296 19.5442C25.1763 19.7565 25.2828 20.5347 25.4958 21.5429C25.4958 21.2952 25.7976 20.4463 26.3479 19.8449C26.4012 20.4463 27.058 21.3306 27.3775 21.7905C27.342 21.6844 27.342 20.8707 27.5195 20.517C27.555 20.9946 28.1763 21.6136 28.5313 22.0027C28.4426 21.9143 28.4958 21.4544 28.4603 21.0476C28.7799 21.2952 29.0284 21.2245 29.3479 21.1537C28.9396 20.9769 28.1586 20.2694 28.1053 19.668C28.4958 20.6585 29.9515 21.0299 30.3242 21.0122ZM27.058 22.5864H26.7384C26.7029 22.4626 26.4367 22.1088 26.4367 22.1088C26.4367 22.1088 26.4189 22.3741 26.4189 22.5864H26.0994C26.1349 22.3211 26.1349 21.419 26.3657 21.2245C26.4367 21.5075 26.8804 22.4803 27.058 22.5864ZM25.2296 22.5864H24.8923C24.8745 22.4449 24.8035 22.0381 24.8035 22.0381C24.8035 22.0381 24.5905 22.3741 24.5905 22.5864H24.2532C24.2887 22.3211 24.6438 21.5959 24.8745 21.4014C24.9633 21.6667 25.0698 22.4803 25.2296 22.5864ZM29.7917 15.9184C28.4781 16.9265 27.3242 19.2435 27.2 20.3578C26.8094 18.3769 27.4307 16.8912 27.9278 15.9361C27.3242 16.3429 26.1881 18.3061 25.7266 20.0925C25.6201 17.6694 26.2059 16.5551 27.1822 15.2639C26.4012 15.5293 25.0343 17.2626 24.6438 17.6871C26.2946 14.5388 26.6674 14.1497 28.1941 13.8844L27.91 14.1497C26.916 14.2027 25.9929 15.7061 25.9929 15.7061C25.9751 15.7238 26.5609 15.1932 27.7503 14.6803C27.3597 15.1401 26.4722 16.9088 26.1526 17.7755C26.2591 17.4218 27.271 16.0599 28.3893 15.2109C28.1763 15.6531 27.5018 17.6694 27.5018 18.3238C27.8035 17.5986 28.3361 16.8558 29.7917 15.9184C29.9515 15.7946 30.129 15.6884 30.2887 15.6C30.1112 15.7061 29.9515 15.8122 29.7917 15.9184ZM28.6911 13.0884C27.91 14.0435 26.6674 14.0789 25.5668 13.8667C26.3124 13.7959 27.7148 13.0884 28.0343 12.8762C27.8035 13.2476 27.0047 13.6544 26.6497 13.7959C27.342 13.7959 28.1408 13.4422 28.6911 13.0884ZM30.2 14.6626C30.3065 14.4327 30.626 14.0259 30.6615 13.9374C30.3065 14.1143 29.0816 14.9633 28.8331 15.2109C28.8864 14.9102 29.2769 14.0789 29.4544 13.9197C29.0816 14.1497 28.3006 14.7333 28.0876 14.9456C28.1053 14.468 28.8864 13.1592 29.2591 12.8762C28.7444 12.8762 27.9278 12.5401 27.91 12.5224C28.3006 12.6286 29.3657 12.6639 29.8804 12.6286C29.3834 12.9293 28.6378 13.7429 28.4958 14.3619C29.2236 13.6721 30.2355 13.0354 30.6793 12.9469C30.1822 13.2653 29.3302 14.3088 29.2591 14.6803C29.6319 14.415 31.0165 13.3891 31.5846 13.3184C31.2118 13.7252 30.2887 14.468 30.2 14.6626ZM29.5254 12.0449C29.7029 12.0626 32.1881 11.8327 32.987 11.6735C33.129 11.8503 32.8094 12.381 32.5609 12.4694C32.2947 12.0449 29.916 12.1864 29.5254 12.0449ZM33.8568 15.8653C33.5018 15.317 33.0047 15.1578 32.2947 15.0871C33.0047 14.8395 33.6083 15.0871 33.8568 15.8653ZM35.7739 13.9197C36.0225 13.4068 36.058 12.9823 35.8804 12.717C35.7207 12.4694 35.2769 12.1333 34.6023 12.0626C35.2059 12.0095 36.1467 12.2748 36.2 12.9823C36.2355 13.619 35.8094 14.2558 35.7917 14.2558C35.7562 14.2381 34.6911 13.5483 33.3775 14.1143C32.4544 14.5034 31.9751 14.8041 31.7621 14.9633C32.1171 14.6803 33.1467 13.8844 33.7858 13.7605C34.6023 13.6014 34.8331 13.619 35.7739 13.9197ZM34.7266 13.4068C35.0461 13.1592 35.3302 13.1592 35.4367 13.619C35.2769 13.5483 34.9929 13.4952 34.7266 13.4068ZM34.3006 12.0449C33.3065 13.6367 31.1053 15.2993 30.768 15.4585C30.4307 15.6354 30.6438 15.4762 30.6438 15.4408C32.5609 14.1497 34.0698 12.1864 34.1231 12.0803C34.1586 11.7088 33.9278 11.7265 33.7503 11.8327C32.7562 13.7429 31.6911 14.2204 30.4307 14.8218C32.6497 13.566 33.5018 11.9741 33.6083 11.6912C33.91 11.4435 34.3538 11.5143 34.3006 12.0449ZM33.484 9.42721C33.3242 9.42721 33.2177 9.3034 33.2177 9.1619C33.2177 9.00272 33.342 8.91429 33.484 8.91429C33.626 8.91429 33.7503 9.00272 33.7503 9.1619C33.7503 9.32109 33.626 9.42721 33.484 9.42721ZM33.3952 10.6653C32.7562 10.8422 31.3716 10.7891 30.7325 10.6653V10.3293L33.3775 10.3646L33.3952 10.6653ZM33.8213 7.60544C33.981 7.60544 34.0875 7.71156 34.0875 7.87075C34.0875 8.01225 33.9633 8.13605 33.8213 8.13605C33.6793 8.13605 33.555 8.02993 33.555 7.87075C33.555 7.71156 33.6793 7.60544 33.8213 7.60544ZM33.7325 8.25986C33.8923 8.25986 33.9988 8.38367 33.9988 8.52517C33.9988 8.66667 33.8923 8.79048 33.7325 8.79048C33.5905 8.79048 33.4662 8.66667 33.4662 8.52517C33.4662 8.38367 33.5905 8.25986 33.7325 8.25986ZM33.0935 7.72925C33.2355 7.72925 33.342 7.85306 33.342 7.99456C33.342 8.15374 33.2355 8.25986 33.0935 8.25986C32.9337 8.25986 32.8272 8.15374 32.8272 7.99456C32.8094 7.85306 32.9337 7.72925 33.0935 7.72925ZM32.9515 8.41905C33.0935 8.41905 33.2 8.54286 33.2 8.68435C33.2 8.82585 33.0935 8.94966 32.9515 8.94966C32.7917 8.94966 32.6852 8.82585 32.6852 8.68435C32.6674 8.54286 32.7917 8.41905 32.9515 8.41905ZM32.7562 9.46259C32.8449 9.35646 32.9692 9.28571 33.0047 9.3034C33.0225 9.33878 32.987 9.46258 32.8449 9.56871C32.7562 9.67483 32.6319 9.74558 32.5964 9.72789C32.5609 9.69252 32.6319 9.56871 32.7562 9.46259ZM32.5077 9.46259C32.4189 9.63946 32.3302 9.76327 32.2769 9.72789C32.2236 9.7102 32.2414 9.53333 32.3302 9.35646C32.4189 9.17959 32.5077 9.05578 32.5787 9.09116C32.6142 9.14422 32.5964 9.28571 32.5077 9.46259ZM32.4722 7.55238L32.7207 7.49932L32.4544 8.82585H32.3479L32.4722 7.55238ZM31.6023 5.97823V5.65986H31.8864V5.35918H32.2236V5.65986H32.5077V5.97823H32.2236V6.26122H31.8864V5.97823H31.6023ZM31.7444 6.88027C31.7444 6.7034 31.9041 6.54422 32.0994 6.54422C32.2769 6.54422 32.4189 6.7034 32.4189 6.88027C32.4189 7.05714 32.2769 7.21633 32.0994 7.21633C31.8864 7.21633 31.7444 7.05714 31.7444 6.88027ZM32.0284 8.86122C31.9396 8.86122 31.8864 8.80816 31.8864 8.73742C31.8864 8.64898 31.9396 8.61361 32.0284 8.61361C32.0994 8.61361 32.1526 8.66667 32.1526 8.73742C32.1526 8.80816 32.0994 8.86122 32.0284 8.86122ZM32.0994 9.35646C32.0994 9.56871 32.0639 9.74558 31.9929 9.74558C31.9219 9.74558 31.8864 9.56871 31.8864 9.35646C31.8864 9.14422 31.9219 8.98503 31.9929 8.98503C32.0639 8.96735 32.0994 9.14422 32.0994 9.35646ZM32.0461 8.41905C31.9574 8.41905 31.8864 8.36599 31.8864 8.25986C31.8864 8.17143 31.9574 8.10068 32.0461 8.10068C32.1349 8.10068 32.2236 8.17143 32.2236 8.25986C32.2236 8.36599 32.1349 8.41905 32.0461 8.41905ZM32.0461 7.92381C31.9396 7.92381 31.8509 7.83537 31.8509 7.72925C31.8509 7.62313 31.9396 7.53469 32.0461 7.53469C32.1526 7.53469 32.2414 7.62313 32.2414 7.72925C32.2414 7.83537 32.1526 7.92381 32.0461 7.92381ZM31.9929 9.92245C32.5964 9.92245 33.0935 9.9932 33.0935 10.0639C33.0935 10.1347 32.6142 10.2054 31.9929 10.2054C31.3538 10.2054 30.8745 10.1347 30.8745 10.0639C30.8745 9.9932 31.3716 9.92245 31.9929 9.92245ZM31.3716 9.74558C31.3361 9.76326 31.2118 9.7102 31.1053 9.58639C30.9988 9.46259 30.9278 9.35646 30.9455 9.32109C30.9988 9.28571 31.1231 9.35646 31.2118 9.48027C31.3361 9.56871 31.4071 9.69252 31.3716 9.74558ZM31.4071 9.10884C31.4603 9.09116 31.5668 9.19728 31.6378 9.37415C31.7266 9.55102 31.7621 9.7102 31.7089 9.74558C31.6378 9.76326 31.5313 9.65714 31.4603 9.48027C31.3716 9.28571 31.3538 9.14422 31.4071 9.10884ZM31.6023 7.55238L31.7266 8.82585H31.6201L31.3538 7.49932L31.6023 7.55238ZM30.8745 8.25986H31.0875V8.47211H31.3006V8.71973H31.0875V8.91429H30.8745V8.71973H30.6615V8.47211H30.8745V8.25986ZM30.1822 7.87075H30.3952V7.6585H30.626V7.87075H30.839V8.10068H30.626V8.31293H30.3952V8.10068H30.1822V7.87075ZM30.342 9.49796V9.3034H30.129V9.07347H30.342V8.84354H30.5728V9.05578H30.768V9.28571H30.5728V9.48027H30.342V9.49796ZM33.5728 10.8599C33.697 10.8245 33.697 10.9129 33.697 11.0014H33.6438C33.058 11.1605 28.9929 11.2136 27.5018 11.1429C27.5195 11.3374 28.1408 11.815 28.2651 11.9211C28.0343 11.9741 27.6438 12.151 27.484 12.2571C27.5373 12.2218 27.7858 12.0272 27.9988 11.8857C27.6438 11.6381 27.3065 11.2667 27.2532 11.019C29.3479 11.2313 33.4485 10.8776 33.5728 10.8599ZM27.9278 10.4707H27.8923C27.8568 10.4531 27.839 10.4354 27.8035 10.4177C26.7029 9.97551 25.5491 9.10884 24.9455 8.33061C25.1231 8.40136 25.3716 8.43674 25.5846 8.43674C25.9751 8.96735 26.9337 9.90476 27.8213 10.4177C27.839 10.4354 27.8923 10.4531 27.9278 10.4707ZM23.5787 8.73742C23.7384 8.77279 23.8627 8.79048 24.129 8.80816C24.3065 8.80816 24.4485 8.80816 24.626 8.77279C24.8035 8.73741 24.9278 8.80816 24.8035 8.87891C24.697 8.93197 24.4662 8.96735 24.0757 8.94966C23.7029 8.93197 23.4722 8.91429 23.3657 8.86122C23.2414 8.77279 23.3834 8.70204 23.5787 8.73742ZM23.4899 8.3483C23.4899 8.22449 23.7562 8.27755 24.058 8.29524C24.3952 8.29524 24.6615 8.25986 24.6615 8.36599C24.6615 8.4898 24.4662 8.4898 24.058 8.47211C23.6852 8.47211 23.4899 8.47211 23.4899 8.3483ZM24.0757 8.02993C23.4367 8.02993 22.5846 8.10068 22.052 8.18912L21.981 8.01225C22.2296 7.92381 23.3479 7.8 24.0757 7.8C24.8213 7.8 25.9574 7.97687 26.2059 8.06531L26.1349 8.24218C25.6023 8.15374 24.7503 8.02993 24.0757 8.02993ZM24.0757 7.42857C24.8213 7.42857 26.0461 7.60544 26.2769 7.67619L26.2414 7.85306C25.6911 7.76463 24.7148 7.64082 24.0757 7.64082C23.4544 7.60544 22.4958 7.71156 21.9455 7.78231L21.91 7.60544C22.1586 7.51701 23.3834 7.3932 24.0757 7.42857ZM22.5313 6.79184C22.5491 6.7034 22.7799 6.7034 23.0461 6.79184C23.2946 6.88027 23.4899 7.00408 23.4544 7.09252C23.4367 7.18095 23.2059 7.18095 22.9574 7.1102C22.7089 7.02177 22.4958 6.88027 22.5313 6.79184ZM24.129 3.8381C24.2 3.8381 24.2887 3.90884 24.2887 3.99728C24.2887 4.08571 24.2 4.15646 24.129 4.15646C24.0402 4.15646 23.987 4.08571 23.987 3.99728C23.9692 3.90884 24.0402 3.8381 24.129 3.8381ZM23.9337 3.44898C23.9337 3.34286 24.0225 3.25442 24.1112 3.25442C24.2177 3.25442 24.2887 3.34286 24.2887 3.44898C24.2887 3.5551 24.2 3.64354 24.1112 3.64354C24.0225 3.62585 23.9337 3.5551 23.9337 3.44898ZM24.2355 4.59864C24.2355 4.66939 24.1645 4.74014 24.0935 4.74014C24.0225 4.74014 23.9692 4.66939 23.9692 4.59864C23.9692 4.54558 24.0225 4.47483 24.0935 4.47483C24.1822 4.45714 24.2355 4.52789 24.2355 4.59864ZM24.0757 5.69524C24.1645 5.69524 24.2532 6.01361 24.2532 6.40272C24.2532 6.79184 24.1645 7.1102 24.0757 7.1102C23.987 7.1102 23.8982 6.79184 23.8982 6.40272C23.8982 6.01361 23.987 5.69524 24.0757 5.69524ZM25.5491 5.35918C25.4071 5.35918 25.3006 5.23537 25.3006 5.09388C25.3006 4.93469 25.4071 4.82857 25.5491 4.82857C25.7089 4.82857 25.8154 4.93469 25.8154 5.09388C25.8331 5.23537 25.7089 5.35918 25.5491 5.35918ZM25.8509 5.46531C26.0106 5.46531 26.1349 5.57143 26.1349 5.73061C26.1349 5.8898 26.0106 6.01361 25.8509 6.01361C25.7089 6.01361 25.6023 5.8898 25.6023 5.73061C25.6023 5.57143 25.7089 5.46531 25.8509 5.46531ZM25.6556 6.8449C25.6733 6.93333 25.4958 7.05714 25.2296 7.1102C24.9633 7.19864 24.7325 7.18095 24.7148 7.07483C24.697 7.00408 24.8923 6.88027 25.1408 6.80952C25.3893 6.73878 25.6201 6.75646 25.6556 6.8449ZM27.5905 9.94014C27.2 9.76327 26.2769 8.87891 26.0284 8.50748C26.0994 8.47211 26.2059 8.4898 26.2414 8.50748C26.5432 8.8966 27.3952 9.78095 27.5905 9.94014ZM26.5077 6.63265C26.3479 6.63265 26.2414 6.50884 26.2414 6.36735C26.2414 6.22585 26.3657 6.10204 26.5077 6.10204C26.6497 6.10204 26.7562 6.20816 26.7562 6.36735C26.7562 6.52653 26.6497 6.63265 26.5077 6.63265ZM26.5787 5.80136C26.4189 5.80136 26.3302 5.67755 26.3302 5.51837C26.3302 5.37687 26.4189 5.27075 26.5787 5.27075C26.7207 5.27075 26.8449 5.37687 26.8449 5.51837C26.8449 5.67755 26.7384 5.80136 26.5787 5.80136ZM27.2887 4.98776C27.2887 5.12925 27.2 5.23537 27.0402 5.23537C26.8982 5.23537 26.7739 5.12925 26.7739 4.98776C26.7739 4.82857 26.8982 4.72245 27.0402 4.72245C27.1822 4.72245 27.2887 4.84626 27.2887 4.98776ZM26.8449 3.8381C27.0047 3.8381 27.1112 3.94422 27.1112 4.1034C27.1112 4.2449 27.0047 4.36871 26.8449 4.36871C26.7029 4.36871 26.5787 4.26259 26.5787 4.1034C26.5787 3.96191 26.7029 3.8381 26.8449 3.8381ZM26.6142 4.7932C26.6142 4.93469 26.5077 5.0585 26.3657 5.0585C26.2059 5.0585 26.0994 4.95238 26.0994 4.7932C26.0994 4.63401 26.2059 4.52789 26.3657 4.52789C26.4899 4.52789 26.6142 4.63401 26.6142 4.7932ZM26.2591 3.16599C26.4189 3.16599 26.5254 3.2898 26.5254 3.43129C26.5254 3.59048 26.4012 3.6966 26.2591 3.6966C26.1171 3.6966 26.0106 3.59048 26.0106 3.43129C26.0106 3.2898 26.1171 3.16599 26.2591 3.16599ZM25.9396 3.82041C26.0816 3.82041 26.2059 3.94422 26.2059 4.08571C26.2059 4.2449 26.0994 4.35102 25.9396 4.35102C25.7976 4.35102 25.6733 4.2449 25.6733 4.08571C25.6733 3.94422 25.7976 3.82041 25.9396 3.82041ZM25.3361 2.98912L25.6556 3.04218L25.0165 5.48299L24.8568 5.46531L25.3361 2.98912ZM24.8568 5.94286C24.9455 5.97823 24.9278 6.26122 24.839 6.5619C24.7503 6.86258 24.6083 7.1102 24.5017 7.09252C24.4307 7.05714 24.4307 6.79184 24.5195 6.47347C24.6083 6.17279 24.768 5.90748 24.8568 5.94286ZM23.5787 0.972789V0.548299L24.0225 0.689796L23.9337 0.159184H24.413L24.3065 0.672109L24.7325 0.583673V0.990476L24.2887 0.831293L24.3952 1.30884H23.916L24.0225 0.831293L23.5787 0.972789ZM23.6319 1.9102C23.6319 1.6449 23.8804 1.39728 24.1645 1.39728C24.4485 1.39728 24.6793 1.6449 24.6793 1.9102C24.6793 2.21088 24.4485 2.44082 24.1645 2.44082C23.8627 2.44082 23.6319 2.21088 23.6319 1.9102ZM24.129 2.86531H24.6438L24.4307 5.21769H24.271L24.4662 3.05986L24.129 3.04218H23.8094L23.9515 5.2L23.8094 5.21769L23.6319 2.86531H24.129ZM23.6674 6.4381C23.7384 6.75646 23.7562 7.03946 23.6497 7.07483C23.5609 7.09252 23.4367 6.8449 23.3479 6.52653C23.2769 6.24354 23.2769 5.96054 23.3479 5.90748C23.4544 5.8898 23.5787 6.1551 23.6674 6.4381ZM22.9396 2.95374L23.3657 5.42993L23.2236 5.44762L22.6201 2.97143L22.9396 2.95374ZM22.0165 4.12109H22.2296V3.90884H22.4426V4.12109H22.6556V4.35102H22.4426V4.54558H22.2296V4.35102H22.0165V4.12109ZM21.9455 5.14694H22.1586V4.93469H22.3716V5.14694H22.5846V5.35918H22.3893V5.57143H22.1763V5.35918H21.9633V5.14694H21.9455ZM21.129 3.80272H21.342V3.59048H21.5728V3.80272H21.768V4.01497H21.5728V4.22721H21.3242V4.01497H21.1112V3.80272H21.129ZM20.8627 5.09388V4.86395H21.0757V4.6517H21.3065V4.86395H21.5195V5.09388H21.3065V5.30612H21.0757V5.09388H20.8627ZM21.7325 6.11973V6.31429H21.5018V6.11973H21.2887V5.87211H21.5018V5.65986H21.7325V5.87211H21.9455V6.11973H21.7325ZM21.9455 8.43674C21.9633 8.43674 22.0875 8.40136 22.1586 8.43674C21.8923 8.79048 20.9692 9.67483 20.5609 9.83401C20.7384 9.69252 21.626 8.82585 21.9455 8.43674ZM22.6733 8.36599C22.8686 8.33061 23.0284 8.31293 23.2414 8.29524C22.6023 9.09116 21.342 9.95782 20.2414 10.4C21.129 9.94014 22.3716 8.82585 22.6733 8.36599ZM23.0816 9.03809C23.4544 9.19728 23.5432 9.21497 24.058 9.25034C24.6083 9.25034 24.7148 9.25034 25.0875 9.07347C25.7976 9.74558 27.3065 10.5061 28.6733 10.8422C27.9278 10.9306 26.9337 10.7361 26.4012 10.3646C26.3834 10.9129 27.5905 11.8503 27.5905 11.8503C27.5905 11.8503 27.1467 11.9741 26.8804 11.9741C26.5964 11.9741 26.7207 12.1687 26.8627 12.2748C26.9692 12.381 27.4485 12.4871 27.7325 12.7347C26.7207 13.6014 25.6556 13.5306 24.697 13.3537C24.7858 13.902 25.8686 14.2558 26.3124 14.3442C25.9041 14.8571 24.7503 16.7143 24.0047 18.3946C23.2591 16.5728 22.1763 14.6803 21.768 14.185C22.2118 14.0789 23.2946 13.7429 23.4012 13.2122C22.4248 13.3537 21.3597 13.3891 20.3657 12.6109C20.6497 12.3633 21.129 12.2925 21.271 12.1687C21.3952 12.0803 21.5373 11.8857 21.2532 11.8857C20.987 11.868 20.5432 11.7265 20.5254 11.7265C20.5432 11.7265 21.768 10.8245 21.768 10.2762C21.2177 10.6476 20.2236 10.8068 19.5313 10.7007C20.8094 10.4177 22.3361 9.69252 23.0816 9.03809ZM19.2473 14.9456C19.0165 14.7333 17.8094 13.849 17.4544 13.6544C17.5254 13.7252 17.8094 14.132 17.916 14.3973C17.8272 14.185 16.9219 13.4068 16.5491 13.0354C17.1171 13.1061 18.484 14.1497 18.839 14.4503C18.7858 14.0789 17.9515 13.0354 17.4367 12.7878C17.8804 12.8762 18.8923 13.4422 19.5136 14.1497C19.4248 13.5129 18.768 12.8054 18.271 12.4871C18.768 12.5224 19.7444 12.4871 20.1171 12.4163C20.1171 12.4163 19.3893 12.7347 18.8745 12.717C19.2473 12.9823 19.9219 14.2381 19.8864 14.7156C19.6911 14.468 19.0343 13.902 18.6438 13.6367C18.8568 13.8136 19.2296 14.6449 19.2473 14.9456ZM15.6083 12.2395C15.3952 12.1333 15.058 11.6027 15.2177 11.4258C16.0165 11.6204 18.4662 11.9211 18.6615 11.9034C18.271 12.0272 15.8923 11.815 15.6083 12.2395ZM19.4603 12.9646C19.9219 13.1946 20.7029 13.5483 21.413 13.6014C21.0402 13.4422 20.2591 13.0177 20.0461 12.7524C20.3657 12.9823 21.7503 13.619 22.4958 13.6721C21.3775 13.902 20.1171 13.8136 19.4603 12.9646ZM17.7207 9.28571C17.5609 9.28571 17.4544 9.1619 17.4544 9.02041C17.4367 8.87891 17.5432 8.7551 17.7029 8.7551C17.8449 8.7551 17.9515 8.84354 17.9692 9.00272C17.9692 9.16191 17.8449 9.28571 17.7207 9.28571ZM16.2473 9.7102C16.8686 9.7102 17.3479 9.79864 17.3479 9.88708C17.3479 9.97551 16.8331 10.0109 16.2296 10.0109C15.626 9.9932 15.129 9.90476 15.129 9.83401C15.129 9.74558 15.6438 9.69252 16.2473 9.7102ZM15.2 9.07347C15.2355 9.0381 15.3597 9.10884 15.4662 9.23265C15.555 9.33878 15.6438 9.46259 15.6083 9.49796C15.5728 9.53333 15.4485 9.46258 15.342 9.33878C15.2355 9.23265 15.1822 9.10884 15.2 9.07347ZM16.2118 8.64898C16.1408 8.64898 16.0875 8.57823 16.0875 8.50748C16.0875 8.43673 16.1586 8.40136 16.2118 8.40136C16.3006 8.40136 16.3538 8.45442 16.3538 8.54286C16.3538 8.59592 16.3006 8.64898 16.2118 8.64898ZM16.3538 9.14422C16.3361 9.35646 16.3006 9.53333 16.2118 9.53333C16.1586 9.53333 16.1231 9.35646 16.1231 9.14422C16.1231 8.93197 16.1941 8.77279 16.2473 8.77279C16.3006 8.77279 16.3538 8.93197 16.3538 9.14422ZM16.1941 8.2068C16.1231 8.2068 16.0343 8.13605 16.0343 8.04762C16.0343 7.95918 16.1231 7.87075 16.2118 7.88843C16.3006 7.88843 16.3716 7.95918 16.3716 8.04762C16.3538 8.13605 16.3006 8.2068 16.1941 8.2068ZM16.2118 7.71156C16.1231 7.71156 16.0165 7.60544 16.0165 7.49932C16.0165 7.3932 16.1053 7.28707 16.2118 7.30476C16.3361 7.30476 16.4071 7.3932 16.4071 7.49932C16.4071 7.62313 16.3183 7.71156 16.2118 7.71156ZM16.7976 9.26803C16.6911 9.4449 16.5846 9.55102 16.5313 9.53333C16.4781 9.51565 16.4958 9.35646 16.5846 9.1619C16.6733 8.98503 16.7799 8.87891 16.8509 8.8966C16.8686 8.93197 16.8509 9.09116 16.7976 9.26803ZM16.9929 9.28571C17.0994 9.1619 17.2236 9.09116 17.2591 9.12653C17.2769 9.1619 17.2414 9.28571 17.0994 9.39184C16.9929 9.49796 16.8686 9.55102 16.8331 9.51565C16.8154 9.49796 16.8686 9.37415 16.9929 9.28571ZM17.5254 10.1524V10.4884C16.8509 10.5946 15.4662 10.6122 14.8449 10.4177L14.8627 10.117L17.5254 10.1524ZM17.9337 8.63129C17.7917 8.64898 17.6674 8.54286 17.6674 8.38367C17.6674 8.24218 17.7562 8.11837 17.916 8.11837C18.058 8.11837 18.1822 8.22449 18.1822 8.36599C18.2 8.50748 18.0757 8.61361 17.9337 8.63129ZM17.8449 7.46395C17.9692 7.46395 18.1112 7.57007 18.1112 7.71156C18.1112 7.87075 18.0047 7.97687 17.8627 7.99456C17.7029 8.01225 17.5964 7.90612 17.5787 7.74694C17.5787 7.60544 17.6852 7.48163 17.8449 7.46395ZM17.2236 7.60544C17.3657 7.60544 17.4899 7.71157 17.5077 7.85306C17.5077 7.99456 17.3834 8.11837 17.2414 8.11837C17.0994 8.13605 16.9929 8.02993 16.9751 7.87075C16.9751 7.72925 17.0816 7.60544 17.2236 7.60544ZM17.1171 8.29524C17.2591 8.29524 17.3834 8.38367 17.3834 8.56054C17.4012 8.68435 17.2769 8.82585 17.1526 8.82585C16.9929 8.84354 16.8864 8.73742 16.8686 8.57823C16.8686 8.41905 16.9751 8.31293 17.1171 8.29524ZM16.6733 7.34014L16.8864 7.28708L16.6023 8.61361H16.5136L16.6733 7.34014ZM15.7858 5.76599V5.42993H16.0875V5.14694H16.4071V5.42993H16.7089V5.76599H16.4071V6.04898H16.0875V5.76599H15.7858ZM15.8745 6.65034C15.8745 6.45578 16.0343 6.2966 16.2118 6.31429C16.3893 6.31429 16.5668 6.47347 16.5491 6.65034C16.5491 6.82721 16.3893 6.98639 16.1941 6.98639C15.9988 6.98639 15.8568 6.8449 15.8745 6.65034ZM15.9455 9.51565C15.8923 9.53333 15.7858 9.42721 15.7148 9.25034C15.626 9.07347 15.626 8.91429 15.6615 8.87891C15.7148 8.86122 15.8213 9.00272 15.8745 9.17959C15.9633 9.33878 15.9988 9.49796 15.9455 9.51565ZM15.8035 7.32245L15.8923 8.63129L15.7858 8.61361L15.555 7.28708L15.8035 7.32245ZM15.058 8.24218H15.2887V8.45442L15.5017 8.43674V8.66667H15.3065L15.3242 8.87891L15.0935 8.8966V8.68435H14.8804L14.8627 8.45442H15.0757V8.24218H15.058ZM14.5254 7.64082H14.7562L14.7739 7.85306L14.9692 7.83537L14.987 8.06531L14.7739 8.08299L14.7917 8.27755H14.5609L14.5432 8.06531L14.3302 8.08299V7.85306H14.5432L14.5254 7.64082ZM14.3479 9.28571L14.3302 9.05578L14.5432 9.03809V8.82585L14.7739 8.80816V9.03809L14.987 9.02041V9.26803H14.7917V9.48027L14.5787 9.49796V9.28571H14.3479ZM14.6497 10.5946C14.7917 10.6476 18.839 11.1075 20.8449 10.9483C20.7739 11.1782 20.4367 11.5497 20.0639 11.7973C20.2414 11.9034 20.4367 12.0626 20.5432 12.1333C20.5787 12.151 20.5964 12.1687 20.6142 12.1864C20.6142 12.1864 20.5787 12.1687 20.5432 12.1333C20.3657 12.0272 20.0284 11.868 19.8154 11.815C19.9574 11.7265 20.5787 11.2667 20.6142 11.0544C19.2473 11.0898 15.1645 10.9306 14.5787 10.7537H14.5254C14.5077 10.6476 14.5077 10.5592 14.6497 10.5946ZM14.2236 15.4762C14.4899 14.7333 15.129 14.4857 15.839 14.751C15.1112 14.7864 14.5964 14.9102 14.2236 15.4762ZM16.3361 14.6626C16.1586 14.5211 15.697 14.185 14.7207 13.7605C13.4426 13.1415 12.3597 13.8136 12.3242 13.849C12.3242 13.8313 11.8982 13.1946 11.9515 12.6639C12.0225 11.9741 12.9455 11.7442 13.5668 11.7973C12.91 11.8327 12.4662 12.1687 12.2887 12.4163C12.1112 12.6816 12.129 13 12.3775 13.5129C13.3361 13.2299 13.5491 13.2299 14.3124 13.4068C14.987 13.5306 16.0343 14.3973 16.3361 14.6626C16.3893 14.7156 16.4248 14.7333 16.4248 14.7333C16.4248 14.7333 16.3893 14.698 16.3361 14.6626ZM13.4071 13.0354C13.1408 13.0884 12.8568 13.1238 12.7148 13.2122C12.8213 12.7878 13.1053 12.8054 13.4071 13.0354ZM14.4367 11.5673C14.2591 11.4612 14.0284 11.4258 14.0461 11.7973C14.0994 11.9211 15.5728 13.7959 17.4367 15.1224C17.4367 15.1755 17.6497 15.3347 17.3124 15.1578C16.9929 14.981 14.8272 13.283 13.8864 11.7619C13.8509 11.249 14.2769 11.1959 14.5609 11.4258C14.6852 11.6912 15.4662 13.1946 17.6674 14.5034C16.4248 13.8844 15.3952 13.3891 14.4367 11.5673ZM18.3775 15.7061C18.2 15.5823 18.0225 15.4585 17.8272 15.317C18.0047 15.4054 18.1822 15.5469 18.3775 15.7061C19.6556 16.6435 20.1349 17.3864 20.4012 18.0762C20.4367 17.4218 19.7976 15.3878 19.5846 14.9279C20.5964 15.7769 21.5195 17.0327 21.7148 17.4925C21.3952 16.5551 20.6142 14.8748 20.2414 14.4327C21.4307 14.981 21.9633 15.5116 21.9633 15.5116C21.9633 15.5116 21.1112 13.9728 20.1171 13.8844L19.8331 13.619C21.3775 13.9551 21.7148 14.3619 23.2947 17.5279C22.9219 17.0857 21.626 15.3347 20.8449 15.0517C21.768 16.3782 22.3361 17.4925 22.1586 19.9156C21.7503 18.1293 20.6674 16.1483 20.0639 15.7238C20.5254 16.6789 21.1112 18.2 20.6674 20.1456C20.5609 19.0313 19.5846 16.7673 18.3775 15.7061ZM19.1586 21.2422C18.6793 21.3129 17.8627 21.0653 17.6142 20.7116C17.987 20.7293 19.3538 20.3932 19.7621 19.4381C19.6911 20.0571 18.9988 20.7646 18.5728 20.9061C18.8923 20.9769 19.1408 21.0476 19.3716 20.8354C19.3361 21.2422 19.3716 21.6844 19.2651 21.7728C19.6378 21.4014 20.2591 20.8 20.3479 20.3224C20.5077 20.6585 20.4722 21.5075 20.4367 21.6136C20.7917 21.1714 21.4485 20.2694 21.555 19.6857C22.0875 20.2871 22.3538 21.1361 22.3538 21.3837C22.5668 20.3932 22.7089 19.615 22.6733 19.4027C23.2059 20.1986 23.5077 21.0299 23.5254 20.9061C23.4722 19.5973 23.2059 18.0054 22.7799 17.5102C23.5077 17.9524 23.8627 19.4204 23.7562 21.9673C23.5787 21.4367 23.1171 20.6585 22.8331 20.4816C22.7976 20.9769 22.6378 22.0381 22.1941 22.3388C22.1586 21.8259 22.0875 20.6231 21.6083 20.3048C21.5373 20.8884 20.4367 22.1088 20.0461 22.2857C20.1349 22.0027 20.2236 21.3837 20.1171 21.2952C19.6378 22.0027 19.2473 22.3034 18.8568 22.3034C19.1231 21.8258 19.1941 21.5429 19.1586 21.2422ZM23.5254 22.4449L23.1881 22.4272C23.1881 22.215 23.0106 21.8789 23.0106 21.8789C23.0106 21.8789 22.9041 22.2857 22.9041 22.4272H22.5668C22.7444 22.3388 22.8686 21.5252 22.9751 21.2422C23.1704 21.4544 23.4899 22.1796 23.5254 22.4449ZM21.3775 21.9143C21.3775 21.9143 21.0935 22.2503 21.0757 22.3741H20.7562C20.916 22.2857 21.3775 21.3129 21.484 21.0476C21.7148 21.2422 21.697 22.1442 21.7148 22.3918H21.3775C21.3952 22.1796 21.3775 21.9143 21.3775 21.9143ZM17.8627 22.834H29.7739L29.7917 33.3401C29.6852 34.6844 29.8094 36.4354 26.7739 36.4707C23.7384 36.5061 23.7917 37.5497 23.7029 39.0177C23.6142 37.4258 23.7029 36.4884 20.6497 36.3646C17.7207 36.2585 17.916 34.3837 17.8449 33.0571L17.8627 22.834ZM25.8154 45.3143C27.271 47.2952 27.129 47.9673 26.4367 49.6653C27.058 47.8435 26.3657 46.5524 25.8154 45.3143ZM24.5728 41.9184C25.6733 44.1823 27.342 45.3673 27.697 46.2871H27.3775C26.4012 44.8898 24.626 43.0503 24.5728 41.9184ZM23.8272 42.219C24.0047 41.883 24.4662 40.3265 24.5373 39.6898L24.8745 39.6544C24.8568 39.9197 24.271 41.7592 23.8272 42.219ZM24.0225 39.8136C24.3597 39.283 25.052 37.9388 25.2473 36.8599L25.5846 36.8422C25.5313 37.0721 24.7858 38.9293 24.0225 39.8136ZM20.6674 49.4707C20.0284 47.7374 19.8864 47.0476 21.413 45.1197C20.8094 46.3578 20.0639 47.6136 20.6674 49.4707ZM19.8154 46.0571H19.4958C19.8509 45.1374 21.5905 44.0054 22.7266 41.7415C22.6378 42.8912 20.8094 44.6776 19.8154 46.0571ZM22.4781 39.4776L22.7976 39.5483C22.8509 40.185 23.2947 41.7415 23.4544 42.0952C23.0284 41.6 22.4781 39.7605 22.4781 39.4776ZM21.8568 36.6476L22.1941 36.6653C22.3716 37.7796 23.0106 39.1415 23.3302 39.6544C22.5846 38.7701 21.8923 36.8776 21.8568 36.6476ZM23.4899 42.5197L23.7917 42.502C23.8272 44.4476 23.5964 49.2762 23.5787 49.2585C23.5432 49.2231 23.4012 44.4653 23.4899 42.5197ZM23.5432 40.2558L23.8094 40.2912C23.7739 40.7156 23.6852 41.2286 23.6674 41.2109C23.6497 41.2109 23.5787 40.6803 23.5432 40.2558ZM17.0994 34.9143C16.7621 35.0912 15.7503 35.3034 15.484 35.834C16.3538 35.4803 16.8509 35.3741 17.1881 35.5687C16.6556 35.9755 16.5668 36.0816 16.6023 36.2054C17.1704 36.0639 17.6674 36.117 17.9337 36.3293C16.9929 36.5415 16.2118 36.6476 15.839 36.8776C15.8745 36.5061 15.9278 36.2231 16.1408 35.9932C15.1822 36.2762 14.6142 36.683 14.3479 36.966C14.6497 36.1701 14.8982 35.3565 17.0994 34.9143ZM13.9574 38.098C14.2414 37.7796 14.3479 37.585 14.7029 37.4612C14.7029 37.7442 14.7029 38.0095 14.8449 38.2748C14.987 38.0095 15.3775 37.532 15.413 37.4966C15.1822 37.9388 14.916 38.7347 14.8804 38.9646C14.6852 38.6993 14.5432 38.3456 14.4544 38.0095C14.2947 38.0626 13.8686 38.4871 13.6911 38.6993C13.6378 38.3279 13.6023 37.302 13.9041 36.6653C13.8864 37.1252 13.8686 37.9211 13.9574 38.098ZM17.4367 42.219C17.1171 42.2544 16.1763 42.3252 15.981 42.2721C16.2828 42.1837 17.0816 42.0068 17.2236 41.9537C17.1881 41.7769 17.1881 41.4408 17.3302 41.4408C17.5254 41.6354 17.6674 42.0952 17.4367 42.219ZM18.697 40.4327C17.7739 40.5742 17.5964 40.4503 17.3302 39.5837C17.2769 39.7605 17.3302 40.5211 16.9751 40.9986C16.7089 40.7156 16.5668 40.1497 16.4426 39.5129C16.3716 39.7252 16.3538 40.4503 16.1586 41.0694C16.0165 40.5918 15.7325 40.1673 15.3597 39.5306C15.1645 39.9197 14.8627 40.2027 14.4012 40.5211C14.5254 40.2558 14.4189 39.4422 14.2236 39C13.7621 39.4245 13.4071 39.6721 12.6793 39.6367C13.8154 39.4245 11.9337 36.0109 14.4722 35.6748C12.5373 36.3116 13.6911 38.6816 13.3361 39.1592C13.5491 39.1769 13.9929 38.9292 14.3657 38.4517C14.4899 38.7347 14.6319 39.2299 14.7384 39.902C14.8627 39.849 15.0757 39.6014 15.271 39.1769C15.4485 39.2653 15.8568 39.619 16.052 40.132C16.052 39.6721 16.2651 39.0354 16.4958 38.8054C16.5846 39.0884 16.6911 39.5306 16.9574 39.849C17.0994 39.7252 17.1349 39.3537 17.2059 38.7524C17.2591 38.8585 17.3479 39.1238 17.6319 39.4599C17.6319 39.1061 17.7917 38.6109 18.3597 38.0449C17.6674 38.9823 17.7562 39.902 18.697 40.4327ZM15.5373 38.5932C15.5018 37.6204 16.3183 36.8775 18.3065 36.5061C17.1349 37.1252 16.3893 37.3905 16.1763 37.9211C17.0994 37.532 19.1586 37.2667 19.9041 37.585C18.8213 37.4082 16.3893 37.8503 15.5373 38.5932ZM17.7739 37.1605C18.9455 36.7537 19.4248 36.3469 20.8804 37.7973C20.2769 37.3905 19.4781 36.8068 17.7739 37.1605ZM20.7562 36.6476L21.0935 36.6653C21.3597 37.4612 21.9988 38.3986 22.3006 39.0707C21.4485 38.2395 20.987 37.2136 20.7562 36.6476ZM20.6497 41.6177C20.916 41.5469 21.91 40.3619 21.7148 39.4068C21.8923 39.8844 21.768 40.8571 21.6615 40.9279C21.8923 40.7864 22.3006 40.2912 22.3006 40.2558C22.1586 40.8218 21.8213 41.6707 20.6497 41.6177ZM17.8094 49.9129C17.0639 49.8245 16.3893 49.5769 15.9633 47.7374C15.6083 47.9497 15.1467 48.6395 15.0757 48.8694C14.8094 48.2503 14.1704 46.9061 15.6083 45.9864C14.8272 45.3673 14.6497 44.6599 15.4307 44.1646C15.5728 44.6952 16.2473 45.4027 17.3302 44.6245C18.4485 43.8816 19.1408 43.4041 19.5313 43.4041C18.8213 43.8639 17.5432 44.9959 16.7799 45.1728C16.0343 45.3673 15.5905 45.1197 15.3597 45.0313C15.5373 45.5796 15.839 45.898 16.2118 46.0395C15.5017 46.5347 14.9337 47.1184 15.3065 47.702C15.697 47.2422 16.1941 47.1184 16.3893 47.2245C16.6556 48.6218 17.2769 49.8422 18.1112 49.3469C18.839 48.834 18.8745 48.7986 18.9633 48.7986C18.342 48.6571 17.2414 48.6218 17.7739 46.8531C18.4485 47.1537 18.8568 47.0299 19.1586 46.7293C18.6615 46.2517 18.413 45.385 18.6615 45.049C19.052 44.6952 22.1053 42.0422 22.2118 41.8122C21.7148 42.7143 19.5846 44.4122 19.0875 45.049C18.5905 45.6857 19.4426 46.7293 19.8686 46.5878C19.3006 47.2775 18.7858 47.6667 18.0402 47.419C17.6674 48.5864 20.4012 48.0027 20.0461 49.5592C18.5018 48.7456 18.484 50.0014 17.8094 49.9129ZM16.0165 46.7116C16.3716 46.4816 18.6793 44.3946 19.3538 43.9701C17.1881 45.8803 17.1704 47.4367 17.0994 48.1442C16.8154 47.8435 16.8331 47.1184 17.0639 46.4639C16.8864 46.3578 16.6201 46.4816 16.0165 46.7116ZM19.3006 48.1796L18.9633 48.1265L18.9278 47.6136L19.2651 47.4898C19.2828 47.702 19.2118 47.8435 19.3006 48.1796ZM19.3361 49.5592L19.6911 49.5238C20.3834 50.2136 21.2887 50.6558 21.91 50.1075C21.2 49.7007 20.6142 48.9755 21.0402 47.8082C21.4307 46.6408 22.9574 42.5905 23.0106 42.5197C22.7799 43.9701 21.6438 46.8 21.3952 47.7374C21.1112 48.7102 21.484 50.0898 22.8686 49.5946C22.3716 50.4612 21.058 51.717 19.3361 49.5592ZM22.3716 49.3646L21.9278 49.2762C21.8213 48.9048 22.0875 47.8082 22.2296 47.4721C22.2296 47.9143 22.2296 49.0463 22.3716 49.3646ZM23.5432 51.6639C23.1171 51.434 22.5491 50.6735 22.5668 50.6735L22.7799 50.3197C22.9219 50.6204 23.2769 50.9918 23.5254 51.1687C23.7917 50.9565 24.129 50.6027 24.271 50.3197L24.5017 50.6735C24.5373 50.6735 23.9515 51.4163 23.5432 51.6639ZM24.2 49.6653C25.6023 50.1782 25.9929 48.8871 25.7444 47.9497C25.4958 46.9592 24.4485 44.1293 24.2532 42.6789C24.2887 42.732 25.6911 46.8531 26.0816 48.0204C26.4544 49.2054 25.8686 49.9129 25.1586 50.2844C25.7621 50.868 26.6852 50.4612 27.3775 49.7537L27.7325 49.8068C25.9751 51.9116 24.697 50.5673 24.2 49.6653ZM24.7148 49.5238C24.8568 49.2231 24.8923 48.0735 24.8923 47.6313C25.0698 47.9673 25.2828 49.0463 25.1586 49.4354L24.7148 49.5238ZM28.5313 45.3143C28.8864 45.6503 28.4958 46.517 27.981 46.9592C28.2651 47.2952 28.7799 47.4014 29.4544 47.1361C29.9692 48.9048 28.8509 48.9048 28.1231 49.0463C28.2118 49.0463 28.2651 49.0816 29.0639 49.5946C29.8982 50.1252 30.5728 48.9048 30.839 47.5075C31.052 47.4014 31.5136 47.5429 31.9219 48.0204C32.2947 47.4367 31.7444 46.8708 31.052 46.3578C31.4248 46.2517 31.7799 45.9156 31.9396 45.385C31.7266 45.4735 31.3006 45.6857 30.5373 45.4735C29.7739 45.2966 28.4248 44.1293 27.7148 43.6517C28.1053 43.6517 28.9041 44.1293 29.987 44.9252C31.0698 45.7388 31.7444 45.0313 31.9041 44.5184C32.6497 45.049 32.4899 45.7388 31.6733 46.3224C33.0757 47.2952 32.4189 48.6218 32.1526 49.2408C32.0816 48.9932 31.6023 48.3034 31.3006 48.0912C30.8213 49.8952 30.1112 50.1429 29.3834 50.2136C28.6733 50.2844 28.6378 49.0463 27.058 49.7714C26.7384 48.2327 29.5432 48.8694 29.2059 47.702C28.3716 47.9497 27.839 47.5252 27.2887 46.8177C27.697 46.9769 28.6023 45.951 28.1053 45.2966C27.626 44.6599 25.5313 42.9088 25.052 41.9714C25.1586 42.2014 28.1408 44.9429 28.5313 45.3143ZM30.129 48.4449C30.0757 47.7374 30.1112 46.1633 27.8923 44.2C28.5668 44.6422 30.91 46.8 31.2651 47.0122C30.6793 46.7823 30.3952 46.6408 30.2177 46.7469C30.413 47.419 30.413 48.1973 30.129 48.4449ZM27.8568 47.7374L28.1941 47.8435L28.1408 48.3741L27.8035 48.4095C27.9278 48.0912 27.8568 47.9497 27.8568 47.7374ZM26.6674 41.8122C25.4958 41.8476 25.1586 40.9986 25.0343 40.415C25.0343 40.4327 25.4248 40.9633 25.6556 41.1048C25.5491 41.034 25.4603 40.0789 25.6201 39.6014C25.4248 40.5211 26.3834 41.7592 26.6674 41.8122ZM25.0343 39.2476C25.3893 38.5755 26.0284 37.6558 26.3124 36.8776L26.6497 36.8599C26.4189 37.4258 25.9396 38.434 25.0343 39.2476ZM29.7384 37.4612C27.9278 37.0721 27.129 37.6204 26.5077 38.0272C27.9988 36.5946 28.4781 37.019 29.7384 37.4612ZM27.484 37.8327C28.2296 37.5143 30.3775 37.8327 31.3006 38.2571C31.1231 37.7088 30.3775 37.4258 29.2236 36.7891C31.1941 37.1959 31.9929 37.9565 31.9396 38.9469C31.1231 38.1687 28.6023 37.6735 27.484 37.8327ZM29.9515 42.5197C29.7384 42.3782 29.8804 41.9184 30.058 41.7415C30.2177 41.7769 30.2 42.0775 30.1645 42.2544C30.3065 42.3075 31.0875 42.4844 31.4071 42.6082C31.2118 42.6612 30.2532 42.5905 29.9515 42.5197ZM34.8154 40.0612C34.0876 40.0966 33.7325 39.8136 33.271 39.3891C33.0935 39.8136 32.9515 40.6449 33.058 40.8925C32.6142 40.5742 32.3302 40.2912 32.1349 39.8844C31.7444 40.5211 31.4603 40.9279 31.3183 41.4231C31.1053 40.7864 31.1053 40.0612 31.052 39.849C30.8923 40.4857 30.7503 41.034 30.484 41.317C30.129 40.8395 30.2 40.0789 30.129 39.902C29.8627 40.7864 29.6852 40.8748 28.7621 40.7156C29.7029 40.2027 29.8272 39.283 29.2236 38.3279C29.7562 38.9293 29.8982 39.4068 29.8982 39.7605C30.1645 39.4599 30.271 39.1946 30.342 39.1061C30.3775 39.6898 30.413 40.0789 30.555 40.2027C30.839 39.8667 30.9278 39.4245 31.0343 39.1592C31.2473 39.4068 31.4603 40.0435 31.4426 40.3796C31.6556 39.9728 32.0816 39.6544 32.2591 39.566C32.4367 39.9728 32.6319 40.2381 32.7917 40.2912C32.8982 39.6014 33.058 39.1238 33.1822 38.8408C33.5373 39.3184 33.981 39.5837 34.1941 39.566C33.839 39.0884 35.0994 36.7537 33.1467 36.0639C35.6497 36.4531 33.6793 39.8136 34.8154 40.0612ZM33.5905 37.0367C33.8923 37.6912 33.8213 38.6993 33.768 39.0884C33.5905 38.8762 33.1645 38.4163 33.0225 38.3633C32.916 38.6993 32.7562 39.0354 32.5609 39.3184C32.5254 39.0884 32.2947 38.2925 32.0816 37.8327C32.0994 37.868 32.4899 38.3633 32.6319 38.6109C32.7562 38.3456 32.8094 38.1156 32.7917 37.7973C33.1467 37.9741 33.2532 38.151 33.5373 38.4517C33.6083 38.3102 33.6438 37.4966 33.5905 37.0367ZM30.9278 36.5061C30.9455 36.4 30.8745 36.2762 30.342 35.8694C30.7148 35.6925 31.1763 35.781 32.0639 36.1701C31.7976 35.6395 30.7858 35.3741 30.4662 35.215C32.6497 35.7102 32.8627 36.5238 33.1467 37.3197C32.8982 37.0367 32.3479 36.6122 31.4071 36.3116C31.6201 36.5415 31.6556 36.8422 31.6911 37.1959C31.3006 36.966 30.5373 36.8245 29.5964 36.5946C29.8804 36.4 30.3597 36.3469 30.9278 36.5061ZM47.3834 19.385C46.8331 20.5524 44.7207 21.366 43.3183 21.7374C44.1349 21.366 46.1941 20.4639 46.5136 19.7742C45.8035 19.668 44.1704 20.0571 43.1408 20.3755C44.3657 19.7565 46.0165 19.0136 47.3834 19.385ZM44.4899 27.4857C43.8686 27.3796 42.5373 27.0435 41.4899 26.6544L41.6497 26.283C42.6083 26.6721 43.9929 27.185 44.4899 27.4857ZM41.7917 19.2258C42.6083 18.9782 44.5432 17.8993 44.9337 17.5633C44.6674 18.0231 42.91 19.1728 41.916 19.6327L41.7917 19.2258ZM42.0402 24.7088C43.0698 24.8503 44.5077 24.9741 45.0757 25.151C44.4722 25.2218 43.0698 25.2218 41.9692 25.1156L42.0402 24.7088ZM42.0402 21.0476C42.8568 20.9061 45.1645 20.3048 45.6438 20.1633C45.1645 20.4993 43.1941 21.1537 42.129 21.4367L42.0402 21.0476ZM42.2177 22.9401C43.2651 22.8517 44.9515 22.7633 45.5195 22.7986C44.9515 22.9755 43.3361 23.1878 42.2532 23.3469L42.2177 22.9401ZM46.6201 16.5374C46.2473 17.7755 44.4012 19.0136 43.0698 19.5796C43.7976 19.102 45.6083 17.7755 45.839 17.0503C45.1112 17.0503 43.5668 17.6694 42.5905 18.1116C43.6733 17.3333 45.2177 16.3959 46.6201 16.5374ZM46.052 12.9646C46.1586 15.2463 43.6911 16.6966 42.342 17.4748C43.4958 16.6259 44.987 15.3878 45.3597 14.0789C44.8449 14.7156 42.6793 15.9537 41.8449 16.2898C43.6201 15.1932 45.839 13.2476 46.052 12.9646ZM44.4722 15.1401C44.2946 15.6354 42.3952 17.0327 41.4899 17.6694L41.4189 17.2803C42.1645 16.9265 44.1526 15.5823 44.4722 15.1401ZM44.7207 9.00272C45.484 11.3728 42.9455 13.9374 41.7384 15.0871C42.7148 13.902 44.3302 11.815 44.3302 10.3646C43.9751 11.1605 41.7207 13.3714 40.9574 13.9374C42.4662 12.3456 44.5787 9.37415 44.7207 9.00272ZM43.2473 12.3456C43.1408 12.8762 41.5964 14.7687 40.8154 15.5469L40.6556 15.1755C41.3479 14.6626 43.0165 12.8231 43.2473 12.3456ZM37.9396 17.7755C38.3657 17.4571 39.3065 16.4136 39.5728 15.8122C39.5018 16.6259 38.2769 17.8463 38.0816 17.9878C37.8686 18.1293 37.7444 17.9701 37.9396 17.7755ZM37.6556 19.8272C37.6556 19.8272 39.0935 19.0136 39.2 18.9605C39.342 18.8721 39.4662 19.0136 39.342 19.1197C39.2 19.2082 37.9041 19.9156 37.7799 20.0041C37.6378 20.0925 37.5313 19.898 37.6556 19.8272ZM37.3183 25.8054C37.1408 25.7524 37.2828 25.5401 37.4248 25.6286C37.4248 25.6286 38.5609 26.2122 38.7029 26.2653C38.8449 26.3361 38.7739 26.5306 38.6319 26.4599C38.4899 26.4068 37.4958 25.8939 37.3183 25.8054ZM37.5668 27.9102C37.4781 27.8218 36.6083 26.9197 36.4662 26.7959C36.3597 26.6721 36.5373 26.5306 36.6438 26.6544C36.6438 26.6544 37.6023 27.6449 37.7266 27.751C37.7976 27.8748 37.6556 28.0163 37.5668 27.9102ZM37.8331 24.5673C37.6378 24.5497 37.7089 24.3197 37.8509 24.3551C37.8509 24.3551 39.129 24.5497 39.2887 24.5673C39.4307 24.585 39.4307 24.7973 39.2887 24.7796C39.129 24.7619 38.0284 24.585 37.8331 24.5673ZM38.0994 22.8871C38.0994 22.8871 39.3952 22.8871 39.5373 22.8871C39.697 22.8871 39.7325 23.0816 39.5905 23.0816C39.4307 23.0993 38.2947 23.0993 38.0994 23.117C37.9041 23.117 37.9396 22.8871 38.0994 22.8871ZM38.0639 21.5075C37.8864 21.5782 37.8509 21.3483 38.0106 21.3129C38.0106 21.3129 39.2355 20.9415 39.3775 20.8884C39.5195 20.8354 39.6083 21.0299 39.4662 21.0653C39.3242 21.1361 38.2414 21.4544 38.0639 21.5075ZM34.2296 21.2776C33.981 21.1361 34.1586 21.0476 34.2473 20.9238C34.3361 20.8 35.9692 19.102 36.2887 19.0136C35.8449 19.3497 34.4958 20.9946 34.4958 21.0476C34.4958 21.1007 34.4781 21.419 34.2296 21.2776ZM34.2118 25.8939C34.3893 25.6816 34.7976 26.4952 34.7799 26.6721C34.7621 26.8313 34.1408 25.9646 34.2118 25.8939ZM32.7739 26.3891C33.0047 26.2476 33.129 27.1497 33.058 27.3088C33.0047 27.4503 32.6852 26.4422 32.7739 26.3891ZM31.3183 26.283C31.5846 26.2653 31.2828 27.1143 31.1408 27.2204C30.9988 27.3442 31.2118 26.283 31.3183 26.283ZM30.484 23.0639C30.8745 22.9932 31.4426 22.6748 31.6733 22.5156C31.9041 22.9932 31.4603 24.0014 30.484 24.0898C30.91 23.8422 31.3361 23.5946 31.4426 22.9048C31.1586 23.0286 30.697 23.1701 30.484 23.0639ZM30.3065 26.9374C30.3775 26.6721 30.8213 26.1061 30.839 26.0884C30.6438 26.4068 30.3775 26.9905 30.5373 27.2204C30.7148 27.4503 30.9455 27.8925 30.9455 27.8748C30.9455 27.8748 31.4248 27.6803 31.6911 27.6095C31.9574 27.5388 32.1349 26.902 32.1704 26.4599C32.1526 26.7959 32.1349 27.4503 32.4012 27.6095C32.6497 27.7156 33.058 28.034 33.058 27.9986C33.0402 27.9986 33.3952 27.6449 33.5905 27.468C33.8213 27.2912 33.697 26.6544 33.5728 26.2476C33.7325 26.6014 33.9988 27.2204 34.2651 27.2204C34.5491 27.2381 35.0816 27.3619 35.0461 27.3619C35.0461 27.3619 35.2059 26.8667 35.3124 26.6367C35.4367 26.3891 35.0816 25.8585 34.8154 25.5401C35.0816 25.8408 35.5964 26.3714 35.916 26.2653C36.2355 26.1769 36.8035 26.0884 36.7858 26.0884C36.7858 26.1061 36.768 25.5578 36.7858 25.2218C36.8213 24.9034 36.2177 24.4966 35.7207 24.2667C36.1112 24.3551 36.839 24.4435 37.0343 24.1782C37.2296 23.8952 37.6023 23.4707 37.5846 23.4884C37.5846 23.4884 37.2296 23.0639 37.0165 22.8163C36.839 22.551 36.1112 22.6218 35.6852 22.7279C36.1467 22.5864 36.8745 22.3565 36.8923 22.0558C36.9278 21.7374 37.0876 21.1714 37.0876 21.1714C37.0876 21.1891 36.555 20.9946 36.271 20.8177C35.987 20.6762 35.3657 21.0653 35.0106 21.3306C36.3242 20.3401 37.4248 18.7129 37.5136 17.2095L37.5491 17.2803C37.4426 18.5537 36.9988 19.6327 36.1822 20.4816C36.3242 20.517 36.555 20.5878 36.6438 20.6585C36.697 20.6939 37.4426 21.0122 37.4426 21.0122C37.4426 20.9946 37.2296 21.5429 37.2118 21.8612C37.1941 22.215 37.052 22.3388 36.7503 22.498C37.0875 22.4449 37.1763 22.5687 37.3716 22.8694C37.5491 23.1347 37.9219 23.5769 37.9219 23.5592C37.9219 23.5415 37.4958 23.9306 37.2828 24.2136C37.1053 24.4966 36.91 24.5497 36.626 24.5497C36.91 24.815 36.9988 24.9034 36.9633 25.2748C36.9633 25.6463 36.9633 26.283 36.9633 26.283C36.981 26.283 36.4307 26.3007 36.1467 26.3891C35.8627 26.4776 35.7739 26.5483 35.4722 26.3537C35.5964 26.6014 35.5432 26.7075 35.4367 26.9374C35.3302 27.1497 35.1881 27.6272 35.1881 27.6272C35.2236 27.6272 34.7266 27.4327 34.4426 27.4327C34.1763 27.4327 34.0165 27.3973 33.8745 27.185C33.91 27.5034 33.7325 27.5741 33.555 27.751C33.3775 27.9102 33.058 28.317 33.0757 28.317C33.0757 28.317 32.6852 27.9633 32.4367 27.8925C32.1704 27.8218 32.1171 27.7156 32.0816 27.468C31.9929 27.751 31.7621 27.8218 31.5313 27.8925C31.2828 27.9456 30.8568 28.1755 30.8568 28.1932C30.8568 28.1932 30.6438 27.698 30.4662 27.5388C30.3065 27.3796 30.2355 27.2027 30.3065 26.9374ZM35.1349 22.1088C34.9751 21.8789 35.916 21.6844 36.0757 21.7551C36.2532 21.8258 35.1704 22.1973 35.1349 22.1088ZM36.5195 23.4531C36.6793 23.5769 35.4012 23.6299 35.3657 23.5238C35.2769 23.2762 36.342 23.3469 36.5195 23.4531ZM36.0047 25.4694C36.0757 25.6816 35.0816 25.0626 35.0994 24.9741C35.1704 24.6381 35.9515 25.2571 36.0047 25.4694ZM36.0402 28.9714C35.9692 28.8653 35.4722 27.9279 35.4012 27.8041C35.2947 27.6803 35.4899 27.5565 35.5609 27.6803C35.5609 27.6803 36.129 28.7061 36.2355 28.8653C36.2887 28.9714 36.1112 29.0952 36.0402 28.9714ZM34.1763 29.6082C34.1231 29.4667 33.8745 28.3524 33.8213 28.1932C33.7503 27.9986 33.9988 27.981 34.0165 28.1224C34.0165 28.1224 34.3006 29.3959 34.3538 29.5374C34.4071 29.6789 34.2118 29.7673 34.1763 29.6082ZM32.5787 29.7673C32.5964 29.9442 32.3834 29.9796 32.3834 29.8027C32.3834 29.6612 32.3834 28.5293 32.3479 28.3524C32.3479 28.1578 32.5609 28.1932 32.5609 28.3524C32.5609 28.3524 32.5787 29.6435 32.5787 29.7673ZM30.981 28.5293C30.981 28.5293 30.626 29.7673 30.5905 29.9265C30.5728 30.068 30.342 30.0327 30.3952 29.9088C30.3952 29.7673 30.7325 28.6707 30.7858 28.4762C30.8035 28.2816 31.0343 28.3878 30.981 28.5293ZM33.9988 34.1537C32.7917 33.4993 33.0225 33.0925 33.2 31.5714C33.271 32.4381 33.1467 33.0395 33.981 33.5701C34.6556 33.181 34.5846 32.7034 34.6733 31.6599C34.7799 32.951 35.0639 33.4109 33.9988 34.1537ZM33.7503 31.2177L34.1586 31.2884C34.0876 32.2966 33.981 32.5619 33.8745 33.1102C33.768 32.5265 33.7325 32.332 33.7503 31.2177ZM37.0165 34.3129C35.8449 33.9061 35.7207 33.1633 35.5609 31.6776C35.8094 32.4912 36.2 33.6408 36.8568 33.7646C37.3183 33.4286 37.1408 32.4912 37.0165 31.4299C37.4248 32.7034 37.7799 33.517 37.0165 34.3129ZM35.9337 31.0585L36.342 31.0231C36.4485 32.0313 36.7325 32.668 36.7148 33.234C36.5195 32.668 36.1112 32.1374 35.9337 31.0585ZM39.8568 33.6408C38.6319 33.5347 38.3302 32.668 37.7976 31.2531C38.2591 31.9959 38.916 33.0395 39.555 33.0041C39.9278 32.5796 39.626 31.6952 39.2177 30.7224C39.9278 31.8367 40.3716 32.668 39.8568 33.6408ZM39.2887 32.5619C38.9515 32.0844 38.3302 31.3415 37.8509 30.351L38.2414 30.1918C38.6142 31.1469 39.1467 31.9959 39.2887 32.5619ZM42.4307 32.1728C41.2236 32.4381 40.8686 31.483 39.91 30.3156C40.5491 30.8639 41.3124 31.8898 41.9337 31.6422C42.1467 31.1293 41.5077 30.351 40.8509 29.5374C41.8982 30.3687 42.6083 31.0762 42.4307 32.1728ZM41.5787 31.2884C41.0816 30.9347 40.2118 30.1918 39.4662 29.3782L39.7858 29.1306C40.4426 29.9088 41.2769 30.7932 41.5787 31.2884ZM40.3006 26.9197C40.1941 27.2558 39.6438 27.5918 38.8449 27.5918C38.916 27.9986 38.8449 28.4408 38.5964 29.0422C38.3124 29.2544 37.6911 29.1483 37.1231 28.9184C37.1053 29.3075 37.0165 29.6082 36.768 29.9973C36.3242 30.1742 35.916 29.9973 35.4544 29.7143C35.4189 30.1918 34.9929 30.4571 34.6733 30.7755C33.91 30.7401 33.6615 30.4925 33.413 30.0857C33.3242 30.3333 33.2177 30.6517 32.6319 30.9701C31.9574 30.8286 31.7266 30.6163 31.4426 30.1211C31.052 30.7932 30.7148 30.9701 30.129 30.8816V30.6871C30.6615 30.8286 31.1763 30.3687 31.5491 29.4136C31.6733 30.0857 31.8509 30.4925 32.5964 30.7224C33.0047 30.5633 33.3065 30.3333 33.3242 29.3075C33.5728 30.1034 33.9278 30.4395 34.6201 30.5279C35.4012 29.9088 35.2591 29.4844 35.0461 28.7061C35.4367 29.3959 35.6497 29.7673 36.5905 29.732C37.0698 29.0599 36.8568 28.6 36.555 27.8571C37.1231 28.7238 37.4426 28.9714 38.3834 28.7946C38.7917 27.751 38.5432 27.3973 38.0461 26.902C38.7917 27.3442 39.2 27.5388 39.9988 26.7959C39.981 26.0177 39.7148 25.7347 38.7917 25.434C39.626 25.6816 40.1586 25.7701 40.7444 24.9388C40.5136 24.0544 40.1408 23.8952 39.2355 23.8599C40.1763 23.9306 40.7799 23.8068 41.3302 22.9578C40.6201 21.6844 40.2473 21.8612 39.413 21.9673C40.6378 21.702 41.0994 21.3837 41.2947 20.3048C40.3538 19.5619 39.8035 19.8803 38.8272 20.3755C40.3183 19.5088 41.0284 18.5891 40.9396 17.8993C40.1053 17.3864 38.6142 18.4476 37.9574 18.8898C40.2828 17.1918 40.0698 15.7946 40.0343 14.6626C40.4958 16.0245 40.1586 16.7497 39.6438 17.5986C39.91 17.4748 41.0106 17.3864 41.2236 17.6871C41.4544 17.9878 41.1171 18.9252 40.3538 19.5973C40.6733 19.5265 41.4544 19.8803 41.5964 20.1986C41.7207 20.4993 41.3302 21.2422 40.8509 21.8082C41.1171 22.0381 41.4367 22.3741 41.6497 22.8871C41.5077 23.4 41.0461 23.7714 40.6201 23.966C40.7976 24.1782 40.9396 24.6027 41.0284 25.0095C40.9396 25.1864 40.7621 25.5401 40.052 25.8585C40.1586 26.0177 40.3006 26.5129 40.3006 26.9197ZM40.9929 27.8395C41.8449 28.4054 42.8745 29.1306 43.3006 29.502C42.7325 29.2898 41.7207 28.7238 40.7621 28.1578L40.9929 27.8395ZM44.4012 30.1742C43.2651 30.6871 42.4485 30.0503 41.2947 29.0776C42.0402 29.502 43.2118 30.1388 43.7621 29.7673C43.8686 29.219 43.0343 28.5293 42.2 27.8925C43.3893 28.5116 44.3657 29.0952 44.4012 30.1742ZM45.8213 27.8925C44.5787 28.5116 43.6911 28.1224 42.413 27.415C43.2473 27.6626 44.4722 27.9279 45.1645 27.6272C44.7029 27.0789 43.9219 26.619 42.981 26.1769C44.2591 26.5306 45.2 26.6367 45.8213 27.8925ZM46.6733 25.098C45.7148 26.0707 44.4899 26.0354 43.0343 25.7524C43.8864 25.7347 45.3952 25.6463 45.9633 25.151C45.3775 24.7619 44.1349 24.4789 43.052 24.3374C44.4012 24.2667 45.5905 24.2136 46.6733 25.098ZM47.2414 22.5864C46.3538 23.5238 44.5432 23.8599 43.1053 23.7714C43.9574 23.6653 45.839 23.2408 46.3893 22.6925C45.7503 22.3388 44.4544 22.3565 43.4071 22.3388C44.7207 22.1619 46.0343 21.8435 47.2414 22.5864ZM37.2296 39.9905L39.2 39.9374L39.271 38.0626C38.3834 38.0626 37.5313 39.0884 37.2296 39.9905ZM3.76802 30.4041C4.1408 30.4041 4.60234 30.3687 4.53134 29.9973C4.46033 29.6259 4.17631 29.5905 4.17631 29.4136C4.51359 28.7238 4.81536 28.2463 4.22956 27.185C4.1053 27.4503 3.57276 28.2816 3.39524 27.468C3.62601 27.1673 3.14672 27.132 3.16447 26.9905C3.19998 27.132 2.75619 27.1673 2.96921 27.468L2.75619 27.4503C2.80944 26.9197 2.33015 26.9905 2.22364 26.8313C2.20589 27.0612 1.76211 27.2381 2.08163 27.6626L1.90412 27.7687C1.92187 27.415 1.53134 27.6095 1.46033 27.468C1.56684 27.5918 1.17631 27.8571 1.54909 27.9986C1.79761 28.7769 0.910035 28.3524 0.661514 28.1755C0.697017 29.3782 1.21181 29.6258 1.86861 30.0503C1.95737 30.2095 1.70885 30.3864 1.85086 30.7401C1.97512 31.0939 2.40116 30.8993 2.70293 30.6871C2.75619 30.5456 2.9337 30.351 3.16447 30.298C3.41299 30.2449 3.66151 30.298 3.76802 30.4041ZM3.66151 29.4844C3.83903 29.4667 3.94554 29.5374 4.08755 29.502C4.28282 29.9796 3.34199 30.5279 3.55501 29.732C3.60826 29.6612 3.62601 29.5374 3.66151 29.4844ZM3.28873 28.1048C3.30648 27.981 3.484 27.8925 3.59051 27.9102C3.66151 28.0871 3.50175 28.8122 3.27098 28.5823C3.23548 28.4585 3.27098 28.1401 3.28873 28.1048ZM2.47217 27.6803C2.68518 27.5918 3.37749 27.3442 2.64968 28.2816C1.54909 27.8748 2.2414 27.751 2.47217 27.6803ZM1.63785 28.4585C1.7266 28.3878 1.92187 28.4054 2.01063 28.4939C2.02838 28.4939 2.20589 28.7769 2.22364 28.9007C2.13489 29.2014 1.63785 28.6354 1.63785 28.4585ZM2.02838 29.9973C2.15264 29.9973 2.2414 29.8558 2.38341 29.8204C2.41891 29.8558 2.50767 29.9796 2.57867 29.9973C3.14672 30.6163 2.02838 30.5102 2.02838 29.9973ZM2.33015 28.9891L3.21773 28.7415C3.41299 29.2544 3.5195 29.5905 3.09347 29.9442C2.50767 29.8912 2.41891 29.5374 2.33015 28.9891ZM3.18222 28.8299L2.43666 29.0422C2.50767 29.502 2.59643 29.785 3.07572 29.8381C3.43075 29.5374 3.34199 29.2544 3.18222 28.8299ZM27.129 28.2109L27.0225 28.1401C27.0225 28.1755 26.8272 28.2286 26.7384 28.2286L26.7917 28.4054C26.9337 28.3878 27.058 28.2993 27.129 28.2109Z" fill="#202020"/>
</g>
<defs>
<clipPath id="clip0_83_160">
<rect width="48" height="52" fill="white" transform="translate(0.0224609)"/>
</clipPath>
</defs>
</svg>
